<?xml version="1.0" standalone="no"?>
<!DOCTYPE svg PUBLIC "-//W3C//DTD SVG 1.1//EN" "http://www.w3.org/Graphics/SVG/1.1/DTD/svg11.dtd" >
<svg>
<metadata>
Created by FontForge 20090622 at Fri Mar 18 10:49:51 2016
 By deploy user
Copyright (c) 2016 Caveras / Cliff Modes
</metadata>
<defs>
<font id="NDS12" horiz-adv-x="2457" >
  <font-face 
    font-family="NDS12"
    font-weight="400"
    font-stretch="normal"
    units-per-em="4096"
    panose-1="0 0 4 0 0 0 0 0 0 0"
    ascent="3276"
    descent="-820"
    x-height="2457"
    cap-height="3686"
    bbox="0 -409 4915 4505"
    underline-thickness="204"
    underline-position="511"
    unicode-range="U+0020-U+FFFD"
  />
<missing-glyph horiz-adv-x="4095" 
d="M0 -409v4914h3686v-4914h-3686z" />
    <glyph glyph-name=".notdef" horiz-adv-x="4095" 
d="M0 -409v4914h3686v-4914h-3686z" />
    <glyph glyph-name="NULL" horiz-adv-x="0" 
 />
    <glyph glyph-name="nonmarkingreturn" horiz-adv-x="819" 
 />
    <glyph glyph-name="space" unicode=" " horiz-adv-x="1228" 
 />
    <glyph glyph-name="exclam" unicode="!" horiz-adv-x="1638" 
d="M409 0v819h410v-819h-410zM409 1228v2458h410v-2458h-410z" />
    <glyph glyph-name="quotedbl" unicode="&#x22;" horiz-adv-x="1638" 
d="M0 2867v819h409v-819h-409zM819 2867v819h409v-819h-409z" />
    <glyph glyph-name="numbersign" unicode="#" horiz-adv-x="3276" 
d="M1638 1228v1229h-410v-1229h410zM409 0v819h-409v409h819v1229h-410v410h819v819h410v-819h410v819h409v-819h410v-410h-819v-1229h409v-409h-819v-819h-410v819h-409v-819h-410z" />
    <glyph glyph-name="dollar" unicode="$" 
d="M0 819v409h409v-409h-409zM1638 819v819h410v-819h-410zM0 2048v819h409v-819h-409zM1638 2457v410h410v-410h-410zM819 0v409h-410v410h410v819h-410v410h410v819h-410v409h410v410h409v-410h410v-409h-410v-819h410v-410h-410v-819h410v-410h-410v-409h-409z" />
    <glyph glyph-name="percent" unicode="%" horiz-adv-x="3276" 
d="M2048 0v409h409v-409h-409zM409 0v819h410v-819h-410zM1638 409v819h410v-819h-410zM2457 409v819h410v-819h-410zM819 819v819h409v-819h-409zM2048 1228v410h409v-410h-409zM1228 1638v410h410v-410h-410zM409 2048v409h410v-409h-410zM1638 2048v819h410v-819h-410z
M0 2457v819h409v-819h-409zM819 2457v819h409v-819h-409zM409 3276v410h410v-410h-410zM2048 2867v819h409v-819h-409z" />
    <glyph glyph-name="ampersand" unicode="&#x26;" horiz-adv-x="2867" 
d="M409 0v409h1229v-409h-1229zM2048 0v409h409v-409h-409zM0 409v819h409v-819h-409zM1638 409v819h410v-819h-410zM409 1228v410h410v-410h-410zM1228 1228v410h410v-410h-410zM2048 1228v410h409v-410h-409zM819 1638v410h409v-410h-409zM409 2048v1228h410v-1228h-410z
M1228 2048v1228h410v-1228h-410zM819 3276v410h409v-410h-409z" />
    <glyph glyph-name="quotesingle" unicode="'" horiz-adv-x="819" 
d="M0 2867v819h409v-819h-409z" />
    <glyph glyph-name="parenleft" unicode="(" horiz-adv-x="1638" 
d="M819 0v409h409v-409h-409zM409 409v819h410v-819h-410zM0 1228v1229h409v-1229h-409zM409 2457v819h410v-819h-410zM819 3276v410h409v-410h-409z" />
    <glyph glyph-name="parenright" unicode=")" horiz-adv-x="1638" 
d="M0 0v409h409v-409h-409zM409 409v819h410v-819h-410zM819 1228v1229h409v-1229h-409zM409 2457v819h410v-819h-410zM0 3276v410h409v-410h-409z" />
    <glyph glyph-name="asterisk" unicode="*" horiz-adv-x="3276" 
d="M0 819v409h409v-409h-409zM2457 819v409h410v-409h-410zM409 1228v410h410v-410h-410zM2048 1228v410h409v-410h-409zM409 2048v409h410v-409h-410zM2048 2048v409h409v-409h-409zM0 2457v410h409v-410h-409zM2457 2457v410h410v-410h-410zM1228 409v1229h-409v410h409
v1228h410v-1228h410v-410h-410v-1229h-410z" />
    <glyph glyph-name="plus" unicode="+" 
d="M819 819v819h-819v410h819v819h409v-819h820v-410h-820v-819h-409z" />
    <glyph glyph-name="comma" unicode="," horiz-adv-x="1638" 
d="M0 -409v409h409v-409h-409zM409 0v409h410v-409h-410z" />
    <glyph glyph-name="hyphen" unicode="-" 
d="M0 1638v410h2048v-410h-2048z" />
    <glyph glyph-name="period" unicode="." horiz-adv-x="1638" 
d="M409 0v409h410v-409h-410z" />
    <glyph glyph-name="slash" unicode="/" 
d="M409 0v1228h410v-1228h-410zM819 1228v1229h409v-1229h-409zM1228 2457v1229h410v-1229h-410z" />
    <glyph glyph-name="zero" unicode="0" 
d="M409 0v409h1229v-409h-1229zM819 1638v410h409v-410h-409zM0 409v2867h409v-1638h410v-819h-410v-410h-409zM1638 409v1639h-410v819h410v409h410v-2867h-410zM409 3276v410h1229v-410h-1229z" />
    <glyph glyph-name="one" unicode="1" horiz-adv-x="1638" 
d="M409 0v3276h-409v410h819v-3686h-410z" />
    <glyph glyph-name="two" unicode="2" 
d="M0 0v1638h409v-1229h1639v-409h-2048zM409 1638v410h1229v-410h-1229zM1638 2048v1228h410v-1228h-410zM0 3276v410h1638v-410h-1638z" />
    <glyph glyph-name="three" unicode="3" 
d="M0 0v409h1638v-409h-1638zM1638 409v1229h410v-1229h-410zM409 1638v410h1229v-410h-1229zM1638 2048v1228h410v-1228h-410zM0 3276v410h1638v-410h-1638z" />
    <glyph glyph-name="four" unicode="4" horiz-adv-x="2867" 
d="M0 1638v2048h409v-2048h-409zM1638 0v1228h-1229v410h1229v2048h410v-2048h409v-410h-409v-1228h-410z" />
    <glyph glyph-name="five" unicode="5" 
d="M0 0v409h1638v-409h-1638zM1638 409v1229h410v-1229h-410zM0 1638v2048h2048v-410h-1639v-1228h1229v-410h-1638z" />
    <glyph glyph-name="six" unicode="6" 
d="M409 0v409h1229v-409h-1229zM1638 409v1229h410v-1229h-410zM0 409v2867h409v-1228h1229v-410h-1229v-1229h-409zM409 3276v410h1229v-410h-1229z" />
    <glyph glyph-name="seven" unicode="7" 
d="M819 0v2048h409v-2048h-409zM1228 2048v409h410v-409h-410zM1638 2457v819h-1638v410h2048v-1229h-410z" />
    <glyph glyph-name="eight" unicode="8" 
d="M409 0v409h1229v-409h-1229zM0 409v1229h409v-1229h-409zM1638 409v1229h410v-1229h-410zM409 1638v410h1229v-410h-1229zM0 2048v1228h409v-1228h-409zM1638 2048v1228h410v-1228h-410zM409 3276v410h1229v-410h-1229z" />
    <glyph glyph-name="nine" unicode="9" 
d="M409 0v409h1229v-409h-1229zM0 2048v1228h409v-1228h-409zM1638 409v1229h-1229v410h1229v1228h410v-2867h-410zM409 3276v410h1229v-410h-1229z" />
    <glyph glyph-name="colon" unicode=":" horiz-adv-x="1638" 
d="M409 819v409h410v-409h-410zM409 2457v410h410v-410h-410z" />
    <glyph glyph-name="semicolon" unicode=";" horiz-adv-x="2047" 
d="M409 409v410h410v-410h-410zM819 819v409h409v-409h-409zM819 2457v410h409v-410h-409z" />
    <glyph glyph-name="less" unicode="&#x3c;" horiz-adv-x="1638" 
d="M819 819v409h409v-409h-409zM409 1228v410h410v-410h-410zM0 1638v410h409v-410h-409zM409 2048v409h410v-409h-410zM819 2457v410h409v-410h-409z" />
    <glyph glyph-name="equal" unicode="=" 
d="M0 1228v410h2048v-410h-2048zM0 2048v409h2048v-409h-2048z" />
    <glyph glyph-name="greater" unicode="&#x3e;" horiz-adv-x="1638" 
d="M0 819v409h409v-409h-409zM409 1228v410h410v-410h-410zM819 1638v410h409v-410h-409zM409 2048v409h410v-409h-410zM0 2457v410h409v-410h-409z" />
    <glyph glyph-name="question" unicode="?" horiz-adv-x="2048" 
d="M409 0v819h410v-819h-410zM409 1228v820h410v-820h-410zM819 2048v409h409v-409h-409zM1228 2457v819h410v-819h-410zM0 3276v410h1228v-410h-1228z" />
    <glyph glyph-name="at" unicode="@" horiz-adv-x="3276" 
d="M819 0v409h1638v-409h-1638zM409 409v410h410v-410h-410zM819 1228v1229h409v-1229h-409zM0 819v2048h409v-2048h-409zM1228 819v409h410v1229h-410v410h820v-1639h409v-409h-1229zM2457 1228v1639h410v-1639h-410zM409 2867v409h410v-409h-410zM2048 2867v409h409v-409
h-409zM819 3276v410h1229v-410h-1229z" />
    <glyph glyph-name="A" unicode="A" 
d="M0 0v1638h409v1229h410v-1229h409v1229h410v-1229h410v-1638h-410v1228h-1229v-1228h-409zM819 2867v819h409v-819h-409z" />
    <glyph glyph-name="B" unicode="B" 
d="M1638 409v1229h410v-1229h-410zM1638 2048v1228h410v-1228h-410zM0 0v3686h1638v-410h-1229v-1228h1229v-410h-1229v-1229h1229v-409h-1638z" />
    <glyph glyph-name="C" unicode="C" 
d="M409 0v409h1639v-409h-1639zM0 409v2867h409v-2867h-409zM409 3276v410h1639v-410h-1639z" />
    <glyph glyph-name="D" unicode="D" 
d="M1638 409v2867h410v-2867h-410zM0 0v3686h1638v-410h-1229v-2867h1229v-409h-1638z" />
    <glyph glyph-name="E" unicode="E" horiz-adv-x="2048" 
d="M0 0v3686h1638v-410h-1229v-1228h1229v-410h-1229v-1229h1229v-409h-1638z" />
    <glyph glyph-name="F" unicode="F" horiz-adv-x="2048" 
d="M0 0v3686h1638v-410h-1229v-1228h1229v-410h-1229v-1638h-409z" />
    <glyph glyph-name="G" unicode="G" 
d="M409 0v409h1229v-409h-1229zM1638 409v1229h-819v410h1229v-1639h-410zM0 409v2867h409v-2867h-409zM409 3276v410h1639v-410h-1639z" />
    <glyph glyph-name="H" unicode="H" 
d="M0 0v3686h409v-1638h1229v1638h410v-3686h-410v1638h-1229v-1638h-409z" />
    <glyph glyph-name="I" unicode="I" horiz-adv-x="819" 
d="M0 0v3686h409v-3686h-409z" />
    <glyph glyph-name="J" unicode="J" horiz-adv-x="2048" 
d="M0 0v409h1228v-409h-1228zM1228 409v3277h410v-3277h-410z" />
    <glyph glyph-name="K" unicode="K" 
d="M1638 0v409h410v-409h-410zM1228 409v819h410v-819h-410zM819 1228v410h409v-410h-409zM819 2048v409h409v-409h-409zM1228 2457v819h410v-819h-410zM0 0v3686h409v-1638h410v-410h-410v-1638h-409zM1638 3276v410h410v-410h-410z" />
    <glyph glyph-name="L" unicode="L" horiz-adv-x="2048" 
d="M0 0v3686h409v-3277h1229v-409h-1638z" />
    <glyph glyph-name="M" unicode="M" 
d="M819 1228v820h409v-820h-409zM0 0v3686h409v-819h410v-819h-410v-2048h-409zM1638 0v2048h-410v819h410v819h410v-3686h-410z" />
    <glyph glyph-name="N" unicode="N" 
d="M819 1638v819h409v-819h-409zM0 0v3686h409v-410h410v-819h-410v-2457h-409zM1638 0v819h-410v819h410v2048h410v-3686h-410z" />
    <glyph glyph-name="O" unicode="O" 
d="M409 0v409h1229v-409h-1229zM0 409v2867h409v-2867h-409zM1638 409v2867h410v-2867h-410zM409 3276v410h1229v-410h-1229z" />
    <glyph glyph-name="P" unicode="P" 
d="M1638 2048v1228h410v-1228h-410zM0 0v3686h1638v-410h-1229v-1228h1229v-410h-1229v-1638h-409z" />
    <glyph glyph-name="Q" unicode="Q" 
d="M1228 -409v409h-819v409h410v410h409v-410h410v-409h410v-409h-820zM0 409v2867h409v-2867h-409zM1638 409v2867h410v-2867h-410zM409 3276v410h1229v-410h-1229z" />
    <glyph glyph-name="R" unicode="R" 
d="M1638 0v819h410v-819h-410zM1638 2048v1228h410v-1228h-410zM0 0v3686h1638v-410h-1229v-1228h1229v-1229h-410v819h-819v-1638h-409z" />
    <glyph glyph-name="S" unicode="S" horiz-adv-x="2048" 
d="M0 0v409h1228v-409h-1228zM1228 409v1229h410v-1229h-410zM409 1638v410h819v-410h-819zM0 2048v1228h409v-1228h-409zM409 3276v410h1229v-410h-1229z" />
    <glyph glyph-name="T" unicode="T" 
d="M819 0v3276h-819v410h2048v-410h-820v-3276h-409z" />
    <glyph glyph-name="U" unicode="U" 
d="M409 0v409h1229v-409h-1229zM0 409v3277h409v-3277h-409zM1638 409v3277h410v-3277h-410z" />
    <glyph glyph-name="V" unicode="V" 
d="M819 0v819h409v-819h-409zM409 819v1638h410v-1638h-410zM1228 819v1638h410v-1638h-410zM0 2457v1229h409v-1229h-409zM1638 2457v1229h410v-1229h-410z" />
    <glyph glyph-name="W" unicode="W" 
d="M409 0v1228h410v-1228h-410zM1228 0v1228h410v-1228h-410zM819 1228v1639h409v-1639h-409zM0 1228v2458h409v-2458h-409zM1638 1228v2458h410v-2458h-410z" />
    <glyph glyph-name="X" unicode="X" 
d="M0 0v819h409v-819h-409zM1638 0v819h410v-819h-410zM409 819v819h410v-819h-410zM1228 819v819h410v-819h-410zM819 1638v410h409v-410h-409zM409 2048v819h410v-819h-410zM1228 2048v819h410v-819h-410zM0 2867v819h409v-819h-409zM1638 2867v819h410v-819h-410z" />
    <glyph glyph-name="Y" unicode="Y" 
d="M819 0v2048h409v-2048h-409zM409 2048v819h410v-819h-410zM1228 2048v819h410v-819h-410zM0 2867v819h409v-819h-409zM1638 2867v819h410v-819h-410z" />
    <glyph glyph-name="Z" unicode="Z" horiz-adv-x="2048" 
d="M0 0v819h409v-410h1229v-409h-1638zM409 819v1229h410v819h409v-1229h-409v-819h-410zM1228 2867v409h-1228v410h1638v-819h-410z" />
    <glyph glyph-name="bracketleft" unicode="[" horiz-adv-x="1638" 
d="M0 0v3686h1228v-410h-819v-2867h819v-409h-1228z" />
    <glyph glyph-name="backslash" unicode="\" 
d="M1228 0v1228h410v-1228h-410zM819 1228v1229h409v-1229h-409zM409 2457v1229h410v-1229h-410z" />
    <glyph glyph-name="bracketright" unicode="]" horiz-adv-x="1638" 
d="M0 0v409h819v2867h-819v410h1228v-3686h-1228z" />
    <glyph glyph-name="asciicircum" unicode="^" horiz-adv-x="1638" 
d="M0 2867v409h409v-409h-409zM819 2867v409h409v-409h-409zM409 3276v410h410v-410h-410z" />
    <glyph glyph-name="underscore" unicode="_" 
d="M0 0v409h2048v-409h-2048z" />
    <glyph glyph-name="grave" unicode="`" horiz-adv-x="1228" 
d="M409 2867v409h410v-409h-410zM0 3276v410h409v-410h-409z" />
    <glyph glyph-name="a" unicode="a" 
d="M0 409v819h409v-819h-409zM409 0v409h1229v819h-1229v410h1229v410h410v-2048h-1639zM0 2048v409h1638v-409h-1638z" />
    <glyph glyph-name="b" unicode="b" 
d="M1638 409v1639h410v-1639h-410zM0 0v3686h409v-1229h1229v-409h-1229v-1639h1229v-409h-1638z" />
    <glyph glyph-name="c" unicode="c" 
d="M409 0v409h1639v-409h-1639zM0 409v1639h409v-1639h-409zM409 2048v409h1639v-409h-1639z" />
    <glyph glyph-name="d" unicode="d" 
d="M0 409v1639h409v-1639h-409zM409 0v409h1229v1639h-1229v409h1229v1229h410v-3686h-1639z" />
    <glyph glyph-name="e" unicode="e" 
d="M409 0v409h1639v-409h-1639zM0 409v1639h409v-410h1229v410h410v-820h-1639v-819h-409zM409 2048v409h1229v-409h-1229z" />
    <glyph glyph-name="f" unicode="f" horiz-adv-x="2048" 
d="M409 0v2048h-409v409h409v819h410v-819h819v-409h-819v-2048h-410zM819 3276v410h819v-410h-819z" />
    <glyph glyph-name="g" unicode="g" 
d="M0 -409v409h1638v-409h-1638zM0 819v1229h409v-1229h-409zM1638 0v409h-1229v410h1229v1229h-1229v409h1639v-2457h-410z" />
    <glyph glyph-name="h" unicode="h" 
d="M1638 0v2048h410v-2048h-410zM0 0v3686h409v-1229h1229v-409h-1229v-2048h-409z" />
    <glyph glyph-name="i" unicode="i" horiz-adv-x="819" 
d="M0 0v2457h409v-2457h-409zM0 2867v409h409v-409h-409z" />
    <glyph glyph-name="j" unicode="j" horiz-adv-x="1638" 
d="M0 -409v409h819v-409h-819zM819 0v2457h409v-2457h-409zM819 2867v409h409v-409h-409z" />
    <glyph glyph-name="k" unicode="k" horiz-adv-x="2048" 
d="M1228 0v819h410v-819h-410zM819 819v409h409v-409h-409zM819 1638v410h409v-410h-409zM1228 2048v409h410v-409h-410zM0 0v3686h409v-2048h410v-410h-410v-1228h-409z" />
    <glyph glyph-name="l" unicode="l" horiz-adv-x="1228" 
d="M409 0v409h410v-409h-410zM0 409v3277h409v-3277h-409z" />
    <glyph glyph-name="m" unicode="m" horiz-adv-x="3276" 
d="M2457 0v2048h410v-2048h-410zM0 0v2457h2457v-409h-819v-2048h-410v2048h-819v-2048h-409z" />
    <glyph glyph-name="n" unicode="n" 
d="M1638 0v2048h410v-2048h-410zM0 0v2457h1638v-409h-1229v-2048h-409z" />
    <glyph glyph-name="o" unicode="o" 
d="M409 0v409h1229v-409h-1229zM0 409v1639h409v-1639h-409zM1638 409v1639h410v-1639h-410zM409 2048v409h1229v-409h-1229z" />
    <glyph glyph-name="p" unicode="p" 
d="M1638 819v1229h410v-1229h-410zM0 -409v2866h1638v-409h-1229v-1229h1229v-410h-1229v-818h-409z" />
    <glyph glyph-name="q" unicode="q" 
d="M0 819v1229h409v-1229h-409zM1638 -409v818h-1229v410h1229v1229h-1229v409h1639v-2866h-410z" />
    <glyph glyph-name="r" unicode="r" horiz-adv-x="2048" 
d="M0 0v2457h409v-409h410v-410h-410v-1638h-409zM819 2048v409h819v-409h-819z" />
    <glyph glyph-name="s" unicode="s" horiz-adv-x="2048" 
d="M0 0v409h1228v-409h-1228zM1228 409v819h410v-819h-410zM409 1228v410h819v-410h-819zM0 1638v410h409v-410h-409zM409 2048v409h1229v-409h-1229z" />
    <glyph glyph-name="t" unicode="t" horiz-adv-x="2048" 
d="M819 0v409h819v-409h-819zM409 409v1639h-409v409h409v819h410v-819h819v-409h-819v-1639h-410z" />
    <glyph glyph-name="u" unicode="u" 
d="M0 409v2048h409v-2048h-409zM409 0v409h1229v2048h410v-2457h-1639z" />
    <glyph glyph-name="v" unicode="v" 
d="M819 0v819h409v-819h-409zM409 819v819h410v-819h-410zM1228 819v819h410v-819h-410zM0 1638v819h409v-819h-409zM1638 1638v819h410v-819h-410z" />
    <glyph glyph-name="w" unicode="w" 
d="M409 0v819h410v-819h-410zM1228 0v819h410v-819h-410zM819 819v1229h409v-1229h-409zM0 819v1638h409v-1638h-409zM1638 819v1638h410v-1638h-410z" />
    <glyph glyph-name="x" unicode="x" 
d="M0 0v409h409v-409h-409zM1638 0v409h410v-409h-410zM409 409v410h410v-410h-410zM1228 409v410h410v-410h-410zM819 819v819h409v-819h-409zM409 1638v410h410v-410h-410zM1228 1638v410h410v-410h-410zM0 2048v409h409v-409h-409zM1638 2048v409h410v-409h-410z" />
    <glyph glyph-name="y" unicode="y" 
d="M0 -409v409h819v-409h-819zM819 0v819h409v-819h-409zM409 819v819h410v-819h-410zM1228 819v819h410v-819h-410zM0 1638v819h409v-819h-409zM1638 1638v819h410v-819h-410z" />
    <glyph glyph-name="z" unicode="z" 
d="M0 0v819h409v-410h1639v-409h-2048zM409 819v409h410v-409h-410zM819 1228v410h409v-410h-409zM1228 1638v410h-1228v409h2048v-409h-410v-410h-410z" />
    <glyph glyph-name="braceleft" unicode="{" horiz-adv-x="2048" 
d="M819 0v409h819v-409h-819zM409 409v1229h410v-1229h-410zM0 1638v410h409v-410h-409zM409 2048v1228h410v-1228h-410zM819 3276v410h819v-410h-819z" />
    <glyph glyph-name="bar" unicode="|" horiz-adv-x="819" 
d="M0 0v3686h409v-3686h-409z" />
    <glyph glyph-name="braceright" unicode="}" horiz-adv-x="2048" 
d="M0 0v409h819v-409h-819zM819 409v1229h409v-1229h-409zM1228 1638v410h410v-410h-410zM819 2048v1228h409v-1228h-409zM0 3276v410h819v-410h-819z" />
    <glyph glyph-name="asciitilde" unicode="~" 
d="M1228 2457v410h410v-410h-410zM0 2867v409h409v-409h-409zM819 2867v409h409v-409h-409zM1638 2867v409h410v-409h-410zM409 3276v410h410v-410h-410z" />
    <glyph glyph-name="uni007F" horiz-adv-x="4095" 
d="M0 -409v4914h3686v-4914h-3686z" />
    <glyph glyph-name="uni00A0" unicode="&#xa0;" horiz-adv-x="1228" 
 />
    <glyph glyph-name="exclamdown" unicode="&#xa1;" horiz-adv-x="1638" 
d="M409 0v2457h410v-2457h-410zM409 2867v819h410v-819h-410z" />
    <glyph glyph-name="cent" unicode="&#xa2;" horiz-adv-x="2867" 
d="M2048 819v409h409v-409h-409zM819 1228v1229h409v-1229h-409zM409 0v819h-409v2048h409v-1639h410v-409h1229v-410h-1229v-409h-410zM2048 2457v410h409v-410h-409zM1228 2457v410h-819v409h819v410h410v-410h410v-409h-410v-410h-410z" />
    <glyph glyph-name="sterling" unicode="&#xa3;" 
d="M0 0v819h409v-410h1639v-409h-2048zM409 819v409h410v-409h-410zM819 1228v410h-819v410h819v409h409v-409h820v-410h-820v-410h-409zM409 2457v819h410v-819h-410zM1638 2867v409h410v-409h-410zM819 3276v410h819v-410h-819z" />
    <glyph glyph-name="currency" unicode="&#xa4;" 
d="M0 409v410h409v-410h-409zM1638 409v410h410v-410h-410zM1228 1228v410h-409v-410h409zM409 819v1229h1229v-1229h-1229zM0 2048v409h409v-409h-409zM1638 2048v409h410v-409h-410z" />
    <glyph glyph-name="yen" unicode="&#xa5;" 
d="M819 0v409h-819v410h819v409h-819v410h819v410h409v-410h820v-410h-820v-409h820v-410h-820v-409h-409zM409 2048v819h410v-819h-410zM1228 2048v819h410v-819h-410zM0 2867v819h409v-819h-409zM1638 2867v819h410v-819h-410z" />
    <glyph glyph-name="brokenbar" unicode="&#xa6;" horiz-adv-x="819" 
d="M0 0v1228h409v-1228h-409zM0 2457v1229h409v-1229h-409z" />
    <glyph glyph-name="section" unicode="&#xa7;" horiz-adv-x="2048" 
d="M0 0v409h1228v-409h-1228zM1228 409v819h-819v410h819v410h410v-1639h-410zM0 1638v1638h409v-819h819v-409h-819v-410h-409zM409 3276v410h1229v-410h-1229z" />
    <glyph glyph-name="dieresis" unicode="&#xa8;" horiz-adv-x="1638" 
d="M0 4096v409h409v-409h-409zM819 4096v409h409v-409h-409z" />
    <glyph glyph-name="copyright" unicode="&#xa9;" horiz-adv-x="4095" 
d="M819 0v409h2048v-409h-2048zM409 409v410h410v-410h-410zM2867 409v410h409v-410h-409zM1228 819v409h1229v-409h-1229zM2457 1228v410h410v-410h-410zM819 1228v1229h409v-1229h-409zM2457 2048v409h410v-409h-410zM0 819v2048h409v-2048h-409zM1228 2457v410h1229v-410
h-1229zM3276 819v2048h410v-2048h-410zM409 2867v409h410v-409h-410zM2867 2867v409h409v-409h-409zM819 3276v410h2048v-410h-2048z" />
    <glyph glyph-name="guillemotleft" unicode="&#xab;" 
d="M819 819v409h409v-409h-409zM1638 819v409h410v-409h-410zM409 1228v410h410v-410h-410zM1228 1228v410h410v-410h-410zM0 1638v410h409v-410h-409zM819 1638v410h409v-410h-409zM409 2048v409h410v-409h-410zM1228 2048v409h410v-409h-410zM819 2457v410h409v-410h-409z
M1638 2457v410h410v-410h-410z" />
    <glyph glyph-name="logicalnot" unicode="&#xac;" 
d="M1638 1228v410h-1638v410h2048v-820h-410z" />
    <glyph glyph-name="uni00AD" unicode="&#xad;" 
d="M0 1638v410h2048v-410h-2048z" />
    <glyph glyph-name="registered" unicode="&#xae;" horiz-adv-x="4095" 
d="M819 0v409h2048v-409h-2048zM409 409v410h410v-410h-410zM2867 409v410h409v-410h-409zM2457 819v409h410v-409h-410zM2457 2048v409h410v-409h-410zM0 819v2048h409v-2048h-409zM819 819v2048h1638v-410h-1229v-409h1229v-820h-409v410h-820v-819h-409zM3276 819v2048
h410v-2048h-410zM409 2867v409h410v-409h-410zM2867 2867v409h409v-409h-409zM819 3276v410h2048v-410h-2048z" />
    <glyph glyph-name="macron" unicode="&#xaf;" horiz-adv-x="1638" 
d="M0 3276v410h1228v-410h-1228z" />
    <glyph glyph-name="degree" unicode="&#xb0;" horiz-adv-x="1638" 
d="M409 2457v410h410v-410h-410zM0 2867v409h409v-409h-409zM819 2867v409h409v-409h-409zM409 3276v410h410v-410h-410z" />
    <glyph glyph-name="plusminus" unicode="&#xb1;" 
d="M0 409v410h2048v-410h-2048zM819 1228v820h-819v409h819v819h409v-819h820v-409h-820v-820h-409z" />
    <glyph glyph-name="twosuperior" unicode="&#xb2;" horiz-adv-x="1638" 
d="M0 1638v1229h819v409h-819v410h1228v-1229h-819v-409h819v-410h-1228z" />
    <glyph glyph-name="threesuperior" unicode="&#xb3;" horiz-adv-x="1638" 
d="M0 1638v410h819v409h-410v410h410v409h-819v410h1228v-2048h-1228z" />
    <glyph glyph-name="acute" unicode="&#xb4;" horiz-adv-x="1228" 
d="M0 2867v409h409v-409h-409zM409 3276v410h410v-410h-410z" />
    <glyph glyph-name="mu" unicode="&#xb5;" 
d="M0 -409v2866h409v-1638h1229v-410h-1229v-818h-409zM1638 819v1638h410v-1638h-410z" />
    <glyph glyph-name="paragraph" unicode="&#xb6;" 
d="M819 0v2048h-410v409h-409v819h409v410h1639v-3686h-410v3276h-410v-3276h-409z" />
    <glyph glyph-name="periodcentered" unicode="&#xb7;" horiz-adv-x="819" 
d="M0 1638v410h409v-410h-409z" />
    <glyph glyph-name="cedilla" unicode="&#xb8;" horiz-adv-x="1228" 
d="M0 -409v409h409v-409h-409zM409 0v409h410v-409h-410z" />
    <glyph glyph-name="onesuperior" unicode="&#xb9;" horiz-adv-x="1638" 
d="M409 1638v2048h410v-2048h-410z" />
    <glyph glyph-name="guillemotright" unicode="&#xbb;" 
d="M0 819v409h409v-409h-409zM819 819v409h409v-409h-409zM409 1228v410h410v-410h-410zM1228 1228v410h410v-410h-410zM819 1638v410h409v-410h-409zM1638 1638v410h410v-410h-410zM409 2048v409h410v-409h-410zM1228 2048v409h410v-409h-410zM0 2457v410h409v-410h-409z
M819 2457v410h409v-410h-409z" />
    <glyph glyph-name="onequarter" unicode="&#xbc;" horiz-adv-x="4095" 
d="M1228 0v1228h410v-1228h-410zM3276 0v409h-819v1639h410v-1229h409v409h410v-1228h-410zM1638 1228v1229h410v-1229h-410zM409 1638v2048h410v-2048h-410zM2048 2457v1229h409v-1229h-409z" />
    <glyph glyph-name="onehalf" unicode="&#xbd;" horiz-adv-x="4095" 
d="M1228 0v1228h410v-1228h-410zM2457 0v1228h819v410h-819v410h1229v-1229h-819v-410h819v-409h-1229zM1638 1228v1229h410v-1229h-410zM409 1638v2048h410v-2048h-410zM2048 2457v1229h409v-1229h-409z" />
    <glyph glyph-name="threequarters" unicode="&#xbe;" horiz-adv-x="4095" 
d="M1228 0v1228h410v-1228h-410zM3276 0v409h-819v1639h410v-1229h409v409h410v-1228h-410zM1638 1228v1229h410v-1229h-410zM0 1638v410h819v409h-410v410h410v409h-819v410h1228v-2048h-1228zM2048 2457v1229h409v-1229h-409z" />
    <glyph glyph-name="questiondown" unicode="&#xbf;" horiz-adv-x="2048" 
d="M409 0v409h1229v-409h-1229zM0 409v819h409v-819h-409zM409 1228v410h410v-410h-410zM819 1638v819h409v-819h-409zM819 2867v819h409v-819h-409z" />
    <glyph glyph-name="Agrave" unicode="&#xc0;" 
d="M0 0v1638h409v1229h410v-1229h409v1229h410v-1229h410v-1638h-410v1228h-1229v-1228h-409zM819 2867v409h409v-409h-409zM1228 3686v410h410v-410h-410zM819 4096v409h409v-409h-409z" />
    <glyph glyph-name="Aacute" unicode="&#xc1;" 
d="M0 0v1638h409v1229h410v-1229h409v1229h410v-1229h410v-1638h-410v1228h-1229v-1228h-409zM819 2867v409h409v-409h-409zM409 3686v410h410v-410h-410zM819 4096v409h409v-409h-409z" />
    <glyph glyph-name="Acircumflex" unicode="&#xc2;" 
d="M0 0v1638h409v1229h410v-1229h409v1229h410v-1229h410v-1638h-410v1228h-1229v-1228h-409zM819 2867v409h409v-409h-409zM409 3686v410h410v-410h-410zM1228 3686v410h410v-410h-410zM819 4096v409h409v-409h-409z" />
    <glyph glyph-name="Atilde" unicode="&#xc3;" 
d="M0 0v1638h409v1229h410v-1229h409v1229h410v-1229h410v-1638h-410v1228h-1229v-1228h-409zM819 2867v409h409v-409h-409zM409 3686v410h410v-410h-410zM1228 3686v410h410v-410h-410zM819 4096v409h409v-409h-409zM1638 4096v409h410v-409h-410z" />
    <glyph glyph-name="Adieresis" unicode="&#xc4;" 
d="M0 0v1638h409v1229h410v-1229h409v1229h410v-1229h410v-1638h-410v1228h-1229v-1228h-409zM819 2867v409h409v-409h-409zM409 3686v410h410v-410h-410zM1228 3686v410h410v-410h-410z" />
    <glyph glyph-name="Aring" unicode="&#xc5;" 
d="M0 0v1638h409v1229h410v-1229h409v1229h410v-1229h410v-1638h-410v1228h-1229v-1228h-409zM819 2867v819h409v-819h-409zM409 3686v410h410v-410h-410zM1228 3686v410h410v-410h-410zM819 4096v409h409v-409h-409z" />
    <glyph glyph-name="AE" unicode="&#xc6;" horiz-adv-x="3276" 
d="M0 0v1638h409v1229h410v-1229h409v1229h-409v819h2048v-410h-1229v-1228h819v-410h-819v-1229h1229v-409h-1639v1228h-819v-1228h-409z" />
    <glyph glyph-name="Ccedilla" unicode="&#xc7;" horiz-adv-x="2048" 
d="M409 -409v409h410v-409h-410zM819 0v409h-410v410h1229v-410h-410v-409h-409zM0 819v2457h409v-2457h-409zM409 3276v410h1229v-410h-1229z" />
    <glyph glyph-name="Egrave" unicode="&#xc8;" horiz-adv-x="2048" 
d="M0 0v3276h1638v-409h-1229v-819h1229v-410h-1229v-1229h1229v-409h-1638zM819 3686v410h409v-410h-409zM409 4096v409h410v-409h-410z" />
    <glyph glyph-name="Eacute" unicode="&#xc9;" horiz-adv-x="2048" 
d="M0 0v3276h1638v-409h-1229v-819h1229v-410h-1229v-1229h1229v-409h-1638zM409 3686v410h410v-410h-410zM819 4096v409h409v-409h-409z" />
    <glyph glyph-name="Ecircumflex" unicode="&#xca;" horiz-adv-x="2048" 
d="M0 0v3276h1638v-409h-1229v-819h1229v-410h-1229v-1229h1229v-409h-1638zM409 3686v410h410v-410h-410zM1228 3686v410h410v-410h-410zM819 4096v409h409v-409h-409z" />
    <glyph glyph-name="Edieresis" unicode="&#xcb;" horiz-adv-x="2048" 
d="M0 0v3276h1638v-409h-1229v-819h1229v-410h-1229v-1229h1229v-409h-1638zM409 3686v410h410v-410h-410zM1228 3686v410h410v-410h-410z" />
    <glyph glyph-name="Igrave" unicode="&#xcc;" horiz-adv-x="1228" 
d="M409 0v3276h410v-3276h-410zM409 3686v410h410v-410h-410zM0 4096v409h409v-409h-409z" />
    <glyph glyph-name="Iacute" unicode="&#xcd;" horiz-adv-x="1228" 
d="M0 0v3276h409v-3276h-409zM0 3686v410h409v-410h-409zM409 4096v409h410v-409h-410z" />
    <glyph glyph-name="Icircumflex" unicode="&#xce;" horiz-adv-x="1638" 
d="M409 0v3276h410v-3276h-410zM0 3686v410h409v-410h-409zM819 3686v410h409v-410h-409zM409 4096v409h410v-409h-410z" />
    <glyph glyph-name="Idieresis" unicode="&#xcf;" horiz-adv-x="1638" 
d="M409 0v3276h410v-3276h-410zM0 3686v410h409v-410h-409zM819 3686v410h409v-410h-409z" />
    <glyph glyph-name="Eth" unicode="&#xd0;" horiz-adv-x="2867" 
d="M2048 409v2867h409v-2867h-409zM409 0v1638h-409v410h409v1638h1639v-410h-1229v-1228h409v-410h-409v-1229h1229v-409h-1639z" />
    <glyph glyph-name="Ntilde" unicode="&#xd1;" 
d="M819 1228v820h409v-820h-409zM0 0v3276h409v-409h410v-819h-410v-2048h-409zM1638 0v409h-410v819h410v2048h410v-3276h-410zM409 3686v410h410v-410h-410zM1228 3686v410h410v-410h-410zM819 4096v409h409v-409h-409zM1638 4096v409h410v-409h-410z" />
    <glyph glyph-name="Ograve" unicode="&#xd2;" 
d="M409 0v409h1229v-409h-1229zM0 409v2458h409v-2458h-409zM1638 409v2458h410v-2458h-410zM409 2867v409h1229v-409h-1229zM819 3686v410h409v-410h-409zM409 4096v409h410v-409h-410z" />
    <glyph glyph-name="Oacute" unicode="&#xd3;" 
d="M409 0v409h1229v-409h-1229zM0 409v2458h409v-2458h-409zM1638 409v2458h410v-2458h-410zM409 2867v409h1229v-409h-1229zM819 3686v410h409v-410h-409zM1228 4096v409h410v-409h-410z" />
    <glyph glyph-name="Ocircumflex" unicode="&#xd4;" 
d="M409 0v409h1229v-409h-1229zM0 409v2458h409v-2458h-409zM1638 409v2458h410v-2458h-410zM409 2867v409h1229v-409h-1229zM409 3686v410h410v-410h-410zM1228 3686v410h410v-410h-410zM819 4096v409h409v-409h-409z" />
    <glyph glyph-name="Otilde" unicode="&#xd5;" 
d="M409 0v409h1229v-409h-1229zM0 409v2458h409v-2458h-409zM1638 409v2458h410v-2458h-410zM409 2867v409h1229v-409h-1229zM409 3686v410h410v-410h-410zM1228 3686v410h410v-410h-410zM819 4096v409h409v-409h-409zM1638 4096v409h410v-409h-410z" />
    <glyph glyph-name="Odieresis" unicode="&#xd6;" 
d="M409 0v409h1229v-409h-1229zM0 409v2458h409v-2458h-409zM1638 409v2458h410v-2458h-410zM409 2867v409h1229v-409h-1229zM409 4096v409h410v-409h-410zM1228 4096v409h410v-409h-410z" />
    <glyph glyph-name="multiply" unicode="&#xd7;" 
d="M0 819v409h409v-409h-409zM1638 819v409h410v-409h-410zM409 1228v410h410v-410h-410zM1228 1228v410h410v-410h-410zM819 1638v410h409v-410h-409zM409 2048v409h410v-409h-410zM1228 2048v409h410v-409h-410zM0 2457v410h409v-410h-409zM1638 2457v410h410v-410h-410z
" />
    <glyph glyph-name="Oslash" unicode="&#xd8;" horiz-adv-x="3276" 
d="M819 0v409h1229v-409h-1229zM1228 1638v410h410v-410h-410zM0 409v410h409v2457h410v-1638h409v-410h-409v-819h-819zM2048 409v1639h-410v409h410v819h819v-409h-410v-2458h-409zM819 3276v410h1229v-410h-1229z" />
    <glyph glyph-name="Ugrave" unicode="&#xd9;" 
d="M409 0v409h1229v-409h-1229zM0 409v2867h409v-2867h-409zM1638 409v2867h410v-2867h-410zM819 3686v410h409v-410h-409zM409 4096v409h410v-409h-410z" />
    <glyph glyph-name="Uacute" unicode="&#xda;" 
d="M409 0v409h1229v-409h-1229zM0 409v2867h409v-2867h-409zM1638 409v2867h410v-2867h-410zM819 3686v410h409v-410h-409zM1228 4096v409h410v-409h-410z" />
    <glyph glyph-name="Ucircumflex" unicode="&#xdb;" 
d="M409 0v409h1229v-409h-1229zM0 409v2867h409v-2867h-409zM1638 409v2867h410v-2867h-410zM409 3686v410h410v-410h-410zM1228 3686v410h410v-410h-410zM819 4096v409h409v-409h-409z" />
    <glyph glyph-name="Udieresis" unicode="&#xdc;" 
d="M409 0v409h1229v-409h-1229zM0 409v2867h409v-2867h-409zM1638 409v2867h410v-2867h-410zM409 3686v410h410v-410h-410zM1228 3686v410h410v-410h-410z" />
    <glyph glyph-name="Yacute" unicode="&#xdd;" 
d="M819 0v2048h409v-2048h-409zM409 2048v819h410v-819h-410zM1228 2048v819h410v-819h-410zM0 2867v819h409v-819h-409zM1638 2867v819h410v-819h-410zM819 3686v410h409v-410h-409zM1228 4096v409h410v-409h-410z" />
    <glyph glyph-name="Thorn" unicode="&#xde;" 
d="M1638 1228v1229h410v-1229h-410zM0 0v3686h409v-819h1229v-410h-1229v-1229h1229v-409h-1229v-819h-409z" />
    <glyph glyph-name="germandbls" unicode="&#xdf;" 
d="M819 409v410h819v-410h-819zM1638 819v1229h410v-1229h-410zM819 2048v409h819v-409h-819zM0 0v3276h409v-3276h-409zM1638 2457v819h410v-819h-410zM409 3276v410h1229v-410h-1229z" />
    <glyph glyph-name="agrave" unicode="&#xe0;" 
d="M0 409v819h409v-819h-409zM409 0v409h1229v819h-1229v410h1229v410h410v-2048h-1639zM0 2048v409h1638v-409h-1638zM1228 2867v409h410v-409h-410zM819 3276v410h409v-410h-409z" />
    <glyph glyph-name="aacute" unicode="&#xe1;" 
d="M0 409v819h409v-819h-409zM409 0v409h1229v819h-1229v410h1229v410h410v-2048h-1639zM0 2048v409h1638v-409h-1638zM819 2867v409h409v-409h-409zM1228 3276v410h410v-410h-410z" />
    <glyph glyph-name="acircumflex" unicode="&#xe2;" 
d="M0 409v819h409v-819h-409zM409 0v409h1229v819h-1229v410h1229v410h410v-2048h-1639zM0 2048v409h1638v-409h-1638zM409 2867v409h410v-409h-410zM1228 2867v409h410v-409h-410zM819 3276v410h409v-410h-409z" />
    <glyph glyph-name="atilde" unicode="&#xe3;" 
d="M0 409v819h409v-819h-409zM409 0v409h1229v819h-1229v410h1229v410h410v-2048h-1639zM0 2048v409h1638v-409h-1638zM409 2867v409h410v-409h-410zM1228 2867v409h410v-409h-410zM819 3276v410h409v-410h-409zM1638 3276v410h410v-410h-410z" />
    <glyph glyph-name="adieresis" unicode="&#xe4;" 
d="M0 409v819h409v-819h-409zM409 0v409h1229v819h-1229v410h1229v410h410v-2048h-1639zM0 2048v409h1638v-409h-1638zM409 2867v409h410v-409h-410zM1228 2867v409h410v-409h-410z" />
    <glyph glyph-name="aring" unicode="&#xe5;" 
d="M0 409v819h409v-819h-409zM409 0v409h1229v819h-1229v410h1229v410h410v-2048h-1639zM0 2048v409h1638v-409h-1638zM819 2867v409h409v-409h-409zM409 3276v410h410v-410h-410zM1228 3276v410h410v-410h-410zM819 3686v410h409v-410h-409z" />
    <glyph glyph-name="ae" unicode="&#xe6;" horiz-adv-x="3276" 
d="M0 409v819h409v-819h-409zM409 0v409h819v819h-819v410h819v410h410v-410h819v410h410v-820h-1229v-819h1229v-409h-2458zM0 2048v409h1228v-409h-1228zM1638 2048v409h819v-409h-819z" />
    <glyph glyph-name="ccedilla" unicode="&#xe7;" horiz-adv-x="2048" 
d="M409 -409v409h410v-409h-410zM819 0v409h-410v410h1229v-410h-410v-409h-409zM0 819v1229h409v-1229h-409zM409 2048v409h1229v-409h-1229z" />
    <glyph glyph-name="egrave" unicode="&#xe8;" 
d="M409 0v409h1639v-409h-1639zM0 409v1639h409v-410h1229v410h410v-820h-1639v-819h-409zM409 2048v409h1229v-409h-1229zM819 2867v409h409v-409h-409zM409 3276v410h410v-410h-410z" />
    <glyph glyph-name="eacute" unicode="&#xe9;" 
d="M409 0v409h1639v-409h-1639zM0 409v1639h409v-410h1229v410h410v-820h-1639v-819h-409zM409 2048v409h1229v-409h-1229zM819 2867v409h409v-409h-409zM1228 3276v410h410v-410h-410z" />
    <glyph glyph-name="ecircumflex" unicode="&#xea;" 
d="M409 0v409h1639v-409h-1639zM0 409v1639h409v-410h1229v410h410v-820h-1639v-819h-409zM409 2048v409h1229v-409h-1229zM409 2867v409h410v-409h-410zM1228 2867v409h410v-409h-410zM819 3276v410h409v-410h-409z" />
    <glyph glyph-name="edieresis" unicode="&#xeb;" 
d="M409 0v409h1639v-409h-1639zM0 409v1639h409v-410h1229v410h410v-820h-1639v-819h-409zM409 2048v409h1229v-409h-1229zM409 2867v409h410v-409h-410zM1228 2867v409h410v-409h-410z" />
    <glyph glyph-name="igrave" unicode="&#xec;" horiz-adv-x="1228" 
d="M409 0v2457h410v-2457h-410zM409 2867v409h410v-409h-410zM0 3276v410h409v-410h-409z" />
    <glyph glyph-name="iacute" unicode="&#xed;" horiz-adv-x="1228" 
d="M0 0v2457h409v-2457h-409zM0 2867v409h409v-409h-409zM409 3276v410h410v-410h-410z" />
    <glyph glyph-name="icircumflex" unicode="&#xee;" horiz-adv-x="1638" 
d="M409 0v2457h410v-2457h-410zM0 2867v409h409v-409h-409zM819 2867v409h409v-409h-409zM409 3276v410h410v-410h-410z" />
    <glyph glyph-name="idieresis" unicode="&#xef;" horiz-adv-x="1638" 
d="M409 0v2457h410v-2457h-410zM0 2867v409h409v-409h-409zM819 2867v409h409v-409h-409z" />
    <glyph glyph-name="eth" unicode="&#xf0;" 
d="M409 0v409h1229v-409h-1229zM0 409v1229h409v-1229h-409zM409 2457v410h410v-410h-410zM1638 409v1229h-1229v410h819v819h410v-819h410v-1639h-410zM819 2867v409h409v-409h-409zM409 3276v410h410v-410h-410zM1228 3276v410h410v-410h-410z" />
    <glyph glyph-name="ntilde" unicode="&#xf1;" 
d="M1638 0v2048h410v-2048h-410zM0 0v2457h1638v-409h-1229v-2048h-409zM409 2867v409h410v-409h-410zM1228 2867v409h410v-409h-410zM819 3276v410h409v-410h-409zM1638 3276v410h410v-410h-410z" />
    <glyph glyph-name="ograve" unicode="&#xf2;" 
d="M409 0v409h1229v-409h-1229zM0 409v1639h409v-1639h-409zM1638 409v1639h410v-1639h-410zM409 2048v409h1229v-409h-1229zM819 2867v409h409v-409h-409zM409 3276v410h410v-410h-410z" />
    <glyph glyph-name="oacute" unicode="&#xf3;" 
d="M409 0v409h1229v-409h-1229zM0 409v1639h409v-1639h-409zM1638 409v1639h410v-1639h-410zM409 2048v409h1229v-409h-1229zM819 2867v409h409v-409h-409zM1228 3276v410h410v-410h-410z" />
    <glyph glyph-name="ocircumflex" unicode="&#xf4;" 
d="M409 0v409h1229v-409h-1229zM0 409v1639h409v-1639h-409zM1638 409v1639h410v-1639h-410zM409 2048v409h1229v-409h-1229zM409 2867v409h410v-409h-410zM1228 2867v409h410v-409h-410zM819 3276v410h409v-410h-409z" />
    <glyph glyph-name="otilde" unicode="&#xf5;" 
d="M409 0v409h1229v-409h-1229zM0 409v1639h409v-1639h-409zM1638 409v1639h410v-1639h-410zM409 2048v409h1229v-409h-1229zM409 2867v409h410v-409h-410zM1228 2867v409h410v-409h-410zM819 3276v410h409v-410h-409zM1638 3276v410h410v-410h-410z" />
    <glyph glyph-name="odieresis" unicode="&#xf6;" 
d="M409 0v409h1229v-409h-1229zM0 409v1639h409v-1639h-409zM1638 409v1639h410v-1639h-410zM409 2048v409h1229v-409h-1229zM409 2867v409h410v-409h-410zM1228 2867v409h410v-409h-410z" />
    <glyph glyph-name="divide" unicode="&#xf7;" 
d="M819 819v409h409v-409h-409zM0 1638v410h2048v-410h-2048zM819 2457v410h409v-410h-409z" />
    <glyph glyph-name="oslash" unicode="&#xf8;" horiz-adv-x="3276" 
d="M0 0v409h409v-409h-409zM819 0v409h1229v-409h-1229zM1228 1228v410h410v-410h-410zM409 409v1639h410v-820h409v-409h-409v-410h-410zM2048 409v1229h-410v410h-819v409h1229v-409h409v-1639h-409zM2457 2048v409h410v-409h-410z" />
    <glyph glyph-name="ugrave" unicode="&#xf9;" 
d="M0 409v2048h409v-2048h-409zM409 0v409h1229v2048h410v-2457h-1639zM819 2457v410h409v-410h-409zM409 2867v409h410v-409h-410z" />
    <glyph glyph-name="uacute" unicode="&#xfa;" 
d="M0 409v2048h409v-2048h-409zM409 0v409h1229v2048h410v-2457h-1639zM819 2457v410h409v-410h-409zM1228 2867v409h410v-409h-410z" />
    <glyph glyph-name="ucircumflex" unicode="&#xfb;" 
d="M0 409v2048h409v-2048h-409zM409 0v409h1229v2048h410v-2457h-1639zM409 2867v409h410v-409h-410zM1228 2867v409h410v-409h-410zM819 3276v410h409v-410h-409z" />
    <glyph glyph-name="udieresis" unicode="&#xfc;" 
d="M0 409v2048h409v-2048h-409zM409 0v409h1229v2048h410v-2457h-1639zM409 2867v409h410v-409h-410zM1228 2867v409h410v-409h-410z" />
    <glyph glyph-name="yacute" unicode="&#xfd;" 
d="M0 -409v409h819v-409h-819zM819 0v819h409v-819h-409zM409 819v819h410v-819h-410zM1228 819v819h410v-819h-410zM0 1638v819h409v-819h-409zM1638 1638v819h410v-819h-410zM819 2457v410h409v-410h-409zM1228 2867v409h410v-409h-410z" />
    <glyph glyph-name="thorn" unicode="&#xfe;" 
d="M1638 819v1229h410v-1229h-410zM0 -409v3685h409v-819h1229v-409h-1229v-1229h1229v-410h-1229v-818h-409z" />
    <glyph glyph-name="ydieresis" unicode="&#xff;" 
d="M0 -409v409h819v-409h-819zM819 0v819h409v-819h-409zM409 819v819h410v-819h-410zM1228 819v819h410v-819h-410zM0 1638v819h409v-819h-409zM1638 1638v819h410v-819h-410zM409 2867v409h410v-409h-410zM1228 2867v409h410v-409h-410z" />
    <glyph glyph-name="Amacron" unicode="&#x100;" 
d="M0 0v1638h409v1229h410v-1229h409v1229h410v-1229h410v-1638h-410v1228h-1229v-1228h-409zM819 2867v409h409v-409h-409zM409 3686v410h1229v-410h-1229z" />
    <glyph glyph-name="amacron" unicode="&#x101;" 
d="M0 409v819h409v-819h-409zM409 0v409h1229v819h-1229v410h1229v410h410v-2048h-1639zM0 2048v409h1638v-409h-1638zM409 2867v409h1229v-409h-1229z" />
    <glyph glyph-name="Aogonek" unicode="&#x104;" 
d="M1638 -409v409h410v-409h-410zM1228 0v409h410v-409h-410zM0 409v1639h409v1228h410v-1228h409v1228h410v-1228h410v-1639h-410v1229h-1229v-1229h-409zM819 3276v410h409v-410h-409z" />
    <glyph glyph-name="aogonek" unicode="&#x105;" 
d="M1638 -409v409h410v-409h-410zM0 819v409h409v-409h-409zM1228 0v409h-819v410h1229v409h-1229v410h1229v410h410v-1639h-410v-409h-410zM0 2048v409h1638v-409h-1638z" />
    <glyph glyph-name="Cacute" unicode="&#x106;" 
d="M409 0v409h1639v-409h-1639zM0 409v2458h409v-2458h-409zM409 2867v409h1639v-409h-1639zM819 3686v410h409v-410h-409zM1228 4096v409h410v-409h-410z" />
    <glyph glyph-name="cacute" unicode="&#x107;" 
d="M409 0v409h1639v-409h-1639zM0 409v1639h409v-1639h-409zM409 2048v409h1639v-409h-1639zM819 2867v409h409v-409h-409zM1228 3276v410h410v-410h-410z" />
    <glyph glyph-name="Ccircumflex" unicode="&#x108;" 
d="M409 0v409h1639v-409h-1639zM0 409v2458h409v-2458h-409zM409 2867v409h1639v-409h-1639zM409 3686v410h410v-410h-410zM1228 3686v410h410v-410h-410zM819 4096v409h409v-409h-409z" />
    <glyph glyph-name="ccircumflex" unicode="&#x109;" 
d="M409 0v409h1639v-409h-1639zM0 409v1639h409v-1639h-409zM409 2048v409h1639v-409h-1639zM409 2867v409h410v-409h-410zM1228 2867v409h410v-409h-410zM819 3276v410h409v-410h-409z" />
    <glyph glyph-name="Cdotaccent" unicode="&#x10a;" 
d="M409 0v409h1639v-409h-1639zM0 409v2458h409v-2458h-409zM409 2867v409h1639v-409h-1639zM819 3686v410h409v-410h-409z" />
    <glyph glyph-name="cdotaccent" unicode="&#x10b;" 
d="M409 0v409h1639v-409h-1639zM0 409v1639h409v-1639h-409zM409 2048v409h1639v-409h-1639zM819 2867v409h409v-409h-409z" />
    <glyph glyph-name="Ccaron" unicode="&#x10c;" 
d="M409 0v409h1639v-409h-1639zM0 409v2458h409v-2458h-409zM409 2867v409h1639v-409h-1639zM819 3686v410h409v-410h-409zM409 4096v409h410v-409h-410zM1228 4096v409h410v-409h-410z" />
    <glyph glyph-name="ccaron" unicode="&#x10d;" 
d="M409 0v409h1639v-409h-1639zM0 409v1639h409v-1639h-409zM409 2048v409h1639v-409h-1639zM819 2867v409h409v-409h-409zM409 3276v410h410v-410h-410zM1228 3276v410h410v-410h-410z" />
    <glyph glyph-name="Dcaron" unicode="&#x10e;" 
d="M1638 409v2458h410v-2458h-410zM0 0v3276h1638v-409h-1229v-2458h1229v-409h-1638zM819 3686v410h409v-410h-409zM409 4096v409h410v-409h-410zM1228 4096v409h410v-409h-410z" />
    <glyph glyph-name="dcaron" unicode="&#x10f;" horiz-adv-x="3276" 
d="M0 409v1639h409v-1639h-409zM409 0v409h1229v1639h-1229v409h1229v1229h410v-3686h-1639zM2457 2867v819h410v-819h-410z" />
    <glyph glyph-name="Dcroat" unicode="&#x110;" horiz-adv-x="2867" 
d="M2048 409v2867h409v-2867h-409zM409 0v1638h-409v410h409v1638h1639v-410h-1229v-1228h409v-410h-409v-1229h1229v-409h-1639z" />
    <glyph glyph-name="dcroat" unicode="&#x111;" horiz-adv-x="2867" 
d="M0 409v1639h409v-1639h-409zM409 0v409h1229v1639h-1229v409h1229v410h-819v409h819v410h410v-410h409v-409h-409v-2867h-1639z" />
    <glyph glyph-name="Emacron" unicode="&#x112;" horiz-adv-x="2048" 
d="M0 0v3276h1638v-409h-1229v-819h1229v-410h-1229v-1229h1229v-409h-1638zM409 3686v410h1229v-410h-1229z" />
    <glyph glyph-name="emacron" unicode="&#x113;" 
d="M409 0v409h1639v-409h-1639zM0 409v1639h409v-410h1229v410h410v-820h-1639v-819h-409zM409 2048v409h1229v-409h-1229zM409 2867v409h1229v-409h-1229z" />
    <glyph glyph-name="Edotaccent" unicode="&#x116;" horiz-adv-x="2048" 
d="M0 0v3276h1638v-409h-1229v-819h1229v-410h-1229v-1229h1229v-409h-1638zM819 3686v410h409v-410h-409z" />
    <glyph glyph-name="edotaccent" unicode="&#x117;" 
d="M409 0v409h1639v-409h-1639zM0 409v1639h409v-410h1229v410h410v-820h-1639v-819h-409zM409 2048v409h1229v-409h-1229zM819 2867v409h409v-409h-409z" />
    <glyph glyph-name="Eogonek" unicode="&#x118;" horiz-adv-x="2048" 
d="M1228 -409v409h410v-409h-410zM819 0v409h-819v3277h1638v-410h-1229v-819h1229v-409h-1229v-1229h1229v-410h-410v-409h-409z" />
    <glyph glyph-name="eogonek" unicode="&#x119;" 
d="M1228 -409v409h410v-409h-410zM819 0v409h-410v410h1639v-410h-820v-409h-409zM0 819v1229h409v-410h1229v410h410v-820h-1639v-409h-409zM409 2048v409h1229v-409h-1229z" />
    <glyph glyph-name="Ecaron" unicode="&#x11a;" horiz-adv-x="2048" 
d="M0 0v3276h1638v-409h-1229v-819h1229v-410h-1229v-1229h1229v-409h-1638zM819 3686v410h409v-410h-409zM409 4096v409h410v-409h-410zM1228 4096v409h410v-409h-410z" />
    <glyph glyph-name="ecaron" unicode="&#x11b;" 
d="M409 0v409h1639v-409h-1639zM0 409v1639h409v-410h1229v410h410v-820h-1639v-819h-409zM409 2048v409h1229v-409h-1229zM819 2867v409h409v-409h-409zM409 3276v410h410v-410h-410zM1228 3276v410h410v-410h-410z" />
    <glyph glyph-name="Gcircumflex" unicode="&#x11c;" 
d="M409 0v409h1229v-409h-1229zM1638 409v1229h-819v410h1229v-1639h-410zM0 409v2458h409v-2458h-409zM409 2867v409h1639v-409h-1639zM409 3686v410h410v-410h-410zM1228 3686v410h410v-410h-410zM819 4096v409h409v-409h-409z" />
    <glyph glyph-name="gcircumflex" unicode="&#x11d;" 
d="M0 -409v409h1638v-409h-1638zM0 819v1229h409v-1229h-409zM1638 0v409h-1229v410h1229v1229h-1229v409h1639v-2457h-410zM409 2867v409h410v-409h-410zM1228 2867v409h410v-409h-410zM819 3276v410h409v-410h-409z" />
    <glyph glyph-name="Gdotaccent" unicode="&#x120;" 
d="M409 0v409h1229v-409h-1229zM1638 409v1229h-819v410h1229v-1639h-410zM0 409v2458h409v-2458h-409zM409 2867v409h1639v-409h-1639zM819 3686v410h409v-410h-409z" />
    <glyph glyph-name="gdotaccent" unicode="&#x121;" 
d="M0 -409v409h1638v-409h-1638zM0 819v1229h409v-1229h-409zM1638 0v409h-1229v410h1229v1229h-1229v409h1639v-2457h-410zM819 2867v409h409v-409h-409z" />
    <glyph glyph-name="Hcircumflex" unicode="&#x124;" 
d="M0 0v3276h409v-1228h1229v1228h410v-3276h-410v1638h-1229v-1638h-409zM409 3686v410h410v-410h-410zM1228 3686v410h410v-410h-410zM819 4096v409h409v-409h-409z" />
    <glyph glyph-name="hcircumflex" unicode="&#x125;" 
d="M1638 0v2048h410v-2048h-410zM409 0v3276h410v-819h819v-409h-819v-2048h-410zM0 3686v410h409v-410h-409zM819 3686v410h409v-410h-409zM409 4096v409h410v-409h-410z" />
    <glyph glyph-name="Hbar" unicode="&#x126;" horiz-adv-x="2867" 
d="M1638 2048v409h-819v-409h819zM409 0v2457h-409v410h409v819h410v-819h819v819h410v-819h409v-410h-409v-2457h-410v1638h-819v-1638h-410z" />
    <glyph glyph-name="hbar" unicode="&#x127;" 
d="M1638 0v2048h410v-2048h-410zM409 0v2867h-409v409h409v410h410v-410h819v-409h-819v-410h819v-409h-819v-2048h-410z" />
    <glyph glyph-name="Itilde" unicode="&#x128;" horiz-adv-x="2048" 
d="M409 0v3276h410v-3276h-410zM0 3686v410h409v-410h-409zM819 3686v410h409v-410h-409zM409 4096v409h410v-409h-410zM1228 4096v409h410v-409h-410z" />
    <glyph glyph-name="itilde" unicode="&#x129;" horiz-adv-x="2048" 
d="M409 0v2457h410v-2457h-410zM0 2867v409h409v-409h-409zM819 2867v409h409v-409h-409zM409 3276v410h410v-410h-410zM1228 3276v410h410v-410h-410z" />
    <glyph glyph-name="Imacron" unicode="&#x12a;" horiz-adv-x="1638" 
d="M409 0v3276h410v-3276h-410zM0 3686v410h1228v-410h-1228z" />
    <glyph glyph-name="imacron" unicode="&#x12b;" horiz-adv-x="1638" 
d="M409 0v2457h410v-2457h-410zM0 2867v409h1228v-409h-1228z" />
    <glyph glyph-name="Iogonek" unicode="&#x12e;" horiz-adv-x="1228" 
d="M409 -409v409h410v-409h-410zM0 0v409h409v-409h-409zM409 409v3277h410v-3277h-410z" />
    <glyph glyph-name="iogonek" unicode="&#x12f;" horiz-adv-x="1228" 
d="M409 -409v409h410v-409h-410zM0 0v409h409v-409h-409zM409 409v2048h410v-2048h-410zM409 2867v409h410v-409h-410z" />
    <glyph glyph-name="Idotaccent" unicode="&#x130;" horiz-adv-x="819" 
d="M0 0v3276h409v-3276h-409zM0 3686v410h409v-410h-409z" />
    <glyph glyph-name="dotlessi" unicode="&#x131;" horiz-adv-x="819" 
d="M0 0v2457h409v-2457h-409z" />
    <glyph glyph-name="Jcircumflex" unicode="&#x134;" 
d="M0 0v409h1228v-409h-1228zM1228 409v2867h410v-2867h-410zM819 3686v410h409v-410h-409zM1638 3686v410h410v-410h-410zM1228 4096v409h410v-409h-410z" />
    <glyph glyph-name="jcircumflex" unicode="&#x135;" horiz-adv-x="2048" 
d="M0 -409v409h819v-409h-819zM819 0v2457h409v-2457h-409zM409 2867v409h410v-409h-410zM1228 2867v409h410v-409h-410zM819 3276v410h409v-410h-409z" />
    <glyph glyph-name="kgreenlandic" unicode="&#x138;" horiz-adv-x="2048" 
d="M1228 0v819h410v-819h-410zM819 819v409h409v-409h-409zM819 1638v410h409v-410h-409zM0 0v2457h409v-819h410v-410h-410v-1228h-409zM1228 2048v409h410v-409h-410z" />
    <glyph glyph-name="Lacute" unicode="&#x139;" horiz-adv-x="2048" 
d="M0 0v3276h409v-2867h1229v-409h-1638zM0 3686v410h409v-410h-409zM409 4096v409h410v-409h-410z" />
    <glyph glyph-name="lacute" unicode="&#x13a;" horiz-adv-x="1228" 
d="M409 0v409h410v-409h-410zM0 409v2867h409v-2867h-409zM0 3686v410h409v-410h-409zM409 4096v409h410v-409h-410z" />
    <glyph glyph-name="uni013B" unicode="&#x13b;" horiz-adv-x="2048" 
d="M409 -409v409h410v-409h-410zM819 0v409h-819v3277h409v-2867h1229v-410h-410v-409h-409z" />
    <glyph glyph-name="uni013C" unicode="&#x13c;" horiz-adv-x="1228" 
d="M0 -409v409h409v-409h-409zM409 0v819h410v-819h-410zM0 819v2867h409v-2867h-409z" />
    <glyph glyph-name="Lcaron" unicode="&#x13d;" horiz-adv-x="2048" 
d="M0 0v3686h409v-3277h1229v-409h-1638zM819 2867v819h409v-819h-409z" />
    <glyph glyph-name="lcaron" unicode="&#x13e;" horiz-adv-x="1638" 
d="M409 0v409h410v-409h-410zM0 409v3277h409v-3277h-409zM819 2867v819h409v-819h-409z" />
    <glyph glyph-name="Ldot" unicode="&#x13f;" horiz-adv-x="2048" 
d="M819 1638v410h409v-410h-409zM0 0v3686h409v-3277h1229v-409h-1638z" />
    <glyph glyph-name="ldot" unicode="&#x140;" horiz-adv-x="1638" 
d="M409 0v409h410v-409h-410zM819 1638v410h409v-410h-409zM0 409v3277h409v-3277h-409z" />
    <glyph glyph-name="Lslash" unicode="&#x141;" 
d="M409 0v1638h-409v410h409v1638h410v-1229h409v-409h-409v-1639h1229v-409h-1639z" />
    <glyph glyph-name="lslash" unicode="&#x142;" horiz-adv-x="1638" 
d="M819 0v409h409v-409h-409zM409 409v1229h-409v410h409v1638h410v-1229h409v-409h-409v-1639h-410z" />
    <glyph glyph-name="Nacute" unicode="&#x143;" 
d="M819 1228v820h409v-820h-409zM0 0v3276h409v-409h410v-819h-410v-2048h-409zM1638 0v409h-410v819h410v2048h410v-3276h-410zM819 3686v410h409v-410h-409zM1228 4096v409h410v-409h-410z" />
    <glyph glyph-name="nacute" unicode="&#x144;" 
d="M1638 0v2048h410v-2048h-410zM0 0v2457h1638v-409h-1229v-2048h-409zM819 2867v409h409v-409h-409zM1228 3276v410h410v-410h-410z" />
    <glyph glyph-name="uni0145" unicode="&#x145;" 
d="M409 -409v409h410v-409h-410zM819 0v409h409v-409h-409zM819 1638v819h409v-819h-409zM0 409v3277h409v-410h410v-819h-410v-2048h-409zM1638 409v410h-410v819h410v2048h410v-3277h-410z" />
    <glyph glyph-name="uni0146" unicode="&#x146;" 
d="M409 -409v409h410v-409h-410zM819 0v409h409v-409h-409zM1638 409v1639h410v-1639h-410zM0 409v2048h1638v-409h-1229v-1639h-409z" />
    <glyph glyph-name="Ncaron" unicode="&#x147;" 
d="M819 1228v820h409v-820h-409zM0 0v3276h409v-409h410v-819h-410v-2048h-409zM1638 0v409h-410v819h410v2048h410v-3276h-410zM819 3686v410h409v-410h-409zM409 4096v409h410v-409h-410zM1228 4096v409h410v-409h-410z" />
    <glyph glyph-name="ncaron" unicode="&#x148;" 
d="M1638 0v2048h410v-2048h-410zM0 0v2457h1638v-409h-1229v-2048h-409zM819 2867v409h409v-409h-409zM409 3276v410h410v-410h-410zM1228 3276v410h410v-410h-410z" />
    <glyph glyph-name="Eng" unicode="&#x14a;" 
d="M819 -409v409h819v-409h-819zM819 1638v819h409v-819h-409zM0 0v3686h409v-410h410v-819h-410v-2457h-409zM1638 0v819h-410v819h410v2048h410v-3686h-410z" />
    <glyph glyph-name="eng" unicode="&#x14b;" 
d="M819 -409v409h819v-409h-819zM1638 0v2048h410v-2048h-410zM0 0v2457h1638v-409h-1229v-2048h-409z" />
    <glyph glyph-name="Omacron" unicode="&#x14c;" 
d="M409 0v409h1229v-409h-1229zM0 409v2458h409v-2458h-409zM1638 409v2458h410v-2458h-410zM409 2867v409h1229v-409h-1229zM409 3686v410h1229v-410h-1229z" />
    <glyph glyph-name="omacron" unicode="&#x14d;" 
d="M409 0v409h1229v-409h-1229zM0 409v1639h409v-1639h-409zM1638 409v1639h410v-1639h-410zM409 2048v409h1229v-409h-1229zM409 2867v409h1229v-409h-1229z" />
    <glyph glyph-name="OE" unicode="&#x152;" horiz-adv-x="3276" 
d="M409 0v409h819v-409h-819zM1638 0v409h1229v-409h-1229zM0 409v2867h409v-2867h-409zM1228 409v2867h410v-1228h1229v-410h-1229v-1229h-410zM409 3276v410h819v-410h-819zM1638 3276v410h1229v-410h-1229z" />
    <glyph glyph-name="oe" unicode="&#x153;" horiz-adv-x="3276" 
d="M409 0v409h819v-409h-819zM1638 0v409h1229v-409h-1229zM0 409v1639h409v-1639h-409zM1228 409v1639h410v-410h819v410h410v-820h-1229v-819h-410zM409 2048v409h819v-409h-819zM1638 2048v409h819v-409h-819z" />
    <glyph glyph-name="Racute" unicode="&#x154;" 
d="M1638 0v819h410v-819h-410zM1638 1638v1229h410v-1229h-410zM0 0v3276h1638v-409h-1229v-1229h1229v-819h-410v409h-819v-1228h-409zM819 3686v410h409v-410h-409zM1228 4096v409h410v-409h-410z" />
    <glyph glyph-name="racute" unicode="&#x155;" horiz-adv-x="2048" 
d="M0 0v2457h409v-409h410v-410h-410v-1638h-409zM819 2048v409h819v-409h-819zM409 2867v409h410v-409h-410zM819 3276v410h409v-410h-409z" />
    <glyph glyph-name="uni0156" unicode="&#x156;" 
d="M409 -409v409h410v-409h-410zM819 0v409h409v-409h-409zM1638 409v819h410v-819h-410zM1638 2457v819h410v-819h-410zM0 409v3277h1638v-410h-1229v-819h1229v-1229h-410v820h-819v-1639h-409z" />
    <glyph glyph-name="uni0157" unicode="&#x157;" horiz-adv-x="2048" 
d="M0 -409v409h409v-409h-409zM409 0v409h410v-409h-410zM0 409v2048h409v-409h410v-410h-410v-1229h-409zM819 2048v409h819v-409h-819z" />
    <glyph glyph-name="Rcaron" unicode="&#x158;" 
d="M1638 0v819h410v-819h-410zM1638 1638v1229h410v-1229h-410zM0 0v3276h1638v-409h-1229v-1229h1229v-819h-410v409h-819v-1228h-409zM819 3686v410h409v-410h-409zM409 4096v409h410v-409h-410zM1228 4096v409h410v-409h-410z" />
    <glyph glyph-name="rcaron" unicode="&#x159;" horiz-adv-x="2048" 
d="M0 0v2457h409v-409h410v-410h-410v-1638h-409zM819 2048v409h819v-409h-819zM819 2867v409h409v-409h-409zM409 3276v410h410v-410h-410zM1228 3276v410h410v-410h-410z" />
    <glyph glyph-name="Sacute" unicode="&#x15a;" horiz-adv-x="2048" 
d="M0 0v409h1228v-409h-1228zM1228 409v1229h410v-1229h-410zM409 1638v410h819v-410h-819zM0 2048v819h409v-819h-409zM409 2867v409h1229v-409h-1229zM409 3686v410h410v-410h-410zM819 4096v409h409v-409h-409z" />
    <glyph glyph-name="sacute" unicode="&#x15b;" horiz-adv-x="2048" 
d="M0 0v409h1228v-409h-1228zM1228 409v819h410v-819h-410zM409 1228v410h819v-410h-819zM0 1638v410h409v-410h-409zM409 2048v409h1229v-409h-1229zM409 2867v409h410v-409h-410zM819 3276v410h409v-410h-409z" />
    <glyph glyph-name="Scircumflex" unicode="&#x15c;" horiz-adv-x="2048" 
d="M0 0v409h1228v-409h-1228zM1228 409v1229h410v-1229h-410zM409 1638v410h819v-410h-819zM0 2048v819h409v-819h-409zM409 2867v409h1229v-409h-1229zM409 3686v410h410v-410h-410zM1228 3686v410h410v-410h-410zM819 4096v409h409v-409h-409z" />
    <glyph glyph-name="scircumflex" unicode="&#x15d;" horiz-adv-x="2048" 
d="M0 0v409h1228v-409h-1228zM1228 409v819h410v-819h-410zM409 1228v410h819v-410h-819zM0 1638v410h409v-410h-409zM409 2048v409h1229v-409h-1229zM409 2867v409h410v-409h-410zM1228 2867v409h410v-409h-410zM819 3276v410h409v-410h-409z" />
    <glyph glyph-name="Scedilla" unicode="&#x15e;" horiz-adv-x="2048" 
d="M409 -409v409h410v-409h-410zM819 0v409h-819v410h1228v-819h-409zM1228 819v1229h410v-1229h-410zM409 2048v409h819v-409h-819zM0 2457v819h409v-819h-409zM409 3276v410h1229v-410h-1229z" />
    <glyph glyph-name="scedilla" unicode="&#x15f;" horiz-adv-x="2048" 
d="M409 -409v409h410v-409h-410zM819 0v409h-819v410h1228v-819h-409zM1228 819v409h410v-409h-410zM409 1228v410h819v-410h-819zM0 1638v410h409v-410h-409zM409 2048v409h1229v-409h-1229z" />
    <glyph glyph-name="Scaron" unicode="&#x160;" horiz-adv-x="2048" 
d="M0 0v409h1228v-409h-1228zM1228 409v1229h410v-1229h-410zM409 1638v410h819v-410h-819zM0 2048v819h409v-819h-409zM409 2867v409h1229v-409h-1229zM819 3686v410h409v-410h-409zM409 4096v409h410v-409h-410zM1228 4096v409h410v-409h-410z" />
    <glyph glyph-name="scaron" unicode="&#x161;" horiz-adv-x="2048" 
d="M0 0v409h1228v-409h-1228zM1228 409v819h410v-819h-410zM409 1228v410h819v-410h-819zM0 1638v410h409v-410h-409zM409 2048v409h1229v-409h-1229zM819 2867v409h409v-409h-409zM409 3276v410h410v-410h-410zM1228 3276v410h410v-410h-410z" />
    <glyph glyph-name="uni0162" unicode="&#x162;" 
d="M819 -409v409h409v-409h-409zM1228 0v409h410v-409h-410zM819 409v2867h-819v410h2048v-410h-820v-2867h-409z" />
    <glyph glyph-name="uni0163" unicode="&#x163;" horiz-adv-x="2048" 
d="M409 -409v409h410v-409h-410zM819 0v819h819v-410h-410v-409h-409zM409 819v1229h-409v409h409v819h410v-819h819v-409h-819v-1229h-410z" />
    <glyph glyph-name="Tcaron" unicode="&#x164;" 
d="M819 0v2867h-819v409h2048v-409h-820v-2867h-409zM819 3686v410h409v-410h-409zM409 4096v409h410v-409h-410zM1228 4096v409h410v-409h-410z" />
    <glyph glyph-name="tcaron" unicode="&#x165;" horiz-adv-x="2048" 
d="M819 0v409h819v-409h-819zM409 409v1639h-409v409h409v819h410v-819h819v-409h-819v-1639h-410zM1228 2867v819h410v-819h-410z" />
    <glyph glyph-name="Tbar" unicode="&#x166;" 
d="M819 0v1638h-819v410h819v1228h-819v410h2048v-410h-820v-1228h820v-410h-820v-1638h-409z" />
    <glyph glyph-name="tbar" unicode="&#x167;" horiz-adv-x="2048" 
d="M819 0v409h819v-409h-819zM409 409v819h-409v410h409v410h-409v409h409v819h410v-819h819v-409h-819v-410h819v-410h-819v-819h-410z" />
    <glyph glyph-name="Utilde" unicode="&#x168;" 
d="M409 0v409h1229v-409h-1229zM0 409v2867h409v-2867h-409zM1638 409v2867h410v-2867h-410zM409 3686v410h410v-410h-410zM1228 3686v410h410v-410h-410zM819 4096v409h409v-409h-409zM1638 4096v409h410v-409h-410z" />
    <glyph glyph-name="utilde" unicode="&#x169;" 
d="M0 409v2048h409v-2048h-409zM409 0v409h1229v2048h410v-2457h-1639zM409 2867v409h410v-409h-410zM1228 2867v409h410v-409h-410zM819 3276v410h409v-410h-409zM1638 3276v410h410v-410h-410z" />
    <glyph glyph-name="Umacron" unicode="&#x16a;" 
d="M409 0v409h1229v-409h-1229zM0 409v2867h409v-2867h-409zM1638 409v2867h410v-2867h-410zM409 3686v410h1229v-410h-1229z" />
    <glyph glyph-name="umacron" unicode="&#x16b;" 
d="M0 409v2048h409v-2048h-409zM409 0v409h1229v2048h410v-2457h-1639zM409 2867v409h1229v-409h-1229z" />
    <glyph glyph-name="Uring" unicode="&#x16e;" 
d="M409 0v409h1229v-409h-1229zM0 409v2867h409v-2867h-409zM1638 409v2867h410v-2867h-410zM819 3276v410h409v-410h-409zM409 3686v410h410v-410h-410zM1228 3686v410h410v-410h-410zM819 4096v409h409v-409h-409z" />
    <glyph glyph-name="uring" unicode="&#x16f;" 
d="M0 409v2048h409v-2048h-409zM409 0v409h1229v2048h410v-2457h-1639zM819 2867v409h409v-409h-409zM409 3276v410h410v-410h-410zM1228 3276v410h410v-410h-410zM819 3686v410h409v-410h-409z" />
    <glyph glyph-name="Uogonek" unicode="&#x172;" 
d="M1638 -409v409h410v-409h-410zM1228 0v409h-819v410h1229v-819h-410zM0 819v2867h409v-2867h-409zM1638 819v2867h410v-2867h-410z" />
    <glyph glyph-name="uogonek" unicode="&#x173;" 
d="M1638 -409v409h410v-409h-410zM0 819v1638h409v-1638h-409zM1228 0v409h-819v410h1229v1638h410v-2048h-410v-409h-410z" />
    <glyph glyph-name="Wcircumflex" unicode="&#x174;" 
d="M409 0v1228h410v-1228h-410zM1228 0v1228h410v-1228h-410zM819 1228v1639h409v-1639h-409zM0 1228v2048h409v-2048h-409zM1638 1228v2048h410v-2048h-410zM409 3686v410h410v-410h-410zM1228 3686v410h410v-410h-410zM819 4096v409h409v-409h-409z" />
    <glyph glyph-name="wcircumflex" unicode="&#x175;" 
d="M409 0v819h410v-819h-410zM1228 0v819h410v-819h-410zM819 819v1229h409v-1229h-409zM0 819v1638h409v-1638h-409zM1638 819v1638h410v-1638h-410zM409 2867v409h410v-409h-410zM1228 2867v409h410v-409h-410zM819 3276v410h409v-410h-409z" />
    <glyph glyph-name="Ycircumflex" unicode="&#x176;" 
d="M819 0v1638h409v-1638h-409zM409 1638v819h410v-819h-410zM1228 1638v819h410v-819h-410zM0 2457v819h409v-819h-409zM1638 2457v819h410v-819h-410zM409 3686v410h410v-410h-410zM1228 3686v410h410v-410h-410zM819 4096v409h409v-409h-409z" />
    <glyph glyph-name="ycircumflex" unicode="&#x177;" 
d="M0 -409v409h819v-409h-819zM819 0v819h409v-819h-409zM409 819v819h410v-819h-410zM1228 819v819h410v-819h-410zM0 1638v819h409v-819h-409zM1638 1638v819h410v-819h-410zM409 2867v409h410v-409h-410zM1228 2867v409h410v-409h-410zM819 3276v410h409v-410h-409z" />
    <glyph glyph-name="Ydieresis" unicode="&#x178;" 
d="M819 0v2048h409v-2048h-409zM409 2048v819h410v-819h-410zM1228 2048v819h410v-819h-410zM0 2867v819h409v-819h-409zM1638 2867v819h410v-819h-410zM409 4096v409h410v-409h-410zM1228 4096v409h410v-409h-410z" />
    <glyph glyph-name="Zacute" unicode="&#x179;" horiz-adv-x="2048" 
d="M0 0v819h409v-410h1229v-409h-1638zM409 819v819h410v-819h-410zM819 1638v819h409v-819h-409zM1228 2457v410h-1228v409h1638v-819h-410zM409 3686v410h410v-410h-410zM819 4096v409h409v-409h-409z" />
    <glyph glyph-name="zacute" unicode="&#x17a;" 
d="M0 0v819h409v-410h1639v-409h-2048zM409 819v409h410v-409h-410zM819 1228v410h409v-410h-409zM1228 1638v410h-1228v409h2048v-409h-410v-410h-410zM819 2867v409h409v-409h-409zM1228 3276v410h410v-410h-410z" />
    <glyph glyph-name="Zdotaccent" unicode="&#x17b;" horiz-adv-x="2048" 
d="M0 0v819h409v-410h1229v-409h-1638zM409 819v819h410v-819h-410zM819 1638v819h409v-819h-409zM1228 2457v410h-1228v409h1638v-819h-410zM819 3686v410h409v-410h-409z" />
    <glyph glyph-name="zdotaccent" unicode="&#x17c;" 
d="M0 0v819h409v-410h1639v-409h-2048zM409 819v409h410v-409h-410zM819 1228v410h409v-410h-409zM1228 1638v410h-1228v409h2048v-409h-410v-410h-410zM819 2867v409h409v-409h-409z" />
    <glyph glyph-name="Zcaron" unicode="&#x17d;" horiz-adv-x="2048" 
d="M0 0v819h409v-410h1229v-409h-1638zM409 819v819h410v-819h-410zM819 1638v819h409v-819h-409zM1228 2457v410h-1228v409h1638v-819h-410zM819 3686v410h409v-410h-409zM409 4096v409h410v-409h-410zM1228 4096v409h410v-409h-410z" />
    <glyph glyph-name="zcaron" unicode="&#x17e;" 
d="M0 0v819h409v-410h1639v-409h-2048zM409 819v409h410v-409h-410zM819 1228v410h409v-410h-409zM1228 1638v410h-1228v409h2048v-409h-410v-410h-410zM819 2867v409h409v-409h-409zM409 3276v410h410v-410h-410zM1228 3276v410h410v-410h-410z" />
    <glyph glyph-name="longs" unicode="&#x17f;" horiz-adv-x="2048" 
d="M409 0v2048h-409v409h409v819h410v-3276h-410zM819 3276v410h819v-410h-819z" />
    <glyph glyph-name="uni01CD" unicode="&#x1cd;" 
d="M0 0v1638h409v1229h410v-1229h409v1229h410v-1229h410v-1638h-410v1228h-1229v-1228h-409zM819 2867v409h409v-409h-409zM819 3686v410h409v-410h-409zM409 4096v409h410v-409h-410zM1228 4096v409h410v-409h-410z" />
    <glyph glyph-name="uni01CE" unicode="&#x1ce;" 
d="M0 409v819h409v-819h-409zM409 0v409h1229v819h-1229v410h1229v410h410v-2048h-1639zM0 2048v409h1638v-409h-1638zM819 2867v409h409v-409h-409zM409 3276v410h410v-410h-410zM1228 3276v410h410v-410h-410z" />
    <glyph glyph-name="uni01CF" unicode="&#x1cf;" horiz-adv-x="1638" 
d="M409 0v3276h410v-3276h-410zM409 3686v410h410v-410h-410zM0 4096v409h409v-409h-409zM819 4096v409h409v-409h-409z" />
    <glyph glyph-name="uni01D0" unicode="&#x1d0;" horiz-adv-x="1638" 
d="M409 0v2457h410v-2457h-410zM409 2867v409h410v-409h-410zM0 3276v410h409v-410h-409zM819 3276v410h409v-410h-409z" />
    <glyph glyph-name="uni01D1" unicode="&#x1d1;" 
d="M409 0v409h1229v-409h-1229zM0 409v2458h409v-2458h-409zM1638 409v2458h410v-2458h-410zM409 2867v409h1229v-409h-1229zM819 3686v410h409v-410h-409zM409 4096v409h410v-409h-410zM1228 4096v409h410v-409h-410z" />
    <glyph glyph-name="uni01D2" unicode="&#x1d2;" 
d="M409 0v409h1229v-409h-1229zM0 409v1639h409v-1639h-409zM1638 409v1639h410v-1639h-410zM409 2048v409h1229v-409h-1229zM819 2867v409h409v-409h-409zM409 3276v410h410v-410h-410zM1228 3276v410h410v-410h-410z" />
    <glyph glyph-name="uni01D3" unicode="&#x1d3;" 
d="M409 0v409h1229v-409h-1229zM0 409v2867h409v-2867h-409zM1638 409v2867h410v-2867h-410zM819 3686v410h409v-410h-409zM409 4096v409h410v-409h-410zM1228 4096v409h410v-409h-410z" />
    <glyph glyph-name="uni01D4" unicode="&#x1d4;" 
d="M0 409v2048h409v-2048h-409zM409 0v409h1229v2048h410v-2457h-1639zM819 2867v409h409v-409h-409zM409 3276v410h410v-410h-410zM1228 3276v410h410v-410h-410z" />
    <glyph glyph-name="uni01DD" unicode="&#x1dd;" 
d="M409 0v409h1229v-409h-1229zM0 409v819h1638v820h410v-1639h-410v410h-1229v-410h-409zM0 2048v409h1638v-409h-1638z" />
    <glyph glyph-name="uni01E2" unicode="&#x1e2;" horiz-adv-x="3276" 
d="M0 0v1638h409v1229h410v-1229h409v1229h-409v409h2048v-409h-1229v-819h819v-410h-819v-1229h1229v-409h-1639v1228h-819v-1228h-409zM1228 3686v410h1229v-410h-1229z" />
    <glyph glyph-name="uni01E3" unicode="&#x1e3;" horiz-adv-x="3276" 
d="M0 409v819h409v-819h-409zM409 0v409h819v819h-819v410h819v410h410v-410h819v410h410v-820h-1229v-819h1229v-409h-2458zM0 2048v409h1228v-409h-1228zM1638 2048v409h819v-409h-819zM819 2867v409h1229v-409h-1229z" />
    <glyph glyph-name="uni01E4" unicode="&#x1e4;" horiz-adv-x="2867" 
d="M409 0v409h1229v-409h-1229zM1638 409v410h-819v409h819v410h-819v410h1229v-820h409v-409h-409v-410h-410zM0 409v2867h409v-2867h-409zM409 3276v410h1639v-410h-1639z" />
    <glyph glyph-name="uni01E5" unicode="&#x1e5;" horiz-adv-x="2867" 
d="M0 -409v409h1638v-409h-1638zM0 819v1229h409v-1229h-409zM1638 0v409h-1229v410h1229v409h-819v410h819v410h-1229v409h1639v-819h409v-410h-409v-1228h-410z" />
    <glyph glyph-name="Gcaron" unicode="&#x1e6;" 
d="M409 0v409h1229v-409h-1229zM1638 409v1229h-819v410h1229v-1639h-410zM0 409v2458h409v-2458h-409zM409 2867v409h1639v-409h-1639zM819 3686v410h409v-410h-409zM409 4096v409h410v-409h-410zM1228 4096v409h410v-409h-410z" />
    <glyph glyph-name="gcaron" unicode="&#x1e7;" 
d="M0 -409v409h1638v-409h-1638zM0 819v1229h409v-1229h-409zM1638 0v409h-1229v410h1229v1229h-1229v409h1639v-2457h-410zM819 2867v409h409v-409h-409zM409 3276v410h410v-410h-410zM1228 3276v410h410v-410h-410z" />
    <glyph glyph-name="uni01E8" unicode="&#x1e8;" 
d="M1638 0v409h410v-409h-410zM1228 409v819h410v-819h-410zM819 1228v410h409v-410h-409zM819 2048v409h409v-409h-409zM1228 2457v410h410v-410h-410zM0 0v3276h409v-1228h410v-410h-410v-1638h-409zM1638 2867v409h410v-409h-410zM819 3686v410h409v-410h-409zM409 4096
v409h410v-409h-410zM1228 4096v409h410v-409h-410z" />
    <glyph glyph-name="uni01E9" unicode="&#x1e9;" horiz-adv-x="2048" 
d="M1228 0v819h410v-819h-410zM819 819v409h409v-409h-409zM819 1638v410h409v-410h-409zM1228 2048v409h410v-409h-410zM0 0v3276h409v-1638h410v-410h-410v-1228h-409zM819 3686v410h409v-410h-409zM409 4096v409h410v-409h-410zM1228 4096v409h410v-409h-410z" />
    <glyph glyph-name="uni01EA" unicode="&#x1ea;" 
d="M1228 -409v409h410v-409h-410zM819 0v409h-410v410h1229v-410h-410v-409h-409zM0 819v2457h409v-2457h-409zM1638 819v2457h410v-2457h-410zM409 3276v410h1229v-410h-1229z" />
    <glyph glyph-name="uni01EB" unicode="&#x1eb;" 
d="M1228 -409v409h410v-409h-410zM819 0v409h-410v410h1229v-410h-410v-409h-409zM0 819v1229h409v-1229h-409zM1638 819v1229h410v-1229h-410zM409 2048v409h1229v-409h-1229z" />
    <glyph glyph-name="uni01F0" unicode="&#x1f0;" horiz-adv-x="2048" 
d="M0 -409v409h819v-409h-819zM819 0v2457h409v-2457h-409zM819 2867v409h409v-409h-409zM409 3276v410h410v-410h-410zM1228 3276v410h410v-410h-410z" />
    <glyph glyph-name="uni01F4" unicode="&#x1f4;" 
d="M409 0v409h1229v-409h-1229zM1638 409v1229h-819v410h1229v-1639h-410zM0 409v2458h409v-2458h-409zM409 2867v409h1639v-409h-1639zM819 3686v410h409v-410h-409zM1228 4096v409h410v-409h-410z" />
    <glyph glyph-name="uni01F5" unicode="&#x1f5;" 
d="M0 -409v409h1638v-409h-1638zM0 819v1229h409v-1229h-409zM1638 0v409h-1229v410h1229v1229h-1229v409h1639v-2457h-410zM819 2867v409h409v-409h-409zM1228 3276v410h410v-410h-410z" />
    <glyph glyph-name="uni01F8" unicode="&#x1f8;" 
d="M819 1228v820h409v-820h-409zM0 0v3276h409v-409h410v-819h-410v-2048h-409zM1638 0v409h-410v819h410v2048h410v-3276h-410zM819 3686v410h409v-410h-409zM409 4096v409h410v-409h-410z" />
    <glyph glyph-name="uni01F9" unicode="&#x1f9;" 
d="M1638 0v2048h410v-2048h-410zM0 0v2457h1638v-409h-1229v-2048h-409zM819 2867v409h409v-409h-409zM409 3276v410h410v-410h-410z" />
    <glyph glyph-name="AEacute" unicode="&#x1fc;" horiz-adv-x="3276" 
d="M0 0v1638h409v1229h410v-1229h409v1229h-409v409h2048v-409h-1229v-819h819v-410h-819v-1229h1229v-409h-1639v1228h-819v-1228h-409zM1228 3686v410h410v-410h-410zM1638 4096v409h410v-409h-410z" />
    <glyph glyph-name="aeacute" unicode="&#x1fd;" horiz-adv-x="3276" 
d="M0 409v819h409v-819h-409zM409 0v409h819v819h-819v410h819v410h410v-410h819v410h410v-820h-1229v-819h1229v-409h-2458zM0 2048v409h1228v-409h-1228zM1638 2048v409h819v-409h-819zM1228 2867v409h410v-409h-410zM1638 3276v410h410v-410h-410z" />
    <glyph glyph-name="uni021E" unicode="&#x21e;" 
d="M0 0v3276h409v-1228h1229v1228h410v-3276h-410v1638h-1229v-1638h-409zM819 3686v410h409v-410h-409zM409 4096v409h410v-409h-410zM1228 4096v409h410v-409h-410z" />
    <glyph glyph-name="uni021F" unicode="&#x21f;" horiz-adv-x="2867" 
d="M2048 0v2048h409v-2048h-409zM409 0v3276h410v-819h1229v-409h-1229v-2048h-410zM409 3686v410h410v-410h-410zM0 4096v409h409v-409h-409zM819 4096v409h409v-409h-409z" />
    <glyph glyph-name="uni0226" unicode="&#x226;" 
d="M0 0v1638h409v1229h410v-1229h409v1229h410v-1229h410v-1638h-410v1228h-1229v-1228h-409zM819 2867v409h409v-409h-409zM819 3686v410h409v-410h-409z" />
    <glyph glyph-name="uni0227" unicode="&#x227;" 
d="M0 409v819h409v-819h-409zM409 0v409h1229v819h-1229v410h1229v410h410v-2048h-1639zM0 2048v409h1638v-409h-1638zM819 2867v409h409v-409h-409z" />
    <glyph glyph-name="uni0228" unicode="&#x228;" horiz-adv-x="2048" 
d="M409 -409v409h410v-409h-410zM819 0v409h-819v3277h1638v-410h-1229v-819h1229v-409h-1229v-1229h1229v-410h-410v-409h-409z" />
    <glyph glyph-name="uni0229" unicode="&#x229;" 
d="M819 -409v409h409v-409h-409zM1228 0v409h-819v410h1639v-410h-410v-409h-410zM0 819v1229h409v-410h1229v410h410v-820h-1639v-409h-409zM409 2048v409h1229v-409h-1229z" />
    <glyph glyph-name="uni022E" unicode="&#x22e;" 
d="M409 0v409h1229v-409h-1229zM0 409v2458h409v-2458h-409zM1638 409v2458h410v-2458h-410zM409 2867v409h1229v-409h-1229zM819 3686v410h409v-410h-409z" />
    <glyph glyph-name="uni022F" unicode="&#x22f;" 
d="M409 0v409h1229v-409h-1229zM0 409v1639h409v-1639h-409zM1638 409v1639h410v-1639h-410zM409 2048v409h1229v-409h-1229zM819 2867v409h409v-409h-409z" />
    <glyph glyph-name="uni0232" unicode="&#x232;" 
d="M819 0v2048h409v-2048h-409zM409 2048v819h410v-819h-410zM1228 2048v819h410v-819h-410zM0 2867v819h409v-819h-409zM1638 2867v819h410v-819h-410zM409 4096v409h1229v-409h-1229z" />
    <glyph glyph-name="uni0233" unicode="&#x233;" 
d="M0 -409v409h819v-409h-819zM819 0v819h409v-819h-409zM409 819v819h410v-819h-410zM1228 819v819h410v-819h-410zM0 1638v819h409v-819h-409zM1638 1638v819h410v-819h-410zM409 2867v409h1229v-409h-1229z" />
    <glyph glyph-name="uni0237" unicode="&#x237;" horiz-adv-x="1638" 
d="M0 -409v409h819v-409h-819zM819 0v2457h409v-2457h-409z" />
    <glyph glyph-name="uni023D" unicode="&#x23d;" 
d="M409 0v2048h-409v409h409v1229h410v-1229h819v-409h-819v-1639h1229v-409h-1639z" />
    <glyph glyph-name="uni0241" unicode="&#x241;" horiz-adv-x="2048" 
d="M409 0v2048h819v-410h-409v-1638h-410zM1228 2048v1228h410v-1228h-410zM0 3276v410h1228v-410h-1228z" />
    <glyph glyph-name="uni0242" unicode="&#x242;" horiz-adv-x="2048" 
d="M409 0v1228h819v-409h-409v-819h-410zM1228 1228v820h410v-820h-410zM0 2048v409h1228v-409h-1228z" />
    <glyph glyph-name="uni0244" unicode="&#x244;" horiz-adv-x="3276" 
d="M819 0v409h1229v-409h-1229zM409 409v1639h-409v409h409v1229h410v-1229h1229v1229h409v-1229h410v-409h-410v-1639h-409v1639h-1229v-1639h-410z" />
    <glyph glyph-name="uni0245" unicode="&#x245;" 
d="M0 0v1228h409v-1228h-409zM1638 0v1228h410v-1228h-410zM409 1228v1639h410v-1639h-410zM1228 1228v1639h410v-1639h-410zM819 2867v819h409v-819h-409z" />
    <glyph glyph-name="uni0248" unicode="&#x248;" 
d="M0 0v409h1228v-409h-1228zM1228 409v1639h-819v409h819v1229h410v-1229h410v-409h-410v-1639h-410z" />
    <glyph glyph-name="uni0249" unicode="&#x249;" horiz-adv-x="2048" 
d="M0 -409v409h819v-409h-819zM819 0v1228h-819v410h819v819h409v-819h410v-410h-410v-1228h-409zM819 2867v409h409v-409h-409z" />
    <glyph glyph-name="uni024C" unicode="&#x24c;" horiz-adv-x="2867" 
d="M2048 0v819h409v-819h-409zM2048 2048v1228h409v-1228h-409zM409 0v1638h-409v410h409v1638h1639v-410h-1229v-1228h1229v-1229h-410v819h-819v-1638h-410z" />
    <glyph glyph-name="uni024D" unicode="&#x24d;" 
d="M409 0v819h-409v409h409v1229h410v-409h409v-410h-409v-410h819v-409h-819v-819h-410zM1228 2048v409h820v-409h-820z" />
    <glyph glyph-name="tilde" unicode="&#x2dc;" 
d="M1228 2457v410h410v-410h-410zM0 2867v409h409v-409h-409zM819 2867v409h409v-409h-409zM1638 2867v409h410v-409h-410zM409 3276v410h410v-410h-410z" />
    <glyph glyph-name="Omicron" unicode="&#x39f;" horiz-adv-x="2867" 
d="M409 0v409h1639v-409h-1639zM0 409v2048h409v-2048h-409zM2048 409v2048h409v-2048h-409zM409 2457v410h1639v-410h-1639z" />
    <glyph glyph-name="Pi" unicode="&#x3a0;" horiz-adv-x="2867" 
d="M409 0v2457h-409v410h2457v-410h-409v-2457h-410v2457h-819v-2457h-410z" />
    <glyph glyph-name="uni03BC" unicode="&#x3bc;" 
d="M0 -409v2866h409v-1638h1229v-410h-1229v-818h-409zM1638 819v1638h410v-1638h-410z" />
    <glyph glyph-name="pi" unicode="&#x3c0;" 
d="M409 0v2048h-409v409h2048v-409h-410v-2048h-410v2048h-409v-2048h-410z" />
    <glyph glyph-name="uni0418" unicode="&#x418;" 
d="M819 1638v819h409v-819h-409zM0 0v3686h409v-2048h410v-819h-410v-819h-409zM1638 0v2457h-410v819h410v410h410v-3686h-410z" />
    <glyph glyph-name="uni042F" unicode="&#x42f;" 
d="M0 0v819h409v-819h-409zM0 2048v1228h409v-1228h-409zM1638 0v1638h-819v-819h-410v1229h1229v1228h-1229v410h1639v-3686h-410z" />
    <glyph glyph-name="uni1E02" unicode="&#x1e02;" 
d="M1638 409v1229h410v-1229h-410zM1638 2048v819h410v-819h-410zM0 0v3276h1638v-409h-1229v-819h1229v-410h-1229v-1229h1229v-409h-1638zM819 3686v410h409v-410h-409z" />
    <glyph glyph-name="uni1E03" unicode="&#x1e03;" 
d="M1638 409v1639h410v-1639h-410zM0 0v3686h409v-1229h1229v-409h-1229v-1639h1229v-409h-1638zM1228 3276v410h410v-410h-410z" />
    <glyph glyph-name="uni1E0A" unicode="&#x1e0a;" 
d="M1638 409v2458h410v-2458h-410zM0 0v3276h1638v-409h-1229v-2458h1229v-409h-1638zM819 3686v410h409v-410h-409z" />
    <glyph glyph-name="uni1E0B" unicode="&#x1e0b;" 
d="M0 409v1639h409v-1639h-409zM409 3276v410h410v-410h-410zM409 0v409h1229v1639h-1229v409h1229v1229h410v-3686h-1639z" />
    <glyph glyph-name="uni1E1E" unicode="&#x1e1e;" horiz-adv-x="2048" 
d="M0 0v3276h1638v-409h-1229v-819h1229v-410h-1229v-1638h-409zM819 3686v410h409v-410h-409z" />
    <glyph glyph-name="uni1E1F" unicode="&#x1e1f;" horiz-adv-x="2048" 
d="M409 0v1638h-409v410h409v819h410v-819h819v-410h-819v-1638h-410zM819 2867v409h819v-409h-819zM819 3686v410h409v-410h-409z" />
    <glyph glyph-name="uni1E20" unicode="&#x1e20;" 
d="M409 0v409h1229v-409h-1229zM1638 409v1229h-819v410h1229v-1639h-410zM0 409v2458h409v-2458h-409zM409 2867v409h1639v-409h-1639zM409 3686v410h1229v-410h-1229z" />
    <glyph glyph-name="uni1E21" unicode="&#x1e21;" 
d="M0 -409v409h1638v-409h-1638zM0 819v1229h409v-1229h-409zM1638 0v409h-1229v410h1229v1229h-1229v409h1639v-2457h-410zM409 2867v409h1229v-409h-1229z" />
    <glyph glyph-name="uni1E22" unicode="&#x1e22;" 
d="M0 0v3276h409v-1228h1229v1228h410v-3276h-410v1638h-1229v-1638h-409zM819 3686v410h409v-410h-409z" />
    <glyph glyph-name="uni1E23" unicode="&#x1e23;" 
d="M1638 0v2048h410v-2048h-410zM0 0v3686h409v-1229h1229v-409h-1229v-2048h-409zM1228 3276v410h410v-410h-410z" />
    <glyph glyph-name="uni1E26" unicode="&#x1e26;" 
d="M0 0v3276h409v-1228h1229v1228h410v-3276h-410v1638h-1229v-1638h-409zM409 3686v410h410v-410h-410zM1228 3686v410h410v-410h-410z" />
    <glyph glyph-name="uni1E27" unicode="&#x1e27;" 
d="M1638 0v2048h410v-2048h-410zM0 0v3686h409v-1229h1229v-409h-1229v-2048h-409zM409 4096v409h410v-409h-410zM1228 4096v409h410v-409h-410z" />
    <glyph glyph-name="uni1E28" unicode="&#x1e28;" 
d="M0 -409v409h409v-409h-409zM409 0v409h410v-409h-410zM0 409v3277h409v-1229h1229v1229h410v-3277h-410v1639h-1229v-1639h-409z" />
    <glyph glyph-name="uni1E29" unicode="&#x1e29;" 
d="M0 -409v409h409v-409h-409zM409 0v409h410v-409h-410zM1638 409v1639h410v-1639h-410zM0 409v3277h409v-1229h1229v-409h-1229v-1639h-409z" />
    <glyph glyph-name="uni1E30" unicode="&#x1e30;" 
d="M1638 0v409h410v-409h-410zM1228 409v819h410v-819h-410zM819 1228v410h409v-410h-409zM819 2048v409h409v-409h-409zM1228 2457v410h410v-410h-410zM0 0v3276h409v-1228h410v-410h-410v-1638h-409zM1638 2867v409h410v-409h-410zM819 3686v410h409v-410h-409zM1228 4096
v409h410v-409h-410z" />
    <glyph glyph-name="uni1E31" unicode="&#x1e31;" horiz-adv-x="2048" 
d="M1228 0v819h410v-819h-410zM819 819v409h409v-409h-409zM819 1638v410h409v-410h-409zM1228 2048v409h410v-409h-410zM0 0v3276h409v-1638h410v-410h-410v-1228h-409zM409 3686v410h410v-410h-410zM819 4096v409h409v-409h-409z" />
    <glyph glyph-name="uni1E3E" unicode="&#x1e3e;" 
d="M819 819v819h409v-819h-409zM0 0v3276h409v-819h410v-819h-410v-1638h-409zM1638 0v1638h-410v819h410v819h410v-3276h-410zM819 3686v410h409v-410h-409zM1228 4096v409h410v-409h-410z" />
    <glyph glyph-name="uni1E3F" unicode="&#x1e3f;" horiz-adv-x="3276" 
d="M2457 0v2048h410v-2048h-410zM0 0v2457h2457v-409h-819v-2048h-410v2048h-819v-2048h-409zM1228 2867v409h410v-409h-410zM1638 3276v410h410v-410h-410z" />
    <glyph glyph-name="uni1E40" unicode="&#x1e40;" 
d="M819 819v819h409v-819h-409zM0 0v3276h409v-819h410v-819h-410v-1638h-409zM1638 0v1638h-410v819h410v819h410v-3276h-410zM819 3686v410h409v-410h-409z" />
    <glyph glyph-name="uni1E41" unicode="&#x1e41;" horiz-adv-x="3276" 
d="M2457 0v2048h410v-2048h-410zM0 0v2457h2457v-409h-819v-2048h-410v2048h-819v-2048h-409zM1228 2867v409h410v-409h-410z" />
    <glyph glyph-name="uni1E44" unicode="&#x1e44;" 
d="M819 1228v820h409v-820h-409zM0 0v3276h409v-409h410v-819h-410v-2048h-409zM1638 0v409h-410v819h410v2048h410v-3276h-410zM819 3686v410h409v-410h-409z" />
    <glyph glyph-name="uni1E45" unicode="&#x1e45;" 
d="M1638 0v2048h410v-2048h-410zM0 0v2457h1638v-409h-1229v-2048h-409zM819 2867v409h409v-409h-409z" />
    <glyph glyph-name="uni1E54" unicode="&#x1e54;" 
d="M1638 1638v1229h410v-1229h-410zM0 0v3276h1638v-409h-1229v-1229h1229v-410h-1229v-1228h-409zM409 3686v410h410v-410h-410zM819 4096v409h409v-409h-409z" />
    <glyph glyph-name="uni1E55" unicode="&#x1e55;" 
d="M1638 819v1229h410v-1229h-410zM0 -409v2866h1638v-409h-1229v-1229h1229v-410h-1229v-818h-409zM409 2867v409h410v-409h-410zM819 3276v410h409v-410h-409z" />
    <glyph glyph-name="uni1E56" unicode="&#x1e56;" 
d="M1638 1638v1229h410v-1229h-410zM0 0v3276h1638v-409h-1229v-1229h1229v-410h-1229v-1228h-409zM819 3686v410h409v-410h-409z" />
    <glyph glyph-name="uni1E57" unicode="&#x1e57;" 
d="M1638 819v1229h410v-1229h-410zM0 -409v2866h1638v-409h-1229v-1229h1229v-410h-1229v-818h-409zM819 2867v409h409v-409h-409z" />
    <glyph glyph-name="uni1E58" unicode="&#x1e58;" 
d="M1638 0v819h410v-819h-410zM1638 1638v1229h410v-1229h-410zM0 0v3276h1638v-409h-1229v-1229h1229v-819h-410v409h-819v-1228h-409zM819 3686v410h409v-410h-409z" />
    <glyph glyph-name="uni1E59" unicode="&#x1e59;" horiz-adv-x="2048" 
d="M0 0v2457h409v-409h410v-410h-410v-1638h-409zM819 2048v409h819v-409h-819zM819 2867v409h409v-409h-409z" />
    <glyph glyph-name="uni1E60" unicode="&#x1e60;" horiz-adv-x="2048" 
d="M0 0v409h1228v-409h-1228zM1228 409v1229h410v-1229h-410zM409 1638v410h819v-410h-819zM0 2048v819h409v-819h-409zM409 2867v409h1229v-409h-1229zM819 3686v410h409v-410h-409z" />
    <glyph glyph-name="uni1E61" unicode="&#x1e61;" horiz-adv-x="2048" 
d="M0 0v409h1228v-409h-1228zM1228 409v819h410v-819h-410zM409 1228v410h819v-410h-819zM0 1638v410h409v-410h-409zM409 2048v409h1229v-409h-1229zM819 2867v409h409v-409h-409z" />
    <glyph glyph-name="uni1E6A" unicode="&#x1e6a;" 
d="M819 0v2867h-819v409h2048v-409h-820v-2867h-409zM819 3686v410h409v-410h-409z" />
    <glyph glyph-name="uni1E6B" unicode="&#x1e6b;" horiz-adv-x="2048" 
d="M819 0v409h819v-409h-819zM409 409v1639h-409v409h409v819h410v-819h819v-409h-819v-1639h-410zM409 3686v410h410v-410h-410z" />
    <glyph glyph-name="uni1E7C" unicode="&#x1e7c;" 
d="M819 0v819h409v-819h-409zM409 819v1229h410v-1229h-410zM1228 819v1229h410v-1229h-410zM0 2048v1228h409v-1228h-409zM1638 2048v1228h410v-1228h-410zM409 3686v410h410v-410h-410zM1228 3686v410h410v-410h-410zM819 4096v409h409v-409h-409zM1638 4096v409h410v-409
h-410z" />
    <glyph glyph-name="uni1E7D" unicode="&#x1e7d;" 
d="M819 0v819h409v-819h-409zM409 819v819h410v-819h-410zM1228 819v819h410v-819h-410zM0 1638v819h409v-819h-409zM1638 1638v819h410v-819h-410zM409 2867v409h410v-409h-410zM1228 2867v409h410v-409h-410zM819 3276v410h409v-410h-409zM1638 3276v410h410v-410h-410z
" />
    <glyph glyph-name="Wgrave" unicode="&#x1e80;" 
d="M409 0v1228h410v-1228h-410zM1228 0v1228h410v-1228h-410zM819 1228v1639h409v-1639h-409zM0 1228v2048h409v-2048h-409zM1638 1228v2048h410v-2048h-410zM819 3686v410h409v-410h-409zM409 4096v409h410v-409h-410z" />
    <glyph glyph-name="wgrave" unicode="&#x1e81;" 
d="M409 0v819h410v-819h-410zM1228 0v819h410v-819h-410zM819 819v1229h409v-1229h-409zM0 819v1638h409v-1638h-409zM1638 819v1638h410v-1638h-410zM819 2867v409h409v-409h-409zM409 3276v410h410v-410h-410z" />
    <glyph glyph-name="Wacute" unicode="&#x1e82;" 
d="M409 0v1228h410v-1228h-410zM1228 0v1228h410v-1228h-410zM819 1228v1639h409v-1639h-409zM0 1228v2048h409v-2048h-409zM1638 1228v2048h410v-2048h-410zM819 3686v410h409v-410h-409zM1228 4096v409h410v-409h-410z" />
    <glyph glyph-name="wacute" unicode="&#x1e83;" 
d="M409 0v819h410v-819h-410zM1228 0v819h410v-819h-410zM819 819v1229h409v-1229h-409zM0 819v1638h409v-1638h-409zM1638 819v1638h410v-1638h-410zM819 2867v409h409v-409h-409zM1228 3276v410h410v-410h-410z" />
    <glyph glyph-name="Wdieresis" unicode="&#x1e84;" 
d="M409 0v1228h410v-1228h-410zM1228 0v1228h410v-1228h-410zM819 1228v1639h409v-1639h-409zM0 1228v2048h409v-2048h-409zM1638 1228v2048h410v-2048h-410zM409 3686v410h410v-410h-410zM1228 3686v410h410v-410h-410z" />
    <glyph glyph-name="wdieresis" unicode="&#x1e85;" 
d="M409 0v819h410v-819h-410zM1228 0v819h410v-819h-410zM819 819v1229h409v-1229h-409zM0 819v1638h409v-1638h-409zM1638 819v1638h410v-1638h-410zM409 2867v409h410v-409h-410zM1228 2867v409h410v-409h-410z" />
    <glyph glyph-name="uni1E86" unicode="&#x1e86;" 
d="M409 0v1228h410v-1228h-410zM1228 0v1228h410v-1228h-410zM819 1228v1639h409v-1639h-409zM0 1228v2048h409v-2048h-409zM1638 1228v2048h410v-2048h-410zM819 3686v410h409v-410h-409z" />
    <glyph glyph-name="uni1E87" unicode="&#x1e87;" 
d="M409 0v819h410v-819h-410zM1228 0v819h410v-819h-410zM819 819v1229h409v-1229h-409zM0 819v1638h409v-1638h-409zM1638 819v1638h410v-1638h-410zM819 2867v409h409v-409h-409z" />
    <glyph glyph-name="uni1E8A" unicode="&#x1e8a;" 
d="M0 0v819h409v-819h-409zM1638 0v819h410v-819h-410zM409 819v409h410v-409h-410zM1228 819v409h410v-409h-410zM819 1228v820h409v-820h-409zM409 2048v409h410v-409h-410zM1228 2048v409h410v-409h-410zM0 2457v819h409v-819h-409zM1638 2457v819h410v-819h-410z
M819 3686v410h409v-410h-409z" />
    <glyph glyph-name="uni1E8B" unicode="&#x1e8b;" 
d="M0 0v409h409v-409h-409zM1638 0v409h410v-409h-410zM409 409v410h410v-410h-410zM1228 409v410h410v-410h-410zM819 819v819h409v-819h-409zM409 1638v410h410v-410h-410zM1228 1638v410h410v-410h-410zM0 2048v409h409v-409h-409zM1638 2048v409h410v-409h-410z
M819 2867v409h409v-409h-409z" />
    <glyph glyph-name="uni1E8C" unicode="&#x1e8c;" 
d="M0 0v819h409v-819h-409zM1638 0v819h410v-819h-410zM409 819v409h410v-409h-410zM1228 819v409h410v-409h-410zM819 1228v820h409v-820h-409zM409 2048v409h410v-409h-410zM1228 2048v409h410v-409h-410zM0 2457v819h409v-819h-409zM1638 2457v819h410v-819h-410z
M409 3686v410h410v-410h-410zM1228 3686v410h410v-410h-410z" />
    <glyph glyph-name="uni1E8D" unicode="&#x1e8d;" 
d="M0 0v409h409v-409h-409zM1638 0v409h410v-409h-410zM409 409v410h410v-410h-410zM1228 409v410h410v-410h-410zM819 819v819h409v-819h-409zM409 1638v410h410v-410h-410zM1228 1638v410h410v-410h-410zM0 2048v409h409v-409h-409zM1638 2048v409h410v-409h-410z
M409 2867v409h410v-409h-410zM1228 2867v409h410v-409h-410z" />
    <glyph glyph-name="uni1E8E" unicode="&#x1e8e;" 
d="M819 0v2048h409v-2048h-409zM409 2048v819h410v-819h-410zM1228 2048v819h410v-819h-410zM0 2867v819h409v-819h-409zM1638 2867v819h410v-819h-410zM819 3686v410h409v-410h-409z" />
    <glyph glyph-name="uni1E8F" unicode="&#x1e8f;" 
d="M0 -409v409h819v-409h-819zM819 0v819h409v-819h-409zM409 819v819h410v-819h-410zM1228 819v819h410v-819h-410zM0 1638v819h409v-819h-409zM1638 1638v819h410v-819h-410zM819 2457v410h409v-410h-409z" />
    <glyph glyph-name="uni1E90" unicode="&#x1e90;" horiz-adv-x="2048" 
d="M0 0v819h409v-410h1229v-409h-1638zM409 819v819h410v-819h-410zM819 1638v819h409v-819h-409zM1228 2457v410h-1228v409h1638v-819h-410zM409 3686v410h410v-410h-410zM1228 3686v410h410v-410h-410zM819 4096v409h409v-409h-409z" />
    <glyph glyph-name="uni1E91" unicode="&#x1e91;" 
d="M0 0v819h409v-410h1639v-409h-2048zM409 819v409h410v-409h-410zM819 1228v410h409v-410h-409zM1228 1638v410h-1228v409h2048v-409h-410v-410h-410zM409 2867v409h410v-409h-410zM1228 2867v409h410v-409h-410zM819 3276v410h409v-410h-409z" />
    <glyph glyph-name="uni1E97" unicode="&#x1e97;" horiz-adv-x="2048" 
d="M819 0v409h819v-409h-819zM409 409v1639h-409v409h409v819h410v-819h819v-409h-819v-1639h-410zM0 3686v410h409v-410h-409zM819 3686v410h409v-410h-409z" />
    <glyph glyph-name="uni1E98" unicode="&#x1e98;" 
d="M409 0v819h410v-819h-410zM1228 0v819h410v-819h-410zM819 819v1229h409v-1229h-409zM0 819v1638h409v-1638h-409zM1638 819v1638h410v-1638h-410zM819 2867v409h409v-409h-409zM409 3276v410h410v-410h-410zM1228 3276v410h410v-410h-410zM819 3686v410h409v-410h-409z
" />
    <glyph glyph-name="uni1E99" unicode="&#x1e99;" 
d="M0 -409v409h819v-409h-819zM819 0v819h409v-819h-409zM409 819v819h410v-819h-410zM1228 819v819h410v-819h-410zM0 1638v819h409v-819h-409zM1638 1638v819h410v-819h-410zM819 2457v410h409v-410h-409zM409 2867v409h410v-409h-410zM1228 2867v409h410v-409h-410z
M819 3276v410h409v-410h-409z" />
    <glyph glyph-name="uni1EBC" unicode="&#x1ebc;" horiz-adv-x="2048" 
d="M0 0v3276h1638v-409h-1229v-819h1229v-410h-1229v-1229h1229v-409h-1638zM0 3686v410h409v-410h-409zM819 3686v410h409v-410h-409zM409 4096v409h410v-409h-410zM1228 4096v409h410v-409h-410z" />
    <glyph glyph-name="uni1EBD" unicode="&#x1ebd;" 
d="M409 0v409h1639v-409h-1639zM0 409v1639h409v-410h1229v410h410v-820h-1639v-819h-409zM409 2048v409h1229v-409h-1229zM409 2867v409h410v-409h-410zM1228 2867v409h410v-409h-410zM819 3276v410h409v-410h-409zM1638 3276v410h410v-410h-410z" />
    <glyph glyph-name="Ygrave" unicode="&#x1ef2;" 
d="M819 0v2048h409v-2048h-409zM409 2048v819h410v-819h-410zM1228 2048v819h410v-819h-410zM0 2867v819h409v-819h-409zM1638 2867v819h410v-819h-410zM819 3686v410h409v-410h-409zM409 4096v409h410v-409h-410z" />
    <glyph glyph-name="ygrave" unicode="&#x1ef3;" 
d="M0 -409v409h819v-409h-819zM819 0v819h409v-819h-409zM409 819v819h410v-819h-410zM1228 819v819h410v-819h-410zM0 1638v819h409v-819h-409zM1638 1638v819h410v-819h-410zM819 2457v410h409v-410h-409zM409 2867v409h410v-409h-410z" />
    <glyph glyph-name="uni1EF8" unicode="&#x1ef8;" 
d="M819 0v1638h409v-1638h-409zM409 1638v819h410v-819h-410zM1228 1638v819h410v-819h-410zM0 2457v819h409v-819h-409zM1638 2457v819h410v-819h-410zM409 3686v410h410v-410h-410zM1228 3686v410h410v-410h-410zM819 4096v409h409v-409h-409zM1638 4096v409h410v-409
h-410z" />
    <glyph glyph-name="uni1EF9" unicode="&#x1ef9;" 
d="M0 -409v409h819v-409h-819zM819 0v819h409v-819h-409zM409 819v819h410v-819h-410zM1228 819v819h410v-819h-410zM0 1638v819h409v-819h-409zM1638 1638v819h410v-819h-410zM409 2867v409h410v-409h-410zM1228 2867v409h410v-409h-410zM819 3276v410h409v-410h-409z
M1638 3276v410h410v-410h-410z" />
    <glyph glyph-name="uni2010" unicode="&#x2010;" 
d="M0 1638v410h2048v-410h-2048z" />
    <glyph glyph-name="uni2011" unicode="&#x2011;" 
d="M0 1638v410h2048v-410h-2048z" />
    <glyph glyph-name="figuredash" unicode="&#x2012;" horiz-adv-x="2867" 
d="M0 1638v410h2457v-410h-2457z" />
    <glyph glyph-name="endash" unicode="&#x2013;" horiz-adv-x="2867" 
d="M0 1638v410h2457v-410h-2457z" />
    <glyph glyph-name="emdash" unicode="&#x2014;" horiz-adv-x="3276" 
d="M0 1638v410h2867v-410h-2867z" />
    <glyph glyph-name="uni2015" unicode="&#x2015;" horiz-adv-x="3276" 
d="M0 1638v410h2867v-410h-2867z" />
    <glyph glyph-name="quoteleft" unicode="&#x2018;" horiz-adv-x="1228" 
d="M0 2867v409h409v-409h-409zM409 3276v410h410v-410h-410z" />
    <glyph glyph-name="quoteright" unicode="&#x2019;" horiz-adv-x="1228" 
d="M0 2867v409h409v-409h-409zM409 3276v410h410v-410h-410z" />
    <glyph glyph-name="quotesinglbase" unicode="&#x201a;" horiz-adv-x="1228" 
d="M0 -409v409h409v-409h-409zM409 0v409h410v-409h-410z" />
    <glyph glyph-name="quotereversed" unicode="&#x201b;" horiz-adv-x="1228" 
d="M0 2867v409h409v-409h-409zM409 3276v410h410v-410h-410z" />
    <glyph glyph-name="quotedblleft" unicode="&#x201c;" horiz-adv-x="2048" 
d="M0 2867v409h409v-409h-409zM819 2867v409h409v-409h-409zM409 3276v410h410v-410h-410zM1228 3276v410h410v-410h-410z" />
    <glyph glyph-name="quotedblright" unicode="&#x201d;" horiz-adv-x="2048" 
d="M0 2867v409h409v-409h-409zM819 2867v409h409v-409h-409zM409 3276v410h410v-410h-410zM1228 3276v410h410v-410h-410z" />
    <glyph glyph-name="quotedblbase" unicode="&#x201e;" horiz-adv-x="2048" 
d="M0 -409v409h409v-409h-409zM819 -409v409h409v-409h-409zM409 0v409h410v-409h-410zM1228 0v409h410v-409h-410z" />
    <glyph glyph-name="uni201F" unicode="&#x201f;" horiz-adv-x="2048" 
d="M0 2867v409h409v-409h-409zM819 2867v409h409v-409h-409zM409 3276v410h410v-410h-410zM1228 3276v410h410v-410h-410z" />
    <glyph glyph-name="dagger" unicode="&#x2020;" 
d="M819 -409v2866h-819v410h819v819h409v-819h820v-410h-820v-2866h-409z" />
    <glyph glyph-name="daggerdbl" unicode="&#x2021;" 
d="M819 -409v818h-819v410h819v1638h-819v410h819v819h409v-819h820v-410h-820v-1638h820v-410h-820v-818h-409z" />
    <glyph glyph-name="bullet" unicode="&#x2022;" horiz-adv-x="2048" 
d="M409 819v409h-409v820h409v409h819v-409h410v-820h-410v-409h-819z" />
    <glyph glyph-name="uni2023" unicode="&#x2023;" horiz-adv-x="1638" 
d="M409 1228v410h-409v410h409v409h410v-409h409v-410h-409v-410h-410z" />
    <glyph glyph-name="onedotenleader" unicode="&#x2024;" horiz-adv-x="819" 
d="M0 1638v410h409v-410h-409z" />
    <glyph glyph-name="twodotenleader" unicode="&#x2025;" horiz-adv-x="1638" 
d="M0 1638v410h409v-410h-409zM819 1638v410h409v-410h-409z" />
    <glyph glyph-name="ellipsis" unicode="&#x2026;" 
d="M0 0v409h409v-409h-409zM819 0v409h409v-409h-409zM1638 0v409h410v-409h-410z" />
    <glyph glyph-name="uni2027" unicode="&#x2027;" horiz-adv-x="819" 
d="M0 1638v410h409v-410h-409z" />
    <glyph glyph-name="perthousand" unicode="&#x2030;" horiz-adv-x="4095" 
d="M2048 0v409h409v-409h-409zM2867 0v409h409v-409h-409zM409 0v819h410v-819h-410zM1638 409v819h410v-819h-410zM2457 409v819h410v-819h-410zM3276 409v819h410v-819h-410zM819 819v819h409v-819h-409zM2048 1228v410h409v-410h-409zM2867 1228v410h409v-410h-409z
M1228 1638v410h410v-410h-410zM409 2048v409h410v-409h-410zM1638 2048v819h410v-819h-410zM0 2457v819h409v-819h-409zM819 2457v819h409v-819h-409zM409 3276v410h410v-410h-410zM2048 2867v819h409v-819h-409z" />
    <glyph glyph-name="minute" unicode="&#x2032;" horiz-adv-x="1638" 
d="M0 2048v409h409v-409h-409zM409 2457v819h410v-819h-410zM819 3276v410h409v-410h-409z" />
    <glyph glyph-name="second" unicode="&#x2033;" 
d="M0 2457v410h409v-410h-409zM819 2457v410h409v-410h-409zM409 2867v409h410v-409h-410zM1228 2867v409h410v-409h-410zM819 3276v410h409v-410h-409zM1638 3276v410h410v-410h-410z" />
    <glyph glyph-name="uni2035" unicode="&#x2035;" horiz-adv-x="1638" 
d="M819 2048v409h409v-409h-409zM409 2457v819h410v-819h-410zM0 3276v410h409v-410h-409z" />
    <glyph glyph-name="uni2036" unicode="&#x2036;" 
d="M819 2457v410h409v-410h-409zM1638 2457v410h410v-410h-410zM409 2867v409h410v-409h-410zM1228 2867v409h410v-409h-410zM0 3276v410h409v-410h-409zM819 3276v410h409v-410h-409z" />
    <glyph glyph-name="uni2038" unicode="&#x2038;" 
d="M0 2457v410h409v-410h-409zM1638 2457v410h410v-410h-410zM409 2867v409h410v-409h-410zM1228 2867v409h410v-409h-410zM819 3276v410h409v-410h-409z" />
    <glyph glyph-name="guilsinglleft" unicode="&#x2039;" horiz-adv-x="1638" 
d="M819 0v819h409v-819h-409zM409 819v819h410v-819h-410zM0 1638v410h409v-410h-409zM409 2048v819h410v-819h-410zM819 2867v819h409v-819h-409z" />
    <glyph glyph-name="guilsinglright" unicode="&#x203a;" horiz-adv-x="1638" 
d="M0 0v819h409v-819h-409zM409 819v819h410v-819h-410zM819 1638v410h409v-410h-409zM409 2048v819h410v-819h-410zM0 2867v819h409v-819h-409z" />
    <glyph glyph-name="uni203D" unicode="&#x203d;" horiz-adv-x="2048" 
d="M409 0v819h410v-819h-410zM409 1228v820h410v-820h-410zM819 2048v409h409v-409h-409zM1228 2457v819h410v-819h-410zM0 2048v1638h1228v-410h-819v-1228h-409z" />
    <glyph glyph-name="uni203E" unicode="&#x203e;" 
d="M0 3276v410h2048v-410h-2048z" />
    <glyph glyph-name="uni2043" unicode="&#x2043;" horiz-adv-x="819" 
d="M0 1638v410h409v-410h-409z" />
    <glyph glyph-name="fraction" unicode="&#x2044;" 
d="M409 0v1228h410v-1228h-410zM819 1228v1229h409v-1229h-409zM1228 2457v1229h410v-1229h-410z" />
    <glyph glyph-name="uni204B" unicode="&#x204b;" 
d="M0 0v3686h1638v-410h410v-819h-410v-409h-410v-2048h-409v3276h-410v-3276h-409z" />
    <glyph glyph-name="uni204F" unicode="&#x204f;" horiz-adv-x="2047" 
d="M819 409v410h409v-410h-409zM409 819v409h410v-409h-410zM409 2457v410h410v-410h-410z" />
    <glyph glyph-name="uni2053" unicode="&#x2053;" horiz-adv-x="4095" 
d="M0 1638v410h409v-410h-409zM2048 1638v410h1228v-410h-1228zM409 2048v409h1639v-409h-1639zM3276 2048v409h410v-409h-410z" />
    <glyph glyph-name="uni2056" unicode="&#x2056;" horiz-adv-x="5324" 
d="M0 2048v819h819v-819h-819zM1638 2048v819h819v-819h-819zM3276 2048v819h820v-819h-820z" />
    <glyph glyph-name="uni2070" unicode="&#x2070;" horiz-adv-x="1638" 
d="M819 2048v1228h-410v-1228h410zM0 1638v2048h1228v-2048h-1228z" />
    <glyph glyph-name="uni2074" unicode="&#x2074;" horiz-adv-x="1638" 
d="M819 1638v410h-819v1638h409v-1229h410v410h409v-1229h-409z" />
    <glyph glyph-name="uni2075" unicode="&#x2075;" horiz-adv-x="1638" 
d="M0 1638v410h819v409h-819v1229h1228v-410h-819v-409h819v-1229h-1228z" />
    <glyph glyph-name="uni2076" unicode="&#x2076;" horiz-adv-x="1638" 
d="M819 2048v409h-410v-409h410zM0 1638v2048h1228v-410h-819v-409h819v-1229h-1228z" />
    <glyph glyph-name="uni2077" unicode="&#x2077;" horiz-adv-x="1638" 
d="M819 1638v1638h-819v410h1228v-2048h-409z" />
    <glyph glyph-name="uni2078" unicode="&#x2078;" horiz-adv-x="1638" 
d="M819 2048v409h-410v-409h410zM819 2867v409h-410v-409h410zM0 1638v2048h1228v-2048h-1228z" />
    <glyph glyph-name="uni2079" unicode="&#x2079;" horiz-adv-x="1638" 
d="M819 2867v409h-410v-409h410zM0 1638v410h819v409h-819v1229h1228v-2048h-1228z" />
    <glyph glyph-name="uni207F" unicode="&#x207f;" horiz-adv-x="1638" 
d="M0 1228v820h409v-820h-409zM409 2048v819h410v-819h-410zM819 2867v819h409v-819h-409z" />
    <glyph glyph-name="uni2080" unicode="&#x2080;" horiz-adv-x="1638" 
d="M819 409v1229h-410v-1229h410zM0 0v2048h1228v-2048h-1228z" />
    <glyph glyph-name="uni2081" unicode="&#x2081;" horiz-adv-x="1638" 
d="M409 0v2048h410v-2048h-410z" />
    <glyph glyph-name="uni2082" unicode="&#x2082;" horiz-adv-x="1638" 
d="M0 0v1228h819v410h-819v410h1228v-1229h-819v-410h819v-409h-1228z" />
    <glyph glyph-name="uni2083" unicode="&#x2083;" horiz-adv-x="1638" 
d="M0 0v409h819v410h-410v409h410v410h-819v410h1228v-2048h-1228z" />
    <glyph glyph-name="uni2084" unicode="&#x2084;" horiz-adv-x="1638" 
d="M819 0v409h-819v1639h409v-1229h410v409h409v-1228h-409z" />
    <glyph glyph-name="uni2085" unicode="&#x2085;" horiz-adv-x="1638" 
d="M0 0v409h819v410h-819v1229h1228v-410h-819v-410h819v-1228h-1228z" />
    <glyph glyph-name="uni2086" unicode="&#x2086;" horiz-adv-x="1638" 
d="M819 409v410h-410v-410h410zM0 0v2048h1228v-410h-819v-410h819v-1228h-1228z" />
    <glyph glyph-name="uni2087" unicode="&#x2087;" horiz-adv-x="1638" 
d="M819 0v1638h-819v410h1228v-2048h-409z" />
    <glyph glyph-name="uni2088" unicode="&#x2088;" horiz-adv-x="1638" 
d="M819 409v410h-410v-410h410zM819 1228v410h-410v-410h410zM0 0v2048h1228v-2048h-1228z" />
    <glyph glyph-name="uni2089" unicode="&#x2089;" horiz-adv-x="1638" 
d="M819 1228v410h-410v-410h410zM0 0v409h819v410h-819v1229h1228v-2048h-1228z" />
    <glyph glyph-name="uni2099" unicode="&#x2099;" horiz-adv-x="1638" 
d="M0 -409v818h409v-818h-409zM409 409v819h410v-819h-410zM819 1228v820h409v-820h-409z" />
    <glyph glyph-name="lira" unicode="&#x20a4;" 
d="M0 0v819h409v-410h1639v-409h-2048zM409 819v409h-409v410h819v410h-819v409h409v819h410v-819h1229v-409h-820v-410h820v-410h-1229v-409h-410zM1638 2867v409h410v-409h-410zM819 3276v410h819v-410h-819z" />
    <glyph glyph-name="Euro" unicode="&#x20ac;" horiz-adv-x="2867" 
d="M1228 0v409h820v-409h-820zM819 409v410h409v-410h-409zM2048 409v410h409v-410h-409zM409 819v409h-409v410h409v410h-409v409h409v410h410v-410h819v-409h-819v-410h819v-410h-819v-409h-410zM819 2867v409h409v-409h-409zM2048 2867v409h409v-409h-409zM1228 3276v410
h820v-410h-820z" />
    <glyph glyph-name="uni20B8" unicode="&#x20b8;" 
d="M819 0v2457h-819v410h2048v-410h-820v-2457h-409zM0 3276v410h2048v-410h-2048z" />
    <glyph glyph-name="trademark" unicode="&#x2122;" horiz-adv-x="4095" 
d="M2457 2457v410h410v-410h-410zM409 2048v1228h-409v410h1228v-410h-409v-1228h-410zM1638 2048v1638h410v-410h409v-409h-409v-819h-410zM3276 2048v819h-409v409h409v410h410v-1638h-410z" />
    <glyph glyph-name="arrowleft" unicode="&#x2190;" horiz-adv-x="4095" 
d="M819 819v409h409v-409h-409zM409 1228v410h-409v410h409v409h410v-409h2867v-410h-2867v-410h-410zM819 2457v410h409v-410h-409z" />
    <glyph glyph-name="arrowup" unicode="&#x2191;" 
d="M0 2457v410h409v-410h-409zM1638 2457v410h410v-410h-410zM819 0v2867h-410v409h410v410h409v-410h410v-409h-410v-2867h-409z" />
    <glyph glyph-name="arrowright" unicode="&#x2192;" horiz-adv-x="4095" 
d="M2457 819v409h410v-409h-410zM2867 1228v410h-2867v410h2867v409h409v-409h410v-410h-410v-410h-409zM2457 2457v410h410v-410h-410z" />
    <glyph glyph-name="arrowdown" unicode="&#x2193;" 
d="M0 819v409h409v-409h-409zM1638 819v409h410v-409h-410zM819 0v409h-410v410h410v2867h409v-2867h410v-410h-410v-409h-409z" />
    <glyph glyph-name="arrowboth" unicode="&#x2194;" horiz-adv-x="4095" 
d="M819 819v409h409v-409h-409zM2457 819v409h410v-409h-410zM409 1228v410h-409v410h409v409h410v-409h2048v409h409v-409h410v-410h-410v-410h-409v410h-2048v-410h-410zM819 2457v410h409v-410h-409zM2457 2457v410h410v-410h-410z" />
    <glyph glyph-name="arrowupdn" unicode="&#x2195;" 
d="M0 819v409h409v-409h-409zM1638 819v409h410v-409h-410zM0 2457v410h409v-410h-409zM1638 2457v410h410v-410h-410zM819 0v409h-410v410h410v2048h-410v409h410v410h409v-410h410v-409h-410v-2048h410v-410h-410v-409h-409z" />
    <glyph glyph-name="uni2196" unicode="&#x2196;" horiz-adv-x="3276" 
d="M2457 409v410h410v-410h-410zM2048 819v409h409v-409h-409zM1638 1228v410h410v-410h-410zM1228 1638v410h410v-410h-410zM819 2048v409h409v-409h-409zM0 2048v1228h1228v-409h-409v-410h-410v-409h-409z" />
    <glyph glyph-name="uni2197" unicode="&#x2197;" horiz-adv-x="3276" 
d="M0 409v410h409v-410h-409zM409 819v409h410v-409h-410zM819 1228v410h409v-410h-409zM1228 1638v410h410v-410h-410zM1638 2048v409h410v-409h-410zM2457 2048v409h-409v410h-410v409h1229v-1228h-410z" />
    <glyph glyph-name="uni2198" unicode="&#x2198;" horiz-adv-x="3276" 
d="M1638 1228v410h410v-410h-410zM1638 409v410h410v409h409v410h410v-1229h-1229zM1228 1638v410h410v-410h-410zM819 2048v409h409v-409h-409zM409 2457v410h410v-410h-410zM0 2867v409h409v-409h-409z" />
    <glyph glyph-name="uni2199" unicode="&#x2199;" horiz-adv-x="3276" 
d="M0 409v1229h409v-410h410v-409h409v-410h-1228zM819 1228v410h409v-410h-409zM1228 1638v410h410v-410h-410zM1638 2048v409h410v-409h-410zM2048 2457v410h409v-410h-409zM2457 2867v409h410v-409h-410z" />
    <glyph glyph-name="uni219A" unicode="&#x219a;" horiz-adv-x="3686" 
d="M2048 819v2048h409v-1639h819v-409h-1228zM1228 409v410h-409v409h-410v410h-409v410h409v409h410v410h409v409h410v-2867h-410z" />
    <glyph glyph-name="uni219B" unicode="&#x219b;" horiz-adv-x="3686" 
d="M819 819v409h409v-409h-409zM819 1638v819h409v-819h-409zM0 819v2048h819v-410h-410v-819h410v-410h-410v-409h-409zM1638 409v2867h410v-409h409v-410h410v-409h409v-410h-409v-410h-410v-409h-409v-410h-410z" />
    <glyph glyph-name="arrowdblleft" unicode="&#x21d0;" horiz-adv-x="4095" 
d="M819 819v409h-410v410h-409v410h409v409h410v410h409v-410h2458v-409h-2867v-410h2867v-410h-2458v-409h-409z" />
    <glyph glyph-name="arrowdblup" unicode="&#x21d1;" 
d="M409 0v2457h-409v410h409v409h410v410h409v-410h410v-409h410v-410h-410v-2457h-410v2867h-409v-2867h-410z" />
    <glyph glyph-name="arrowdblright" unicode="&#x21d2;" horiz-adv-x="4095" 
d="M2457 819v409h-2457v410h2867v410h-2867v409h2457v410h410v-410h409v-409h410v-410h-410v-410h-409v-409h-410z" />
    <glyph glyph-name="arrowdbldown" unicode="&#x21d3;" 
d="M819 0v409h-410v410h-409v409h409v2458h410v-2867h409v2867h410v-2458h410v-409h-410v-410h-410v-409h-409z" />
    <glyph glyph-name="arrowdblboth" unicode="&#x21d4;" horiz-adv-x="4095" 
d="M2867 1638v410h-2048v-410h2048zM819 819v409h-410v410h-409v410h409v409h410v410h409v-410h1229v410h410v-410h409v-409h410v-410h-410v-410h-409v-409h-410v409h-1229v-409h-409z" />
    <glyph glyph-name="proportional" unicode="&#x221d;" horiz-adv-x="4095" 
d="M409 819v409h819v-409h-819zM2457 819v409h819v-409h-819zM1228 1228v410h410v-410h-410zM2048 1228v410h409v-410h-409zM3276 1228v410h410v-410h-410zM1638 1638v410h410v-410h-410zM0 1228v1229h409v-1229h-409zM1228 2048v409h410v-409h-410zM2048 2048v409h409v-409
h-409zM3276 2048v409h410v-409h-410zM409 2457v410h819v-410h-819zM2457 2457v410h819v-410h-819z" />
    <glyph glyph-name="infinity" unicode="&#x221e;" horiz-adv-x="4095" 
d="M409 819v409h819v-409h-819zM2457 819v409h819v-409h-819zM1228 1228v410h410v-410h-410zM2048 1228v410h409v-410h-409zM1638 1638v410h410v-410h-410zM0 1228v1229h409v-1229h-409zM1228 2048v409h410v-409h-410zM2048 2048v409h409v-409h-409zM3276 1228v1229h410
v-1229h-410zM409 2457v410h819v-410h-819zM2457 2457v410h819v-410h-819z" />
    <glyph glyph-name="therefore" unicode="&#x2234;" horiz-adv-x="3276" 
d="M0 409v819h409v-819h-409zM2457 409v819h410v-819h-410zM1228 2457v819h410v-819h-410z" />
    <glyph glyph-name="block" unicode="&#x2588;" horiz-adv-x="4095" 
d="M0 0v3686h3686v-3686h-3686z" />
    <glyph glyph-name="filledbox" unicode="&#x25a0;" horiz-adv-x="4095" 
d="M0 0v3686h3686v-3686h-3686z" />
    <glyph glyph-name="H22073" unicode="&#x25a1;" horiz-adv-x="4095" 
d="M3276 409v2867h-2867v-2867h2867zM0 0v3686h3686v-3686h-3686z" />
    <glyph glyph-name="uni25A2" unicode="&#x25a2;" horiz-adv-x="4095" 
d="M409 0v409h2867v-409h-2867zM0 409v2867h409v-2867h-409zM3276 409v2867h410v-2867h-410zM409 3276v410h2867v-410h-2867z" />
    <glyph glyph-name="uni25A3" unicode="&#x25a3;" horiz-adv-x="4095" 
d="M819 819v2048h2048v-2048h-2048zM3276 409v2867h-2867v-2867h2867zM0 0v3686h3686v-3686h-3686z" />
    <glyph glyph-name="uni25A4" unicode="&#x25a4;" horiz-adv-x="4095" 
d="M3276 409v410h-2867v-410h2867zM3276 1228v410h-2867v-410h2867zM3276 2048v409h-2867v-409h2867zM3276 2867v409h-2867v-409h2867zM0 0v3686h3686v-3686h-3686z" />
    <glyph glyph-name="uni25A5" unicode="&#x25a5;" horiz-adv-x="4095" 
d="M819 409v2867h-410v-2867h410zM1638 409v2867h-410v-2867h410zM2457 409v2867h-409v-2867h409zM3276 409v2867h-409v-2867h409zM0 0v3686h3686v-3686h-3686z" />
    <glyph glyph-name="uni25A6" unicode="&#x25a6;" horiz-adv-x="4095" 
d="M819 409v410h-410v-410h410zM1638 409v410h-410v-410h410zM2457 409v410h-409v-410h409zM3276 409v410h-409v-410h409zM819 1228v410h-410v-410h410zM1638 1228v410h-410v-410h410zM2457 1228v410h-409v-410h409zM3276 1228v410h-409v-410h409zM819 2048v409h-410v-409
h410zM1638 2048v409h-410v-409h410zM2457 2048v409h-409v-409h409zM3276 2048v409h-409v-409h409zM819 2867v409h-410v-409h410zM1638 2867v409h-410v-409h410zM2457 2867v409h-409v-409h409zM3276 2867v409h-409v-409h409zM0 0v3686h3686v-3686h-3686z" />
    <glyph glyph-name="uni25A7" unicode="&#x25a7;" horiz-adv-x="4095" 
d="M1228 819v409h410v-409h-410zM2457 819v409h410v-409h-410zM819 1228v410h409v-410h-409zM2048 1228v410h409v-410h-409zM1638 1638v410h410v-410h-410zM1228 2048v409h410v-409h-410zM2457 2048v409h410v-409h-410zM819 2457v410h409v-410h-409zM2048 2457v410h409v-410
h-409zM2867 409v410h409v819h-409v410h409v1228h-1228v-409h-410v409h-819v-409h-410v-819h410v-410h-410v-1229h1229v410h410v-410h819zM0 0v3686h3686v-3686h-3686z" />
    <glyph glyph-name="uni25A8" unicode="&#x25a8;" horiz-adv-x="4095" 
d="M819 819v409h409v-409h-409zM2048 819v409h409v-409h-409zM1228 1228v410h410v-410h-410zM2457 1228v410h410v-410h-410zM1638 1638v410h410v-410h-410zM819 2048v409h409v-409h-409zM2048 2048v409h409v-409h-409zM1228 2457v410h410v-410h-410zM2457 2457v410h410v-410
h-410zM3276 409v1229h-409v410h409v819h-409v409h-819v-409h-410v409h-1229v-1228h410v-410h-410v-819h410v-410h819v410h410v-410h1228zM0 0v3686h3686v-3686h-3686z" />
    <glyph glyph-name="uni25A9" unicode="&#x25a9;" horiz-adv-x="4095" 
d="M819 819v819h819v-819h-819zM2048 819v819h819v-819h-819zM1638 1638v410h410v-410h-410zM819 2048v819h819v-819h-819zM2048 2048v819h819v-819h-819zM2867 409v410h409v819h-409v410h409v819h-409v409h-819v-409h-410v409h-819v-409h-410v-819h410v-410h-410v-819h410
v-410h819v410h410v-410h819zM0 0v3686h3686v-3686h-3686z" />
    <glyph glyph-name="H18543" unicode="&#x25aa;" 
d="M0 819v2048h2048v-2048h-2048z" />
    <glyph glyph-name="H18551" unicode="&#x25ab;" 
d="M1638 1228v1229h-1229v-1229h1229zM0 819v2048h2048v-2048h-2048z" />
    <glyph glyph-name="filledrect" unicode="&#x25ac;" horiz-adv-x="4095" 
d="M0 819v2048h3686v-2048h-3686z" />
    <glyph glyph-name="uni25AD" unicode="&#x25ad;" horiz-adv-x="4095" 
d="M3276 1228v1229h-2867v-1229h2867zM0 819v2048h3686v-2048h-3686z" />
    <glyph glyph-name="uni25AE" unicode="&#x25ae;" 
d="M0 0v3686h2048v-3686h-2048z" />
    <glyph glyph-name="uni25AF" unicode="&#x25af;" 
d="M1638 409v2867h-1229v-2867h1229zM0 0v3686h2048v-3686h-2048z" />
    <glyph glyph-name="triagup" unicode="&#x25b2;" horiz-adv-x="4095" 
d="M0 0v819h409v819h410v819h409v819h410v410h410v-410h409v-819h410v-819h409v-819h410v-819h-3686z" />
    <glyph glyph-name="uni25B3" unicode="&#x25b3;" horiz-adv-x="4095" 
d="M0 0v819h409v-410h2867v410h410v-819h-3686zM409 819v819h410v-819h-410zM2867 819v819h409v-819h-409zM819 1638v819h409v-819h-409zM2457 1638v819h410v-819h-410zM1228 2457v819h410v-819h-410zM2048 2457v819h409v-819h-409zM1638 3276v410h410v-410h-410z" />
    <glyph glyph-name="uni25B4" unicode="&#x25b4;" horiz-adv-x="3276" 
d="M0 1228v410h409v410h410v409h409v410h410v-410h410v-409h409v-410h410v-410h-2867z" />
    <glyph glyph-name="uni25B5" unicode="&#x25b5;" horiz-adv-x="3276" 
d="M0 1228v410h409v410h410v-410h1229v410h409v-410h410v-410h-2867zM819 2048v409h409v-409h-409zM1638 2048v409h410v-409h-410zM1228 2457v410h410v-410h-410z" />
    <glyph glyph-name="uni25B6" unicode="&#x25b6;" horiz-adv-x="4095" 
d="M0 0v3686h819v-410h819v-409h819v-410h819v-409h410v-410h-410v-410h-819v-409h-819v-410h-819v-409h-819z" />
    <glyph glyph-name="uni25B7" unicode="&#x25b7;" horiz-adv-x="4095" 
d="M819 409v410h819v-410h-819zM1638 819v409h819v-409h-819zM2457 1228v410h819v-410h-819zM3276 1638v410h410v-410h-410zM2457 2048v409h819v-409h-819zM1638 2457v410h819v-410h-819zM819 2867v409h819v-409h-819zM0 0v3686h819v-410h-410v-2867h410v-409h-819z" />
    <glyph glyph-name="uni25B8" unicode="&#x25b8;" horiz-adv-x="2048" 
d="M0 409v2867h409v-409h410v-410h409v-409h410v-410h-410v-410h-409v-409h-410v-410h-409z" />
    <glyph glyph-name="uni25B9" unicode="&#x25b9;" horiz-adv-x="2048" 
d="M819 1228v410h409v-410h-409zM1228 1638v410h410v-410h-410zM819 2048v409h409v-409h-409zM0 409v2867h409v-409h410v-410h-410v-1229h410v-409h-410v-410h-409z" />
    <glyph glyph-name="triagrt" unicode="&#x25ba;" horiz-adv-x="2867" 
d="M0 -409v4505h409v-410h410v-410h409v-409h410v-410h410v-409h409v-410h-409v-410h-410v-409h-410v-410h-409v-409h-410v-409h-409z" />
    <glyph glyph-name="uni25BB" unicode="&#x25bb;" horiz-adv-x="2867" 
d="M819 409v410h409v-410h-409zM1228 819v409h410v-409h-410zM1638 1228v410h410v-410h-410zM2048 1638v410h409v-410h-409zM1638 2048v409h410v-409h-410zM1228 2457v410h410v-410h-410zM819 2867v409h409v-409h-409zM0 -409v4505h409v-410h410v-410h-410v-2867h410v-409
h-410v-409h-409z" />
    <glyph glyph-name="triagdn" unicode="&#x25bc;" horiz-adv-x="4095" 
d="M1638 0v409h-410v819h-409v820h-410v819h-409v819h3686v-819h-410v-819h-409v-820h-410v-819h-409v-409h-410z" />
    <glyph glyph-name="uni25BD" unicode="&#x25bd;" horiz-adv-x="4095" 
d="M1638 0v409h410v-409h-410zM1228 409v819h410v-819h-410zM2048 409v819h409v-819h-409zM819 1228v820h409v-820h-409zM2457 1228v820h410v-820h-410zM409 2048v819h410v-819h-410zM2867 2048v819h409v-819h-409zM0 2867v819h3686v-819h-410v409h-2867v-409h-409z" />
    <glyph glyph-name="uni25BE" unicode="&#x25be;" horiz-adv-x="3276" 
d="M1228 819v409h-409v410h-410v410h-409v409h2867v-409h-410v-410h-409v-410h-410v-409h-410z" />
    <glyph glyph-name="uni25BF" unicode="&#x25bf;" horiz-adv-x="3276" 
d="M1228 819v409h410v-409h-410zM819 1228v410h409v-410h-409zM1638 1228v410h410v-410h-410zM409 1638v410h-409v409h2867v-409h-410v-410h-409v410h-1229v-410h-410z" />
    <glyph glyph-name="uni25C0" unicode="&#x25c0;" horiz-adv-x="4095" 
d="M2867 0v409h-819v410h-820v409h-819v410h-409v410h409v409h819v410h820v409h819v410h819v-3686h-819z" />
    <glyph glyph-name="uni25C1" unicode="&#x25c1;" horiz-adv-x="4095" 
d="M2048 409v410h819v-410h-819zM1228 819v409h820v-409h-820zM409 1228v410h819v-410h-819zM0 1638v410h409v-410h-409zM409 2048v409h819v-409h-819zM1228 2457v410h820v-410h-820zM2048 2867v409h819v-409h-819zM2867 0v409h409v2867h-409v410h819v-3686h-819z" />
    <glyph glyph-name="uni25C2" unicode="&#x25c2;" horiz-adv-x="2048" 
d="M1228 409v410h-409v409h-410v410h-409v410h409v409h410v410h409v409h410v-2867h-410z" />
    <glyph glyph-name="uni25C3" unicode="&#x25c3;" horiz-adv-x="2048" 
d="M409 1228v410h410v-410h-410zM0 1638v410h409v-410h-409zM409 2048v409h410v-409h-410zM1228 409v410h-409v409h409v1229h-409v410h409v409h410v-2867h-410z" />
    <glyph glyph-name="triaglf" unicode="&#x25c4;" horiz-adv-x="2867" 
d="M2048 -409v409h-410v409h-410v410h-409v409h-410v410h-409v410h409v409h410v410h409v409h410v410h410v410h409v-4505h-409z" />
    <glyph glyph-name="uni25C5" unicode="&#x25c5;" horiz-adv-x="2867" 
d="M1228 409v410h410v-410h-410zM819 819v409h409v-409h-409zM409 1228v410h410v-410h-410zM0 1638v410h409v-410h-409zM409 2048v409h410v-409h-410zM819 2457v410h409v-410h-409zM1228 2867v409h410v-409h-410zM2048 -409v409h-410v409h410v2867h-410v410h410v410h409
v-4505h-409z" />
    <glyph glyph-name="uni25C6" unicode="&#x25c6;" horiz-adv-x="4095" 
d="M1638 0v409h-410v410h-409v409h-410v410h-409v410h409v409h410v410h409v409h410v410h410v-410h409v-409h410v-410h409v-409h410v-410h-410v-410h-409v-409h-410v-410h-409v-409h-410z" />
    <glyph glyph-name="uni25C7" unicode="&#x25c7;" horiz-adv-x="4095" 
d="M1638 0v409h410v-409h-410zM1228 409v410h410v-410h-410zM2048 409v410h409v-410h-409zM819 819v409h409v-409h-409zM2457 819v409h410v-409h-410zM409 1228v410h410v-410h-410zM2867 1228v410h409v-410h-409zM0 1638v410h409v-410h-409zM3276 1638v410h410v-410h-410z
M409 2048v409h410v-409h-410zM2867 2048v409h409v-409h-409zM819 2457v410h409v-410h-409zM2457 2457v410h410v-410h-410zM1228 2867v409h410v-409h-410zM2048 2867v409h409v-409h-409zM1638 3276v410h410v-410h-410z" />
    <glyph glyph-name="uni25C8" unicode="&#x25c8;" horiz-adv-x="4095" 
d="M1638 0v409h410v-409h-410zM1228 409v410h410v-410h-410zM2048 409v410h409v-410h-409zM819 819v409h409v-409h-409zM2457 819v409h410v-409h-410zM409 1228v410h410v-410h-410zM2867 1228v410h409v-410h-409zM0 1638v410h409v-410h-409zM3276 1638v410h410v-410h-410z
M409 2048v409h410v-409h-410zM2867 2048v409h409v-409h-409zM819 2457v410h409v-410h-409zM1638 819v409h-410v410h-409v410h409v409h410v410h410v-410h409v-409h410v-410h-410v-410h-409v-409h-410zM2457 2457v410h410v-410h-410zM1228 2867v409h410v-409h-410zM2048 2867
v409h409v-409h-409zM1638 3276v410h410v-410h-410z" />
    <glyph glyph-name="uni25C9" unicode="&#x25c9;" horiz-adv-x="4095" 
d="M1228 0v409h1229v-409h-1229zM409 409v819h410v-409h409v-410h-819zM2457 409v410h410v409h409v-819h-819zM0 1228v1229h409v-1229h-409zM3276 1228v1229h410v-1229h-410zM1228 819v409h-409v1229h409v410h1229v-410h410v-1229h-410v-409h-1229zM409 2457v819h819v-409
h-409v-410h-410zM2867 2457v410h-410v409h819v-819h-409zM1228 3276v410h1229v-410h-1229z" />
    <glyph glyph-name="circle" unicode="&#x25cb;" horiz-adv-x="4095" 
d="M1228 0v409h1229v-409h-1229zM409 409v819h410v-409h409v-410h-819zM2457 409v410h410v409h409v-819h-819zM0 1228v1229h409v-1229h-409zM3276 1228v1229h410v-1229h-410zM409 2457v819h819v-409h-409v-410h-410zM2867 2457v410h-410v409h819v-819h-409zM1228 3276v410
h1229v-410h-1229z" />
    <glyph glyph-name="uni25CC" unicode="&#x25cc;" horiz-adv-x="4095" 
d="M1228 0v409h410v-409h-410zM2048 0v409h409v-409h-409zM409 409v410h410v-410h-410zM2867 409v410h409v-410h-409zM0 1228v410h409v-410h-409zM3276 1228v410h410v-410h-410zM0 2048v409h409v-409h-409zM3276 2048v409h410v-409h-410zM409 2867v409h410v-409h-410z
M2867 2867v409h409v-409h-409zM1228 3276v410h410v-410h-410zM2048 3276v410h409v-410h-409z" />
    <glyph glyph-name="uni25CE" unicode="&#x25ce;" horiz-adv-x="4095" 
d="M1228 0v409h1229v-409h-1229zM409 409v819h410v-409h409v-410h-819zM1228 819v409h1229v-409h-1229zM2457 409v410h410v409h409v-819h-819zM0 1228v1229h409v-1229h-409zM819 1228v1229h409v-1229h-409zM2457 1228v1229h410v-1229h-410zM3276 1228v1229h410v-1229h-410z
M1228 2457v410h1229v-410h-1229zM409 2457v819h819v-409h-409v-410h-410zM2867 2457v410h-410v409h819v-819h-409zM1228 3276v410h1229v-410h-1229z" />
    <glyph glyph-name="H18533" unicode="&#x25cf;" horiz-adv-x="4095" 
d="M1228 0v409h-819v819h-409v1229h409v819h819v410h1229v-410h819v-819h410v-1229h-410v-819h-819v-409h-1229z" />
    <glyph glyph-name="uni25EF" unicode="&#x25ef;" horiz-adv-x="4915" 
d="M1228 0v409h2048v-409h-2048zM409 409v819h410v-409h409v-410h-819zM3276 409v410h410v409h410v-819h-820zM0 1228v2048h409v-2048h-409zM4096 1228v2048h409v-2048h-409zM409 3276v820h819v-410h-409v-410h-410zM3686 3276v410h-410v410h820v-820h-410zM1228 4096v409
h2048v-409h-2048z" />
    <glyph glyph-name="uni2600" unicode="&#x2600;" horiz-adv-x="4095" 
d="M1638 0v409h410v-409h-410zM409 409v410h410v-410h-410zM2867 409v410h409v-410h-409zM0 1638v410h409v-410h-409zM3276 1638v410h410v-410h-410zM1228 819v409h-409v1229h409v410h1229v-410h410v-1229h-410v-409h-1229zM409 2867v409h410v-409h-410zM2867 2867v409h409
v-409h-409zM1638 3276v410h410v-410h-410z" />
    <glyph glyph-name="uni2601" unicode="&#x2601;" horiz-adv-x="4095" 
d="M819 409v410h819v-410h-819zM2048 409v410h819v-410h-819zM409 819v409h410v-409h-410zM1638 819v409h410v-409h-410zM2867 819v409h409v-409h-409zM2048 1228v410h409v-410h-409zM0 1228v1229h409v-1229h-409zM3276 1228v1229h410v-1229h-410zM409 2457v410h410v409h409
v-819h-819zM2457 2457v819h410v-409h409v-410h-819zM1228 3276v410h1229v-410h-1229z" />
    <glyph glyph-name="uni2602" unicode="&#x2602;" horiz-adv-x="4095" 
d="M2048 0v409h409v-409h-409zM2457 409v410h410v-410h-410zM1638 409v1639h-1638v409h409v410h410v409h819v410h410v-410h819v-409h409v-410h410v-409h-1638v-1639h-410z" />
    <glyph glyph-name="uni2603" unicode="&#x2603;" horiz-adv-x="3276" 
d="M819 0v409h1229v-409h-1229zM409 409v410h410v-410h-410zM2048 409v410h409v-410h-409zM0 819v1229h409v-1229h-409zM2457 819v1229h410v-1229h-410zM409 2048v1228h410v-819h409v-409h-819zM1638 2048v409h410v819h409v-1228h-819zM819 3276v410h1229v-410h-1229z" />
    <glyph glyph-name="uni2604" unicode="&#x2604;" horiz-adv-x="4095" 
d="M819 0v409h2048v-409h-2048zM409 409v410h410v-410h-410zM2867 409v410h409v-410h-409zM0 819v1638h409v-1638h-409zM1638 1228v1229h410v-819h819v-410h-1229zM3276 819v1638h410v-1638h-410zM409 2457v410h-409v409h409v410h410v410h409v-410h410v-410h410v410h409v410
h410v-410h409v-410h410v-409h-410v-410h-409v410h-2048v-410h-410z" />
    <glyph glyph-name="uni2605" unicode="&#x2605;" horiz-adv-x="4095" 
d="M409 0v409h410v-409h-410zM2867 0v409h409v-409h-409zM819 409v819h409v410h-409v410h-819v409h1228v410h410v819h410v-819h409v-410h1229v-409h-819v-410h-410v-410h410v-819h-410v410h-409v409h-410v-409h-410v-410h-409z" />
    <glyph glyph-name="uni2606" unicode="&#x2606;" horiz-adv-x="4095" 
d="M409 0v409h410v-409h-410zM2867 0v409h409v-409h-409zM819 409v1229h409v-410h410v-409h-410v-410h-409zM1638 1228v410h410v-410h-410zM2457 409v410h-409v409h409v410h410v-1229h-410zM409 1638v410h-409v409h1228v410h410v-819h-819v-410h-410zM2867 1638v410h-819
v819h409v-410h1229v-409h-410v-410h-409zM1638 2867v819h410v-819h-410z" />
    <glyph glyph-name="uni2609" unicode="&#x2609;" horiz-adv-x="4915" 
d="M3276 819v819h-2048v-819h2048zM4096 0v1638h-410v-1229h-2867v1229h-410v-1638h3687zM3276 2048v819h-2048v-819h2048zM4096 2048v1638h-3687v-1638h410v1228h2867v-1228h410zM0 -409v4505h4505v-4505h-4505z" />
    <glyph glyph-name="uni260A" unicode="&#x260a;" horiz-adv-x="4915" 
d="M819 409v2867h819v-409h410v-410h409v410h410v409h819v-2867h-819v1639h-410v-1229h-409v1229h-410v-1639h-819zM4096 0v3686h-3687v-3686h3687zM0 -409v4505h4505v-4505h-4505z" />
    <glyph glyph-name="uni260E" unicode="&#x260e;" 
d="M1638 409v410h-410v409h410v410h-410v-410h-409v410h-410v-410h410v-409h-410v-410h410v410h409v-410h410zM1638 2048v819h-1229v-819h1229zM0 0v3276h1638v410h410v-3686h-2048z" />
    <glyph glyph-name="uni2610" unicode="&#x2610;" horiz-adv-x="4095" 
d="M819 0v409h2048v-409h-2048zM409 409v410h410v-410h-410zM2867 409v410h409v-410h-409zM1228 819v1638h410v-819h410v819h409v-1638h-409v409h-410v-409h-410zM0 819v2048h409v-2048h-409zM1638 2457v410h410v-410h-410zM3276 819v2048h410v-2048h-410zM409 2867v409h410
v-409h-410zM2867 2867v409h409v-409h-409zM819 3276v410h2048v-410h-2048z" />
    <glyph glyph-name="uni2611" unicode="&#x2611;" horiz-adv-x="4095" 
d="M819 0v409h2048v-409h-2048zM409 409v410h410v-410h-410zM2867 409v410h409v-410h-409zM2048 1228v410h409v-410h-409zM2048 2048v409h409v-409h-409zM0 819v2048h409v-2048h-409zM1228 819v2048h820v-410h-410v-409h410v-410h-410v-410h410v-409h-820zM3276 819v2048
h410v-2048h-410zM409 2867v409h410v-409h-410zM2867 2867v409h409v-409h-409zM819 3276v410h2048v-410h-2048z" />
    <glyph glyph-name="uni2612" unicode="&#x2612;" horiz-adv-x="4095" 
d="M819 0v409h2048v-409h-2048zM409 409v410h410v-410h-410zM2867 409v410h409v-410h-409zM1228 819v819h410v-819h-410zM2048 819v819h409v-819h-409zM1638 1638v410h410v-410h-410zM0 819v2048h409v-2048h-409zM1228 2048v819h410v-819h-410zM2048 2048v819h409v-819h-409
zM3276 819v2048h410v-2048h-410zM409 2867v409h410v-409h-410zM2867 2867v409h409v-409h-409zM819 3276v410h2048v-410h-2048z" />
    <glyph glyph-name="uni2613" unicode="&#x2613;" horiz-adv-x="4095" 
d="M819 0v409h2048v-409h-2048zM409 409v410h410v-410h-410zM2867 409v410h409v-410h-409zM1638 819v1229h410v-1229h-410zM0 819v2048h409v-2048h-409zM1228 2048v819h410v-819h-410zM2048 2048v819h409v-819h-409zM3276 819v2048h410v-2048h-410zM409 2867v409h410v-409
h-410zM2867 2867v409h409v-409h-409zM819 3276v410h2048v-410h-2048z" />
    <glyph glyph-name="uni261B" unicode="&#x261b;" horiz-adv-x="5324" 
d="M0 409v2867h4096v-409h409v-410h410v-1229h-410v-409h-409v-410h-4096z" />
    <glyph glyph-name="uni261E" unicode="&#x261e;" horiz-adv-x="5324" 
d="M4096 819v409h409v-409h-409zM819 1228v1229h2867v-409h410v-410h-410v-410h-2867zM4505 1228v1229h410v-1229h-410zM4096 2457v410h409v-410h-409zM0 409v2867h4096v-409h-3687v-2048h3687v-410h-4096z" />
    <glyph glyph-name="uni2625" unicode="&#x2625;" 
d="M819 0v1228h-819v410h819v410h409v-410h820v-410h-820v-1228h-409zM409 2048v409h410v-409h-410zM1228 2048v409h410v-409h-410zM0 2457v819h409v-819h-409zM1638 2457v819h410v-819h-410zM409 3276v410h1229v-410h-1229z" />
    <glyph glyph-name="uni2628" unicode="&#x2628;" horiz-adv-x="4095" 
d="M1638 1228v410h-410v410h410v409h410v-409h409v-410h-409v-410h-410zM2867 819v2048h-2048v-2048h2048zM0 0v3686h3686v-3686h-3686z" />
    <glyph glyph-name="uni2629" unicode="&#x2629;" horiz-adv-x="4095" 
d="M1228 0v409h410v1229h-1229v-410h-409v1229h409v-409h1229v1228h-410v410h1229v-410h-409v-1228h1228v409h410v-1229h-410v410h-1228v-1229h409v-409h-1229z" />
    <glyph glyph-name="uni2630" unicode="&#x2630;" horiz-adv-x="4095" 
d="M1638 1638v819h410v-819h-410zM2867 819v819h-410v819h-409v410h-410v-410h-410v-819h-409v-819h409v409h1229v-409h410zM819 0v409h-410v410h-409v2048h409v409h410v410h2048v-410h409v-409h410v-2048h-410v-410h-409v-409h-2048z" />
    <glyph glyph-name="uni2631" unicode="&#x2631;" horiz-adv-x="4095" 
d="M1228 1228v410h1229v-410h-1229zM1228 2048v409h1229v-409h-1229zM2457 819v409h410v410h-410v410h410v409h-410v410h-1638v-2048h1638zM819 0v409h-410v410h-409v2048h409v409h410v410h2048v-410h409v-409h410v-2048h-410v-410h-409v-409h-2048z" />
    <glyph glyph-name="uni2632" unicode="&#x2632;" horiz-adv-x="4095" 
d="M2867 819v409h-410v410h-409v410h409v409h410v410h-410v-410h-409v-409h-410v409h-410v410h-409v-410h409v-409h410v-410h-410v-410h-409v-409h409v409h410v410h410v-410h409v-409h410zM819 0v409h-410v410h-409v2048h409v409h410v410h2048v-410h409v-409h410v-2048h-410
v-410h-409v-409h-2048z" />
    <glyph glyph-name="uni2633" unicode="&#x2633;" horiz-adv-x="4095" 
d="M2048 819v1229h409v409h410v410h-410v-410h-409v-409h-410v409h-410v410h-409v-410h409v-409h410v-1229h410zM819 0v409h-410v410h-409v2048h409v409h410v410h2048v-410h409v-409h410v-2048h-410v-410h-409v-409h-2048z" />
    <glyph glyph-name="uni2634" unicode="&#x2634;" horiz-adv-x="4095" 
d="M2867 819v409h-1229v1639h-410v-2048h1639zM0 0v2457h409v410h410v409h409v410h2458v-3686h-3686z" />
    <glyph glyph-name="uni2635" unicode="&#x2635;" horiz-adv-x="4095" 
d="M1228 2048v409h1229v-409h-1229zM2867 819v409h-410v820h410v409h-410v410h-1638v-2048h409v819h820v-410h409v-409h410zM0 0v3686h2457v-410h410v-409h409v-410h410v-2457h-3686z" />
    <glyph glyph-name="uni2636" unicode="&#x2636;" horiz-adv-x="4095" 
d="M2048 409v410h-410v-410h410zM2048 1228v2048h-410v-2048h410zM0 0v3686h3686v-3686h-3686z" />
    <glyph glyph-name="uni2637" unicode="&#x2637;" horiz-adv-x="4095" 
d="M2048 409v410h-410v-410h410zM2048 1228v410h409v410h410v819h-410v409h-1229v-409h-409v-410h409v410h1229v-819h-409v-410h-410v-410h410zM0 0v3686h3686v-3686h-3686z" />
    <glyph glyph-name="uni2638" unicode="&#x2638;" horiz-adv-x="4095" 
d="M1228 819v409h1229v-409h-1229zM819 1228v410h409v-410h-409zM2457 1228v410h410v-410h-410zM1228 2048v819h410v-819h-410zM2048 2048v819h409v-819h-409zM3276 409v2867h-2867v-2867h2867zM0 0v3686h3686v-3686h-3686z" />
    <glyph glyph-name="uni2639" unicode="&#x2639;" horiz-adv-x="4095" 
d="M819 819v409h409v-409h-409zM2457 819v409h410v-409h-410zM1228 1228v410h1229v-410h-1229zM1228 2048v409h410v-409h-410zM2048 2048v409h409v-409h-409zM819 2457v410h409v-410h-409zM2457 2457v410h410v-410h-410zM3276 409v2867h-2867v-2867h2867zM0 0v3686h3686
v-3686h-3686z" />
    <glyph glyph-name="smileface" unicode="&#x263a;" horiz-adv-x="4095" 
d="M1638 819v409h410v-409h-410zM819 1638v410h409v-410h-409zM2457 1638v410h410v-410h-410zM1228 2048v409h410v-409h-410zM2048 2048v409h409v-409h-409zM3276 409v2867h-2867v-2867h2867zM0 0v3686h3686v-3686h-3686z" />
    <glyph glyph-name="invsmileface" unicode="&#x263b;" horiz-adv-x="4095" 
d="M1228 819v409h1229v-409h-1229zM819 2048v409h819v-409h-819zM2048 2048v409h819v-409h-819zM3276 409v2867h-2867v-2867h2867zM0 0v3686h3686v-3686h-3686z" />
    <glyph glyph-name="sun" unicode="&#x263c;" horiz-adv-x="4095" 
d="M1638 0v409h410v-409h-410zM409 409v410h410v-410h-410zM2867 409v410h409v-410h-409zM1228 819v409h1229v-409h-1229zM0 1638v410h409v-410h-409zM3276 1638v410h410v-410h-410zM819 1228v1229h409v-1229h-409zM2457 1228v1229h410v-1229h-410zM1228 2457v410h1229v-410
h-1229zM409 2867v409h410v-409h-410zM2867 2867v409h409v-409h-409zM1638 3276v410h410v-410h-410z" />
    <glyph glyph-name="female" unicode="&#x2640;" 
d="M819 0v819h-819v409h819v410h-410v410h1229v-410h-410v-410h820v-409h-820v-819h-409zM0 2048v1228h409v-1228h-409zM1638 2048v1228h410v-1228h-410zM409 3276v410h1229v-410h-1229z" />
    <glyph glyph-name="male" unicode="&#x2642;" horiz-adv-x="3686" 
d="M409 0v409h1229v-409h-1229zM0 409v1229h409v-1229h-409zM1638 409v1229h410v-1229h-410zM409 1638v410h1229v-410h-1229zM1638 2048v409h410v-409h-410zM2048 2457v410h409v-410h-409zM2867 2048v819h-410v409h-819v410h1638v-1638h-409z" />
    <glyph glyph-name="spade" unicode="&#x2660;" horiz-adv-x="4095" 
d="M819 0v409h409v410h410v409h-410v-409h-819v409h-409v820h409v409h410v410h409v409h410v410h410v-410h409v-409h410v-410h409v-409h410v-820h-410v-409h-819v409h-409v-409h409v-410h410v-409h-2048z" />
    <glyph glyph-name="uni2661" unicode="&#x2661;" horiz-adv-x="4095" 
d="M1638 0v409h410v-409h-410zM1228 409v410h410v-410h-410zM2048 409v410h409v-410h-409zM819 819v409h409v-409h-409zM2457 819v409h410v-409h-410zM409 1228v410h410v-410h-410zM2867 1228v410h409v-410h-409zM1638 2048v409h410v-409h-410zM0 1638v1229h409v-1229h-409z
M1228 2457v410h410v-410h-410zM2048 2457v410h409v-410h-409zM3276 1638v1229h410v-1229h-410zM409 2867v409h819v-409h-819zM2457 2867v409h819v-409h-819z" />
    <glyph glyph-name="uni2662" unicode="&#x2662;" horiz-adv-x="4095" 
d="M1638 0v409h410v-409h-410zM1228 409v410h410v-410h-410zM2048 409v410h409v-410h-409zM819 819v409h409v-409h-409zM2457 819v409h410v-409h-410zM409 1228v410h410v-410h-410zM2867 1228v410h409v-410h-409zM0 1638v410h409v-410h-409zM3276 1638v410h410v-410h-410z
M409 2048v409h410v-409h-410zM2867 2048v409h409v-409h-409zM819 2457v410h409v-410h-409zM2457 2457v410h410v-410h-410zM1228 2867v409h410v-409h-410zM2048 2867v409h409v-409h-409zM1638 3276v410h410v-410h-410z" />
    <glyph glyph-name="club" unicode="&#x2663;" horiz-adv-x="4095" 
d="M819 0v409h409v410h410v409h-410v-409h-819v409h-409v820h409v409h819v-409h410v409h-410v410h-409v409h409v410h1229v-410h410v-409h-410v-410h-409v-409h409v409h819v-409h410v-820h-410v-409h-819v409h-409v-409h409v-410h410v-409h-2048z" />
    <glyph glyph-name="uni2664" unicode="&#x2664;" horiz-adv-x="4095" 
d="M819 0v409h409v410h410v-410h410v410h409v-410h410v-409h-2048zM409 819v409h819v-409h-819zM1638 819v409h410v-409h-410zM2457 819v409h819v-409h-819zM1228 1228v410h410v-410h-410zM2048 1228v410h409v-410h-409zM0 1228v820h409v-820h-409zM3276 1228v820h410v-820
h-410zM409 2048v409h410v-409h-410zM2867 2048v409h409v-409h-409zM819 2457v410h409v-410h-409zM2457 2457v410h410v-410h-410zM1228 2867v409h410v-409h-410zM2048 2867v409h409v-409h-409zM1638 3276v410h410v-410h-410z" />
    <glyph glyph-name="heart" unicode="&#x2665;" horiz-adv-x="4095" 
d="M1638 0v409h-410v410h-409v409h-410v410h-409v1229h409v409h819v-409h410v-410h410v410h409v409h819v-409h410v-1229h-410v-410h-409v-409h-410v-410h-409v-409h-410z" />
    <glyph glyph-name="diamond" unicode="&#x2666;" horiz-adv-x="4095" 
d="M1638 0v409h-410v410h-409v409h-410v410h-409v410h409v409h410v410h409v409h410v410h410v-410h409v-409h410v-410h409v-409h410v-410h-410v-410h-409v-409h-410v-410h-409v-409h-410z" />
    <glyph glyph-name="uni2667" unicode="&#x2667;" horiz-adv-x="4095" 
d="M819 0v409h409v410h410v-410h410v410h409v-410h410v-409h-2048zM409 819v409h819v-409h-819zM1638 819v409h410v-409h-410zM2457 819v409h819v-409h-819zM0 1228v820h409v-820h-409zM1228 1228v820h410v-820h-410zM2048 1228v820h409v-820h-409zM3276 1228v820h410v-820
h-410zM409 2048v409h819v-409h-819zM1638 2048v409h410v-409h-410zM2457 2048v409h819v-409h-819zM1228 2457v410h410v-410h-410zM2048 2457v410h409v-410h-409zM819 2867v409h409v-409h-409zM2457 2867v409h410v-409h-410zM1228 3276v410h1229v-410h-1229z" />
    <glyph glyph-name="uni2668" unicode="&#x2668;" horiz-adv-x="4095" 
d="M0 0v409h409v-409h-409zM3276 0v409h410v-409h-410zM409 409v410h410v-410h-410zM1638 0v819h410v-819h-410zM2867 409v410h409v-410h-409zM819 819v409h409v-409h-409zM2457 819v409h410v-409h-410zM1228 1228v410h410v-410h-410zM2048 1228v410h409v-410h-409zM0 1638
v410h819v-410h-819zM1638 1638v410h410v-410h-410zM2867 1638v410h819v-410h-819zM1228 2048v409h410v-409h-410zM2048 2048v409h409v-409h-409zM819 2457v410h409v-410h-409zM2457 2457v410h410v-410h-410zM409 2867v409h410v-409h-410zM2867 2867v409h409v-409h-409z
M0 3276v410h409v-410h-409zM1638 2867v819h410v-819h-410zM3276 3276v410h410v-410h-410z" />
    <glyph glyph-name="uni2669" unicode="&#x2669;" horiz-adv-x="1638" 
d="M0 0v819h409v409h410v2458h409v-3277h-409v-409h-819z" />
    <glyph glyph-name="musicalnote" unicode="&#x266a;" horiz-adv-x="2867" 
d="M1638 819v409h410v-409h-410zM2048 1228v1229h409v-1229h-409zM1638 2457v410h410v-410h-410zM0 0v819h409v409h410v2458h409v-410h410v-409h-410v-2458h-409v-409h-819z" />
    <glyph glyph-name="uni266D" unicode="&#x266d;" horiz-adv-x="2048" 
d="M819 409v410h409v-410h-409zM1228 819v819h410v-819h-410zM0 0v3686h409v-1638h819v-410h-819v-1229h410v-409h-819z" />
    <glyph glyph-name="uni266F" unicode="&#x266f;" horiz-adv-x="3276" 
d="M1638 1228v1229h-410v-1229h410zM409 0v819h-409v409h819v1229h-410v410h819v819h410v-819h410v819h409v-819h410v-410h-819v-1229h409v-409h-819v-819h-410v819h-409v-819h-410z" />
    <glyph glyph-name="uni2709" unicode="&#x2709;" horiz-adv-x="4095" 
d="M1638 1228v410h410v-410h-410zM1228 1638v410h410v-410h-410zM2048 1638v410h409v-410h-409zM819 2048v409h409v-409h-409zM2457 2048v409h410v-409h-410zM3276 819v1638h-409v410h-2048v-410h-410v-1638h2867zM0 409v2867h3686v-2867h-3686z" />
    <glyph glyph-name="uni2715" unicode="&#x2715;" horiz-adv-x="4095" 
d="M0 0v409h409v-409h-409zM3276 0v409h410v-409h-410zM409 409v410h410v-410h-410zM2867 409v410h409v-410h-409zM819 819v409h409v-409h-409zM2457 819v409h410v-409h-410zM1228 1228v410h410v-410h-410zM2048 1228v410h409v-410h-409zM1638 1638v410h410v-410h-410z
M1228 2048v409h410v-409h-410zM2048 2048v409h409v-409h-409zM819 2457v410h409v-410h-409zM2457 2457v410h410v-410h-410zM409 2867v409h410v-409h-410zM2867 2867v409h409v-409h-409zM0 3276v410h409v-410h-409zM3276 3276v410h410v-410h-410z" />
    <glyph glyph-name="uni2716" unicode="&#x2716;" horiz-adv-x="4095" 
d="M0 0v819h409v409h410v410h409v410h-409v409h-410v410h-409v819h819v-410h409v-409h410v-410h410v410h409v409h410v410h819v-819h-410v-410h-409v-409h-410v-410h410v-410h409v-409h410v-819h-819v409h-410v410h-409v409h-410v-409h-410v-410h-409v-409h-819z" />
    <glyph glyph-name="uni2719" unicode="&#x2719;" horiz-adv-x="4095" 
d="M2048 409v819h-410v-819h410zM1228 1638v410h-819v-410h819zM2048 1638v410h-410v-410h410zM3276 1638v410h-819v-410h819zM2048 2457v819h-410v-819h410zM1228 0v1228h-1228v1229h1228v1229h1229v-1229h1229v-1229h-1229v-1228h-1229z" />
    <glyph glyph-name="uni271A" unicode="&#x271a;" horiz-adv-x="4095" 
d="M1228 0v1228h-1228v1229h1228v1229h1229v-1229h1229v-1229h-1229v-1228h-1229z" />
    <glyph glyph-name="uni271B" unicode="&#x271b;" horiz-adv-x="4095" 
d="M1228 0v1228h1229v-1228h-1229zM0 1228v1229h1228v-1229h-1228zM2457 1228v1229h1229v-1229h-1229zM1228 2457v1229h1229v-1229h-1229z" />
    <glyph glyph-name="uni271C" unicode="&#x271c;" horiz-adv-x="4095" 
d="M2048 1638v410h-410v-410h410zM1228 0v1228h-1228v1229h1228v1229h1229v-1229h1229v-1229h-1229v-1228h-1229z" />
    <glyph glyph-name="uni272B" unicode="&#x272b;" horiz-adv-x="4095" 
d="M409 0v819h410v-410h409v-409h-819zM1228 409v410h410v-410h-410zM2048 409v410h409v-410h-409zM2457 0v409h410v410h409v-819h-819zM1638 819v409h410v-409h-410zM819 819v819h409v-819h-409zM2457 819v819h410v-819h-410zM409 1638v410h-409v409h1228v410h410v-819
h-819v-410h-410zM2867 1638v410h-819v819h409v-410h1229v-409h-410v-410h-409zM1638 2867v819h410v-819h-410z" />
    <glyph glyph-name="uni272C" unicode="&#x272c;" horiz-adv-x="4095" 
d="M409 0v819h410v819h-410v410h-409v409h1228v410h410v819h410v-819h409v-410h1229v-409h-410v-410h-409v-819h409v-819h-819v409h-409v410h-410v-410h-410v-409h-819z" />
    <glyph glyph-name="uni2731" unicode="&#x2731;" horiz-adv-x="4095" 
d="M819 0v409h-410v410h-409v2048h409v409h410v410h2048v-410h409v-409h410v-2048h-410v-410h-409v-409h-2048z" />
    <glyph glyph-name="uni2732" unicode="&#x2732;" horiz-adv-x="4095" 
d="M819 0v409h2048v-409h-2048zM409 409v410h410v-410h-410zM2867 409v410h409v-410h-409zM0 819v2048h409v-2048h-409zM3276 819v2048h410v-2048h-410zM409 2867v409h410v-409h-410zM2867 2867v409h409v-409h-409zM819 3276v410h2048v-410h-2048z" />
    <glyph glyph-name="uni2733" unicode="&#x2733;" horiz-adv-x="4095" 
d="M819 0v409h2048v-409h-2048zM409 409v410h410v-410h-410zM2867 409v410h409v-410h-409zM1228 819v409h1229v-409h-1229zM819 1228v1229h409v-1229h-409zM2457 1228v1229h410v-1229h-410zM0 819v2048h409v-2048h-409zM1228 2457v410h1229v-410h-1229zM3276 819v2048h410
v-2048h-410zM409 2867v409h410v-409h-410zM2867 2867v409h409v-409h-409zM819 3276v410h2048v-410h-2048z" />
    <glyph glyph-name="uni275A" unicode="&#x275a;" 
d="M0 0v3686h2048v-3686h-2048z" />
    <glyph glyph-name="uni2794" unicode="&#x2794;" horiz-adv-x="4095" 
d="M819 0v409h409v410h410v409h-1638v1229h1638v410h-410v409h-409v410h1229v-410h409v-409h410v-410h409v-409h410v-410h-410v-410h-409v-409h-410v-410h-409v-409h-1229z" />
    <glyph glyph-name="uni2795" unicode="&#x2795;" horiz-adv-x="4095" 
d="M1638 0v409h-410v410h-409v409h-410v410h-409v410h409v409h410v410h409v409h410v410h1229v-410h-410v-409h-409v-410h1638v-1229h-1638v-409h409v-410h410v-409h-1229z" />
    <glyph glyph-name="uni2796" unicode="&#x2796;" horiz-adv-x="4095" 
d="M1228 0v1638h-409v-410h-410v-409h-409v1229h409v409h410v410h409v409h410v410h410v-410h409v-409h410v-410h409v-409h410v-1229h-410v409h-409v410h-410v-1638h-1229z" />
    <glyph glyph-name="uni2797" unicode="&#x2797;" horiz-adv-x="4095" 
d="M1638 0v409h-410v410h-409v409h-410v410h-409v1229h409v-410h410v-409h409v1638h1229v-1638h410v409h409v410h410v-1229h-410v-410h-409v-409h-410v-410h-409v-409h-410z" />
    <glyph glyph-name="uni3001" unicode="&#x3001;" horiz-adv-x="4096" 
d="M409 0v819h410v-819h-410zM0 819v409h409v-409h-409z" />
    <glyph glyph-name="uni3002" unicode="&#x3002;" horiz-adv-x="4096" 
d="M409 0v409h819v-409h-819zM0 409v819h409v-819h-409zM1228 409v819h410v-819h-410zM409 1228v410h819v-410h-819z" />
    <glyph glyph-name="uni300C" unicode="&#x300c;" horiz-adv-x="4096" 
d="M1638 819v2867h1638v-410h-1228v-2457h-410z" />
    <glyph glyph-name="uni300D" unicode="&#x300d;" horiz-adv-x="4096" 
d="M409 0v409h1229v2458h410v-2867h-1639z" />
    <glyph glyph-name="uni300E" unicode="&#x300e;" horiz-adv-x="4096" 
d="M2048 1228v1639h819v409h-1229v-2048h410zM1228 819v2867h2048v-1229h-819v-1638h-1229z" />
    <glyph glyph-name="uni300F" unicode="&#x300f;" horiz-adv-x="4095" 
d="M2048 409v2048h-410v-1638h-819v-410h1229zM409 0v1228h819v1639h1229v-2867h-2048z" />
    <glyph glyph-name="uni3012" unicode="&#x3012;" horiz-adv-x="4095" 
d="M1638 0v2048h-1638v409h3686v-409h-1638v-2048h-410zM0 3276v410h3686v-410h-3686z" />
    <glyph glyph-name="uni301C" unicode="&#x301c;" horiz-adv-x="4095" 
d="M2048 1638v410h1228v-410h-1228zM0 2048v409h409v-409h-409zM1638 2048v409h410v-409h-410zM3276 2048v409h410v-409h-410zM409 2457v410h1229v-410h-1229z" />
    <glyph glyph-name="uni3030" unicode="&#x3030;" horiz-adv-x="4095" 
d="M0 1638v410h409v-410h-409zM2048 1638v410h1228v-410h-1228zM409 2048v409h1639v-409h-1639zM3276 2048v409h410v-409h-410z" />
    <glyph glyph-name="uni3041" unicode="&#x3041;" horiz-adv-x="4096" 
d="M819 0v409h819v-409h-819zM2048 0v409h819v-409h-819zM1638 409v410h410v-410h-410zM409 409v1229h410v-1229h-410zM2867 409v1229h409v-1229h-409zM1228 819v819h-409v410h409v409h-409v410h409v409h410v-409h1229v-410h-1229v-409h1229v-410h-410v-819h-409v819h-410
v-819h-410z" />
    <glyph glyph-name="uni3042" unicode="&#x3042;" horiz-adv-x="4095" 
d="M409 0v409h819v-409h-819zM1638 0v409h410v-409h-410zM2457 0v409h410v-409h-410zM2867 409v410h409v-410h-409zM0 409v1229h409v-1229h-409zM3276 819v819h410v-819h-410zM409 1638v410h410v-410h-410zM2867 1638v410h409v-410h-409zM1228 409v1639h-409v409h409v410
h-1228v409h1228v410h410v-410h1638v-409h-1638v-410h1229v-409h-410v-820h-409v820h-410v-820h410v-409h-410v-410h-410z" />
    <glyph glyph-name="uni3043" unicode="&#x3043;" horiz-adv-x="4096" 
d="M819 0v409h819v-409h-819zM1638 409v819h410v-819h-410zM2867 409v1229h409v-1229h-409zM409 409v2048h410v-2048h-410zM2457 1638v819h410v-819h-410zM819 2457v410h409v-410h-409z" />
    <glyph glyph-name="uni3044" unicode="&#x3044;" horiz-adv-x="4095" 
d="M819 0v409h409v-409h-409zM409 409v410h410v-410h-410zM1228 409v819h410v-819h-410zM3276 819v1229h410v-1229h-410zM0 819v2048h409v-2048h-409zM2867 2048v819h409v-819h-409zM409 2867v409h410v-409h-410zM2457 2867v409h410v-409h-410z" />
    <glyph glyph-name="uni3045" unicode="&#x3045;" horiz-adv-x="4096" 
d="M1228 0v409h820v-409h-820zM2048 409v410h409v-410h-409zM819 1638v410h409v-410h-409zM2457 819v1229h410v-1229h-410zM1228 2048v409h1229v-409h-1229zM1228 2867v409h1229v-409h-1229z" />
    <glyph glyph-name="uni3046" unicode="&#x3046;" horiz-adv-x="4096" 
d="M1228 0v409h820v-409h-820zM2048 409v410h409v-410h-409zM409 2048v409h410v-409h-410zM2457 819v1638h410v-1638h-410zM819 2457v410h1638v-410h-1638zM819 3276v410h1638v-410h-1638z" />
    <glyph glyph-name="uni3047" unicode="&#x3047;" horiz-adv-x="4096" 
d="M0 0v409h819v-409h-819zM819 409v410h409v-410h-409zM2048 0v819h-820v819h410v-410h819v-819h819v-409h-1228zM1638 1638v410h-1229v409h2048v-409h-409v-410h-410zM819 2867v409h1229v-409h-1229z" />
    <glyph glyph-name="uni3048" unicode="&#x3048;" horiz-adv-x="4095" 
d="M409 0v409h410v-409h-410zM2457 0v409h1229v-409h-1229zM819 409v819h409v-819h-409zM1228 1228v410h410v-410h-410zM2048 409v1229h409v-1229h-409zM1638 1638v410h410v-410h-410zM2048 2048v409h-1639v410h2458v-410h-410v-409h-409zM819 3276v410h1638v-410h-1638z
" />
    <glyph glyph-name="uni3049" unicode="&#x3049;" horiz-adv-x="4096" 
d="M819 0v409h409v-409h-409zM2048 0v409h819v-409h-819zM409 409v819h410v-819h-410zM2867 409v1229h409v-1229h-409zM2867 2048v409h409v-409h-409zM1228 409v819h-409v410h409v819h-819v410h819v409h410v-409h1229v-410h-1229v-409h1229v-410h-1229v-1229h-410z" />
    <glyph glyph-name="uni304A" unicode="&#x304a;" horiz-adv-x="4095" 
d="M409 0v409h410v-409h-410zM2048 0v409h819v-409h-819zM0 409v1229h409v-1229h-409zM2867 409v1229h409v-1229h-409zM2457 1638v410h410v-410h-410zM3276 2457v410h410v-410h-410zM2867 2867v409h409v-409h-409zM819 409v1229h-410v410h410v819h-819v409h819v410h409v-410
h820v-409h-820v-410h1229v-409h-1229v-1639h-409zM2457 3276v410h410v-410h-410z" />
    <glyph glyph-name="uni304B" unicode="&#x304b;" horiz-adv-x="4095" 
d="M0 0v409h409v-409h-409zM1638 0v409h410v-409h-410zM1228 409v410h410v-410h-410zM409 409v1229h410v-1229h-410zM2048 409v2048h409v-2048h-409zM3276 1228v1229h410v-1229h-410zM2867 2457v819h409v-819h-409zM819 1638v819h-819v410h819v819h409v-819h820v-410h-820
v-819h-409zM2457 3276v410h410v-410h-410z" />
    <glyph glyph-name="uni304C" unicode="&#x304c;" horiz-adv-x="4095" 
d="M0 0v409h409v-409h-409zM1638 0v409h410v-409h-410zM1228 409v410h410v-410h-410zM409 409v1229h410v-1229h-410zM2048 409v2048h409v-2048h-409zM2867 1228v1229h409v-1229h-409zM2457 2457v819h410v-819h-410zM819 1638v819h-819v410h819v819h409v-819h820v-410h-820
v-819h-409zM2048 3276v410h409v-410h-409zM3276 2867v819h410v-819h-410z" />
    <glyph glyph-name="uni304D" unicode="&#x304d;" horiz-adv-x="4096" 
d="M819 0v409h1638v-409h-1638zM409 409v819h410v-819h-410zM2457 819v409h-1638v410h1229v410h-2048v409h1638v410h-1229v409h819v410h410v-410h819v-409h-409v-410h1228v-409h-819v-410h410v-819h-410z" />
    <glyph glyph-name="uni304E" unicode="&#x304e;" horiz-adv-x="4095" 
d="M819 0v409h1638v-409h-1638zM409 409v819h410v-819h-410zM2457 819v409h-1638v410h1229v410h-2048v409h1638v410h-1229v409h819v410h410v-410h819v410h410v-819h-819v-410h1228v-409h-819v-410h410v-819h-410zM3276 2867v819h410v-819h-410z" />
    <glyph glyph-name="uni304F" unicode="&#x304f;" horiz-adv-x="4095" 
d="M2048 0v409h409v-409h-409zM1638 409v410h410v-410h-410zM1228 819v409h410v-409h-410zM819 1228v410h409v-410h-409zM409 1638v819h410v-819h-410zM819 2457v410h409v-410h-409zM1228 2867v409h410v-409h-410zM1638 3276v410h410v-410h-410z" />
    <glyph glyph-name="uni3050" unicode="&#x3050;" horiz-adv-x="4095" 
d="M2048 0v409h409v-409h-409zM1638 409v410h410v-410h-410zM1228 819v409h410v-409h-410zM819 1228v410h409v-410h-409zM409 1638v819h410v-819h-410zM819 2457v410h409v-410h-409zM1228 2867v409h410v-409h-410zM2457 2457v819h410v-819h-410zM3276 2457v819h410v-819
h-410zM1638 3276v410h410v-410h-410z" />
    <glyph glyph-name="uni3051" unicode="&#x3051;" horiz-adv-x="4095" 
d="M409 0v409h410v-409h-410zM2048 0v409h409v-409h-409zM0 409v2867h409v-2867h-409zM409 3276v410h410v-410h-410zM2457 409v2048h-1638v410h1638v819h410v-819h819v-410h-819v-2048h-410z" />
    <glyph glyph-name="uni3052" unicode="&#x3052;" horiz-adv-x="4095" 
d="M409 0v409h410v-409h-410zM2048 0v409h409v-409h-409zM0 409v2867h409v-2867h-409zM409 3276v410h410v-410h-410zM2457 409v2048h-1638v410h1638v819h410v-819h409v819h410v-1229h-819v-2048h-410z" />
    <glyph glyph-name="uni3053" unicode="&#x3053;" horiz-adv-x="4096" 
d="M819 0v409h2457v-409h-2457zM409 409v1229h410v-1229h-410zM819 1638v410h409v-410h-409zM819 3276v410h2048v-410h-2048z" />
    <glyph glyph-name="uni3054" unicode="&#x3054;" horiz-adv-x="4095" 
d="M819 0v409h2457v-409h-2457zM409 409v1229h410v-1229h-410zM819 1638v410h409v-410h-409zM2457 2867v409h-1638v410h2048v-819h-410zM3276 2867v819h410v-819h-410z" />
    <glyph glyph-name="uni3055" unicode="&#x3055;" horiz-adv-x="4096" 
d="M819 0v409h2048v-409h-2048zM409 409v1229h410v-1229h-410zM2867 1228v410h409v-410h-409zM819 1638v410h1229v409h409v-409h410v-410h-2048zM1638 2457v410h-1229v409h1229v410h410v-410h1228v-409h-1228v-410h-410z" />
    <glyph glyph-name="uni3056" unicode="&#x3056;" horiz-adv-x="4095" 
d="M819 0v409h2048v-409h-2048zM409 409v1229h410v-1229h-410zM2867 1228v410h409v-410h-409zM819 1638v410h1229v409h409v-409h410v-410h-2048zM1638 2457v410h-1229v409h1229v410h410v-410h409v410h410v-819h-819v-410h-410zM3276 2867v819h410v-819h-410z" />
    <glyph glyph-name="uni3057" unicode="&#x3057;" horiz-adv-x="4096" 
d="M1228 0v409h1229v-409h-1229zM819 409v410h409v-410h-409zM2457 409v410h410v-410h-410zM2867 819v1229h409v-1229h-409zM409 819v2867h410v-2867h-410z" />
    <glyph glyph-name="uni3058" unicode="&#x3058;" horiz-adv-x="4096" 
d="M1228 0v409h1229v-409h-1229zM819 409v410h409v-410h-409zM2457 409v410h410v-410h-410zM2867 819v1229h409v-1229h-409zM409 819v2867h410v-2867h-410zM2048 2867v819h409v-819h-409zM2867 2867v819h409v-819h-409z" />
    <glyph glyph-name="uni3059" unicode="&#x3059;" horiz-adv-x="4095" 
d="M1638 0v409h819v-409h-819zM1228 1228v820h410v-820h-410zM2457 409v410h-819v409h819v820h-819v409h819v410h-2048v409h2048v410h410v-410h819v-409h-819v-2458h-410z" />
    <glyph glyph-name="uni305A" unicode="&#x305a;" horiz-adv-x="4095" 
d="M1638 0v409h819v-409h-819zM1228 1228v820h410v-820h-410zM2457 409v410h-819v409h819v820h-819v409h819v410h-2048v409h2048v410h410v-410h409v410h410v-819h-819v-2458h-410z" />
    <glyph glyph-name="uni305B" unicode="&#x305b;" horiz-adv-x="4095" 
d="M1228 0v409h2048v-409h-2048zM1638 819v409h819v-409h-819zM819 409v2048h-819v410h819v819h409v-819h1229v819h410v-819h819v-410h-819v-1229h-410v1229h-1229v-2048h-409z" />
    <glyph glyph-name="uni305C" unicode="&#x305c;" horiz-adv-x="4095" 
d="M1228 0v409h2048v-409h-2048zM1638 819v409h819v-409h-819zM819 409v2048h-819v410h819v819h409v-819h1229v819h410v-819h409v819h410v-1229h-819v-1229h-410v1229h-1229v-2048h-409z" />
    <glyph glyph-name="uni305D" unicode="&#x305d;" horiz-adv-x="4096" 
d="M1228 0v409h1639v-409h-1639zM819 409v1229h409v-1229h-409zM1228 1638v410h-1228v409h1638v410h410v-410h1228v-409h-1638v-410h-410zM2048 2867v409h-1639v410h2458v-410h-410v-409h-409z" />
    <glyph glyph-name="uni305E" unicode="&#x305e;" horiz-adv-x="4095" 
d="M1228 0v409h1639v-409h-1639zM819 409v1229h409v-1229h-409zM1228 1638v410h-1228v409h1638v410h410v-410h1228v-409h-1638v-410h-410zM2048 2867v409h-1639v410h2458v-819h-819zM3276 2867v819h410v-819h-410z" />
    <glyph glyph-name="uni305F" unicode="&#x305f;" horiz-adv-x="4095" 
d="M2048 0v409h1638v-409h-1638zM409 0v819h410v-819h-410zM1638 409v819h410v-819h-410zM2048 1228v410h409v-410h-409zM819 819v1229h409v-1229h-409zM2048 2048v409h1638v-409h-1638zM1228 2048v819h-1228v409h1228v410h410v-410h1229v-409h-1229v-819h-410z" />
    <glyph glyph-name="uni3060" unicode="&#x3060;" horiz-adv-x="4095" 
d="M2048 0v409h1638v-409h-1638zM409 0v819h410v-819h-410zM1638 409v819h410v-819h-410zM2048 1228v410h409v-410h-409zM819 819v1229h409v-1229h-409zM2048 2048v409h1638v-409h-1638zM1228 2048v819h-1228v409h1228v410h410v-410h819v410h410v-819h-1229v-819h-410z
M3276 2867v819h410v-819h-410z" />
    <glyph glyph-name="uni3061" unicode="&#x3061;" horiz-adv-x="4096" 
d="M1228 0v409h1229v-409h-1229zM2457 409v410h410v-410h-410zM2867 819v819h409v-819h-409zM0 819v819h409v819h410v-409h2048v-410h-2048v-410h-410v-409h-409zM819 2457v410h-819v409h819v410h409v-410h1639v-409h-1639v-410h-409z" />
    <glyph glyph-name="uni3062" unicode="&#x3062;" horiz-adv-x="4095" 
d="M1228 0v409h1229v-409h-1229zM2457 409v410h410v-410h-410zM2867 819v819h409v-819h-409zM0 819v819h409v819h410v-409h2048v-410h-2048v-410h-410v-409h-409zM819 2457v410h-819v409h819v410h409v-410h1229v410h410v-819h-1639v-410h-409zM3276 2867v819h410v-819h-410z
" />
    <glyph glyph-name="uni3063" unicode="&#x3063;" horiz-adv-x="4096" 
d="M1228 0v409h1229v-409h-1229zM2457 409v410h410v-410h-410zM409 1638v410h819v-410h-819zM2867 819v1229h409v-1229h-409zM1228 2048v409h1639v-409h-1639z" />
    <glyph glyph-name="uni3064" unicode="&#x3064;" horiz-adv-x="4096" 
d="M819 0v409h1638v-409h-1638zM2457 409v410h410v-410h-410zM2867 819v1638h409v-1638h-409zM0 2457v410h1228v-410h-1228zM2457 2457v410h410v-410h-410zM1228 2867v409h1229v-409h-1229z" />
    <glyph glyph-name="uni3065" unicode="&#x3065;" horiz-adv-x="4095" 
d="M819 0v409h1638v-409h-1638zM2457 409v410h410v-410h-410zM0 2457v410h1228v-410h-1228zM2867 819v2048h409v-2048h-409zM1228 2867v409h1229v410h410v-819h-1639zM3276 2867v819h410v-819h-410z" />
    <glyph glyph-name="uni3066" unicode="&#x3066;" horiz-adv-x="4096" 
d="M1638 0v409h1229v-409h-1229zM1228 409v410h410v-410h-410zM819 819v1638h409v-1638h-409zM1228 2457v410h-1228v409h3276v-409h-1638v-410h-410z" />
    <glyph glyph-name="uni3067" unicode="&#x3067;" horiz-adv-x="4095" 
d="M1638 0v409h1229v-409h-1229zM1228 409v410h410v-410h-410zM819 819v1638h409v-1638h-409zM1228 2457v410h-1228v409h2457v410h410v-819h-1229v-410h-410zM3276 2867v819h410v-819h-410z" />
    <glyph glyph-name="uni3068" unicode="&#x3068;" horiz-adv-x="4096" 
d="M819 0v409h2457v-409h-2457zM409 409v1229h410v-1229h-410zM819 1638v819h409v-409h410v-410h-819zM1638 2048v409h819v-409h-819zM2457 2457v410h819v-410h-819zM409 2457v1229h410v-1229h-410z" />
    <glyph glyph-name="uni3069" unicode="&#x3069;" horiz-adv-x="4095" 
d="M819 0v409h2457v-409h-2457zM409 409v1229h410v-1229h-410zM819 1638v819h409v-409h410v-410h-819zM1638 2048v409h819v-409h-819zM409 2457v1229h410v-1229h-410zM2457 2457v1229h410v-819h409v-410h-819zM3276 2867v819h410v-819h-410z" />
    <glyph glyph-name="uni306A" unicode="&#x306a;" horiz-adv-x="4095" 
d="M1638 0v409h819v-409h-819zM3276 409v410h410v-410h-410zM0 409v819h409v-819h-409zM1228 409v819h410v-819h-410zM409 1228v820h410v-820h-410zM2457 409v819h-819v410h819v410h410v-820h409v-409h-409v-410h-410zM3276 2048v409h410v-409h-410zM2867 2457v410h409v-410
h-409zM2457 2867v409h410v-409h-410zM819 2048v819h-819v409h819v410h409v-410h820v-409h-820v-819h-409z" />
    <glyph glyph-name="uni306B" unicode="&#x306b;" horiz-adv-x="4096" 
d="M409 0v409h410v-409h-410zM1638 0v409h1638v-409h-1638zM1228 409v819h410v-819h-410zM1638 1228v410h410v-410h-410zM0 409v2867h409v-2867h-409zM1638 2867v409h1638v-409h-1638zM409 3276v410h410v-410h-410z" />
    <glyph glyph-name="uni306C" unicode="&#x306c;" horiz-adv-x="4095" 
d="M409 0v409h819v-409h-819zM2457 0v409h410v-409h-410zM2048 409v819h409v-819h-409zM3276 0v409h-409v819h409v-409h410v-819h-410zM1228 409v1229h410v-1229h-410zM2457 1228v410h410v-410h-410zM0 409v2048h409v-2048h-409zM1638 1638v819h410v-819h-410zM3276 1228
v1229h410v-1229h-410zM2867 2457v410h409v-410h-409zM819 1638v819h-410v410h410v819h409v-410h820v410h409v-410h410v-409h-410v-410h-409v410h-820v-1229h-409z" />
    <glyph glyph-name="uni306D" unicode="&#x306d;" horiz-adv-x="4095" 
d="M2048 0v409h819v-409h-819zM1638 409v819h410v-819h-410zM0 819v819h409v-819h-409zM2867 409v819h-819v410h819v1638h409v-2048h410v-409h-410v-410h-409zM819 0v1638h-410v410h410v819h-819v409h819v410h409v-410h410v-409h-410v-2867h-409zM1638 3276v410h1229v-410
h-1229z" />
    <glyph glyph-name="uni306E" unicode="&#x306e;" horiz-adv-x="4095" 
d="M819 0v409h819v-409h-819zM2457 0v409h410v-409h-410zM409 409v410h410v-410h-410zM2867 409v410h409v-410h-409zM0 819v1229h409v-1229h-409zM409 2048v819h410v-819h-410zM3276 819v2048h410v-2048h-410zM819 2867v409h409v-409h-409zM2867 2867v409h409v-409h-409z
M1638 409v2867h-410v410h1639v-410h-819v-2867h-410z" />
    <glyph glyph-name="uni306F" unicode="&#x306f;" horiz-adv-x="4095" 
d="M1638 0v409h819v-409h-819zM409 0v819h410v-819h-410zM3276 409v410h410v-410h-410zM1228 409v819h410v-819h-410zM0 819v2048h409v-2048h-409zM409 2867v819h410v-819h-410zM2457 409v819h-819v410h819v819h-1229v410h1229v819h410v-819h819v-410h-819v-1229h409v-409
h-409v-410h-410z" />
    <glyph glyph-name="uni3070" unicode="&#x3070;" horiz-adv-x="4095" 
d="M1638 0v409h819v-409h-819zM409 0v819h410v-819h-410zM3276 409v410h410v-410h-410zM1228 409v819h410v-819h-410zM0 819v2048h409v-2048h-409zM409 2867v819h410v-819h-410zM2457 409v819h-819v410h819v819h-1229v410h1229v819h410v-819h409v819h410v-1229h-819v-1229
h409v-409h-409v-410h-410z" />
    <glyph glyph-name="uni3071" unicode="&#x3071;" horiz-adv-x="4095" 
d="M1638 0v409h819v-409h-819zM409 0v819h410v-819h-410zM3276 409v410h410v-410h-410zM1228 409v819h410v-819h-410zM0 819v2048h409v-2048h-409zM409 2867v819h410v-819h-410zM2457 409v819h-819v410h819v819h-1229v410h1229v819h819v-410h-409v-409h409v409h410v-819
h-819v-1229h409v-409h-409v-410h-410z" />
    <glyph glyph-name="uni3072" unicode="&#x3072;" horiz-adv-x="4095" 
d="M1228 0v409h1229v-409h-1229zM819 409v410h409v-410h-409zM2457 409v410h410v-410h-410zM409 819v1638h410v-1638h-410zM2867 819v2048h409v-410h410v-409h-410v-1229h-409zM2457 2867v409h410v-409h-410zM819 2457v819h-819v410h1638v-410h-410v-819h-409z" />
    <glyph glyph-name="uni3073" unicode="&#x3073;" horiz-adv-x="4095" 
d="M1228 0v409h1229v-409h-1229zM819 409v410h409v-410h-409zM2457 409v410h410v-410h-410zM409 819v1638h410v-1638h-410zM2867 819v2048h409v-410h410v-409h-410v-1229h-409zM819 2457v819h-819v410h1638v-410h-410v-819h-409zM2457 2867v819h410v-819h-410zM3276 2867
v819h410v-819h-410z" />
    <glyph glyph-name="uni3074" unicode="&#x3074;" horiz-adv-x="4095" 
d="M1228 0v409h1229v-409h-1229zM819 409v410h409v-410h-409zM2457 409v410h410v-410h-410zM409 819v1638h410v-1638h-410zM2867 819v2048h409v-410h410v-409h-410v-1229h-409zM2457 2867v409h410v-409h-410zM3276 2867v409h410v-409h-410zM819 2457v819h-819v410h1638v-410
h-410v-819h-409zM2867 3276v410h409v-410h-409z" />
    <glyph glyph-name="uni3075" unicode="&#x3075;" horiz-adv-x="4095" 
d="M1228 0v409h1229v-409h-1229zM819 409v410h409v-410h-409zM0 409v819h409v-819h-409zM2457 409v1229h410v-1229h-410zM409 1228v820h410v-820h-410zM2048 1638v410h409v-410h-409zM3276 819v1229h410v-1229h-410zM2867 2048v409h409v-409h-409zM1638 2048v819h410v-819
h-410zM2048 2867v409h-1229v410h2048v-410h-410v-409h-409z" />
    <glyph glyph-name="uni3076" unicode="&#x3076;" horiz-adv-x="4095" 
d="M1228 0v409h1229v-409h-1229zM819 409v410h409v-410h-409zM0 409v819h409v-819h-409zM2457 409v1229h410v-1229h-410zM409 1228v820h410v-820h-410zM2048 1638v410h409v-410h-409zM3276 819v1229h410v-1229h-410zM2867 2048v409h409v-409h-409zM1638 2048v819h410v-819
h-410zM2048 2867v409h-1229v410h2048v-819h-819zM3276 2867v819h410v-819h-410z" />
    <glyph glyph-name="uni3077" unicode="&#x3077;" horiz-adv-x="4095" 
d="M1228 0v409h1229v-409h-1229zM819 409v410h409v-410h-409zM0 409v819h409v-819h-409zM2457 409v1229h410v-1229h-410zM3276 819v819h410v-819h-410zM409 1228v820h410v-820h-410zM2048 1638v410h409v-410h-409zM2867 1638v410h409v-410h-409zM1638 2048v819h410v-819
h-410zM2867 2457v410h409v-410h-409zM3276 2867v409h410v-409h-410zM2048 2867v409h-1229v410h1638v-410h410v-409h-819zM2867 3276v410h409v-410h-409z" />
    <glyph glyph-name="uni3078" unicode="&#x3078;" horiz-adv-x="4095" 
d="M3276 0v409h410v-409h-410zM2867 409v410h409v-410h-409zM0 819v409h409v-409h-409zM2457 819v819h410v-819h-410zM409 1228v820h410v-820h-410zM2048 1638v410h409v-410h-409zM819 2048v819h409v-819h-409zM1638 2048v819h410v-819h-410zM1228 2867v409h410v-409h-410z
" />
    <glyph glyph-name="uni3079" unicode="&#x3079;" horiz-adv-x="4095" 
d="M3276 0v409h410v-409h-410zM2867 409v410h409v-410h-409zM0 819v409h409v-409h-409zM2457 819v819h410v-819h-410zM409 1228v820h410v-820h-410zM2048 1638v410h409v-410h-409zM819 2048v819h409v-819h-409zM1638 2048v819h410v-819h-410zM1228 2867v409h410v-409h-410z
M2457 2867v819h410v-819h-410zM3276 2867v819h410v-819h-410z" />
    <glyph glyph-name="uni307A" unicode="&#x307a;" horiz-adv-x="4095" 
d="M3276 0v409h410v-409h-410zM2867 409v410h409v-410h-409zM0 819v409h409v-409h-409zM2457 819v819h410v-819h-410zM409 1228v820h410v-820h-410zM2048 1638v410h409v-410h-409zM819 2048v819h409v-819h-409zM1638 2048v819h410v-819h-410zM2867 2457v410h409v-410h-409z
M1228 2867v409h410v-409h-410zM2457 2867v409h410v-409h-410zM3276 2867v409h410v-409h-410zM2867 3276v410h409v-410h-409z" />
    <glyph glyph-name="uni307B" unicode="&#x307b;" horiz-adv-x="4095" 
d="M1638 0v409h819v-409h-819zM409 0v819h410v-819h-410zM3276 409v410h410v-410h-410zM1228 409v819h410v-819h-410zM0 819v2048h409v-2048h-409zM2457 409v819h-819v410h819v410h-1229v409h1229v410h-1229v409h2458v-409h-819v-410h819v-409h-819v-820h409v-409h-409v-410
h-410zM409 2867v819h410v-819h-410z" />
    <glyph glyph-name="uni307C" unicode="&#x307c;" horiz-adv-x="4095" 
d="M1638 0v409h819v-409h-819zM409 0v819h410v-819h-410zM3276 409v410h410v-410h-410zM1228 409v819h410v-819h-410zM0 819v2048h409v-2048h-409zM409 2867v819h410v-819h-410zM2457 409v819h-819v410h819v410h-1229v409h1229v410h-1229v409h1229v410h410v-1229h819v-409
h-819v-820h409v-409h-409v-410h-410zM3276 2867v819h410v-819h-410z" />
    <glyph glyph-name="uni307D" unicode="&#x307d;" horiz-adv-x="4095" 
d="M1638 0v409h819v-409h-819zM409 0v819h410v-819h-410zM3276 409v410h410v-410h-410zM1228 409v819h410v-819h-410zM0 819v2048h409v-2048h-409zM2457 409v819h-819v410h819v410h-1229v409h1229v410h-1229v409h1639v-409h409v-410h410v-409h-819v-820h409v-409h-409v-410
h-410zM3276 2867v409h410v-409h-410zM409 2867v819h410v-819h-410zM2867 3276v410h409v-410h-409z" />
    <glyph glyph-name="uni307E" unicode="&#x307e;" horiz-adv-x="4095" 
d="M819 0v409h1229v-409h-1229zM3276 409v410h410v-410h-410zM409 409v819h410v-819h-410zM2048 409v819h-1229v410h1229v410h-1639v409h1639v410h-1639v409h1639v410h409v-410h819v-409h-819v-410h1229v-409h-1229v-820h819v-409h-819v-410h-409z" />
    <glyph glyph-name="uni307F" unicode="&#x307f;" horiz-adv-x="4095" 
d="M409 0v409h819v-409h-819zM2048 0v409h409v-409h-409zM2457 409v410h410v-410h-410zM1228 409v819h410v-819h-410zM0 409v1229h409v-1229h-409zM409 1638v410h410v-410h-410zM2867 819v1229h-819v-820h-410v820h-819v409h819v819h-1229v410h1639v-1229h819v410h409v-819
h410v-410h-410v-819h-409z" />
    <glyph glyph-name="uni3080" unicode="&#x3080;" horiz-adv-x="4095" 
d="M819 0v409h-410v410h819v-410h1639v-409h-2048zM2867 409v1229h409v-1229h-409zM0 819v1229h409v-1229h-409zM1228 819v1229h410v-1229h-410zM3276 2048v409h410v-409h-410zM2867 2457v410h409v-410h-409zM2457 2867v409h410v-409h-410zM409 2048v409h410v410h-819v409
h819v410h409v-410h820v-409h-820v-819h-819z" />
    <glyph glyph-name="uni3081" unicode="&#x3081;" horiz-adv-x="4095" 
d="M409 0v409h819v-409h-819zM1638 0v409h410v-409h-410zM2457 0v409h410v-409h-410zM1228 409v410h410v-410h-410zM2867 409v410h409v-410h-409zM1638 819v819h410v-819h-410zM0 409v2048h409v-2048h-409zM3276 819v1638h410v-1638h-410zM2867 2457v410h409v-410h-409z
M819 819v1638h-410v410h410v819h409v-410h820v410h409v-410h410v-409h-410v-1229h-409v1229h-820v-2048h-409z" />
    <glyph glyph-name="uni3082" unicode="&#x3082;" horiz-adv-x="4096" 
d="M1228 0v409h1229v-409h-1229zM819 409v410h409v-410h-409zM2457 409v410h410v-410h-410zM2867 819v409h409v-409h-409zM409 819v819h-409v410h409v819h-409v409h819v410h409v-410h820v-409h-1229v-819h1229v-410h-1229v-819h-410z" />
    <glyph glyph-name="uni3083" unicode="&#x3083;" horiz-adv-x="4096" 
d="M2048 819v409h819v-409h-819zM2867 1228v820h409v-820h-409zM2048 1638v410h-410v409h410v410h409v-410h410v-409h-410v-410h-409zM1228 0v1638h-819v410h410v1228h409v-1228h410v-2048h-410zM1638 2867v409h410v-409h-410z" />
    <glyph glyph-name="uni3084" unicode="&#x3084;" horiz-adv-x="4095" 
d="M1228 0v1228h410v-1228h-410zM2457 819v409h819v-409h-819zM2048 1228v410h409v-410h-409zM3276 1228v1639h410v-1639h-410zM819 1228v820h-819v409h409v1229h410v-819h819v-410h-410v-1229h-409zM2457 2048v819h-819v409h410v410h409v-410h819v-409h-409v-819h-410z" />
    <glyph glyph-name="uni3085" unicode="&#x3085;" horiz-adv-x="4096" 
d="M1228 819v409h410v-409h-410zM409 819v1638h410v-409h409v-410h-409v-819h-410zM1228 2048v409h410v-409h-410zM2867 819v1638h409v-1638h-409zM819 2457v410h409v-410h-409zM1638 0v819h410v1638h-410v410h410v409h409v-409h410v-410h-410v-1638h410v-410h-819v-409
h-410z" />
    <glyph glyph-name="uni3086" unicode="&#x3086;" horiz-adv-x="4095" 
d="M1638 0v409h410v-409h-410zM409 409v819h410v-819h-410zM819 1228v410h409v-410h-409zM2867 1228v410h409v-410h-409zM3276 1638v819h410v-819h-410zM0 1228v1639h409v-410h410v-409h-410v-820h-409zM819 2457v410h409v-410h-409zM2867 2457v410h409v-410h-409zM409 2867
v819h410v-819h-410zM2048 409v410h-820v409h820v1639h-820v409h820v410h409v-410h410v-409h-410v-1639h410v-409h-410v-410h-409z" />
    <glyph glyph-name="uni3087" unicode="&#x3087;" horiz-adv-x="4096" 
d="M819 0v409h819v-409h-819zM409 409v410h410v-410h-410zM2457 409v410h410v-410h-410zM1638 409v410h-819v409h819v2048h410v-819h819v-409h-819v-820h409v-409h-409v-410h-410z" />
    <glyph glyph-name="uni3088" unicode="&#x3088;" horiz-adv-x="4096" 
d="M409 0v409h1229v-409h-1229zM2867 409v410h409v-410h-409zM0 409v819h409v-819h-409zM1638 409v819h-1229v410h1229v2048h410v-819h1228v-410h-1228v-1229h819v-409h-819v-410h-410z" />
    <glyph glyph-name="uni3089" unicode="&#x3089;" horiz-adv-x="4096" 
d="M1228 0v409h1229v-409h-1229zM2457 409v410h410v-410h-410zM2867 819v819h409v-819h-409zM1228 1638v410h1639v-410h-1639zM409 819v1638h410v-819h409v-410h-409v-409h-410zM819 2457v410h409v-410h-409zM1638 2867v409h819v-409h-819zM819 3276v410h819v-410h-819z" />
    <glyph glyph-name="uni308A" unicode="&#x308a;" horiz-adv-x="4096" 
d="M1228 0v409h820v-409h-820zM2048 409v410h409v-410h-409zM1228 2867v409h410v-409h-410zM2457 819v2457h410v-2457h-410zM409 819v2867h410v-819h409v-410h-409v-1638h-410zM1638 3276v410h819v-410h-819z" />
    <glyph glyph-name="uni308B" unicode="&#x308b;" horiz-adv-x="4096" 
d="M409 409v410h410v-410h-410zM819 0v409h819v410h410v-410h409v-409h-1638zM2457 409v410h410v-410h-410zM819 819v409h819v-409h-819zM0 1228v410h409v-410h-409zM2867 819v819h409v-819h-409zM409 1638v410h410v-410h-410zM2457 1638v410h410v-410h-410zM819 2048v409
h409v410h410v-410h819v-409h-1638zM1638 2867v409h-1229v410h2458v-410h-819v-409h-410z" />
    <glyph glyph-name="uni308C" unicode="&#x308c;" horiz-adv-x="4095" 
d="M2867 0v409h819v-409h-819zM0 819v819h409v-819h-409zM2457 409v2458h410v-2458h-410zM1638 2867v409h819v-409h-819zM819 0v1638h-410v819h410v410h-819v409h819v410h409v-819h410v-410h-410v-2457h-409z" />
    <glyph glyph-name="uni308D" unicode="&#x308d;" horiz-adv-x="4095" 
d="M1228 0v409h1639v-409h-1639zM2867 409v410h409v-410h-409zM409 1228v410h410v-410h-410zM3276 819v819h410v-819h-410zM2867 1638v410h409v-410h-409zM819 1638v410h409v409h410v410h410v-410h819v-409h-1229v-410h-819zM2048 2867v409h-1229v410h2048v-410h-410v-409
h-409z" />
    <glyph glyph-name="uni308E" unicode="&#x308e;" horiz-adv-x="4096" 
d="M2048 0v409h819v-409h-819zM409 409v819h410v-819h-410zM2867 409v1639h409v-1639h-409zM1228 0v1228h-409v410h409v410h-819v409h819v819h410v-819h1229v-409h-1229v-2048h-410z" />
    <glyph glyph-name="uni308F" unicode="&#x308f;" horiz-adv-x="4095" 
d="M2048 0v409h819v-409h-819zM2867 409v410h409v-410h-409zM0 819v409h409v-409h-409zM3276 819v1638h410v-1638h-410zM1638 2457v410h410v-410h-410zM2867 2457v410h409v-410h-409zM2048 2867v409h819v-409h-819zM819 0v1228h-410v410h410v819h-819v410h819v819h409v-1229
h410v-409h-410v-2048h-409z" />
    <glyph glyph-name="uni3092" unicode="&#x3092;" horiz-adv-x="4096" 
d="M1228 0v409h2048v-409h-2048zM819 409v819h409v-819h-409zM2048 819v409h-820v410h820v410h1228v-410h-819v-819h-409zM409 1228v820h410v819h-819v409h1228v410h410v-410h1229v-409h-1639v-410h820v-409h-820v-410h-409v-410h-410z" />
    <glyph glyph-name="uni3093" unicode="&#x3093;" horiz-adv-x="4096" 
d="M2048 0v409h819v-409h-819zM0 0v1228h409v-1228h-409zM1638 409v1229h410v-1229h-410zM2867 409v1639h409v-1639h-409zM409 1228v1229h410v-409h819v-410h-819v-410h-410zM819 2457v819h409v-819h-409zM1228 3276v410h410v-410h-410z" />
    <glyph glyph-name="uni3094" unicode="&#x3094;" horiz-adv-x="4095" 
d="M1228 0v409h820v-409h-820zM2048 409v410h409v-410h-409zM409 2048v409h410v-409h-410zM2457 819v1638h410v-1638h-410zM819 2457v410h1638v-410h-1638zM2457 2867v409h-1638v410h2048v-819h-410zM3276 2867v819h410v-819h-410z" />
    <glyph glyph-name="uni3099" unicode="&#x3099;" horiz-adv-x="4095" 
d="M2457 2867v819h410v-819h-410zM3276 2867v819h410v-819h-410z" />
    <glyph glyph-name="uni309A" unicode="&#x309a;" horiz-adv-x="4095" 
d="M2867 2457v410h409v-410h-409zM2457 2867v409h410v-409h-410zM3276 2867v409h410v-409h-410zM2867 3276v410h409v-410h-409z" />
    <glyph glyph-name="uni309B" unicode="&#x309b;" horiz-adv-x="1638" 
d="M0 2867v819h409v-819h-409zM819 2867v819h409v-819h-409z" />
    <glyph glyph-name="uni309C" unicode="&#x309c;" horiz-adv-x="1638" 
d="M409 2457v410h410v-410h-410zM0 2867v409h409v-409h-409zM819 2867v409h409v-409h-409zM409 3276v410h410v-410h-410z" />
    <glyph glyph-name="uni30A0" unicode="&#x30a0;" horiz-adv-x="4096" 
d="M409 1228v410h2867v-410h-2867zM409 2457v410h2867v-410h-2867z" />
    <glyph glyph-name="uni30A1" unicode="&#x30a1;" horiz-adv-x="4096" 
d="M819 0v409h409v-409h-409zM1228 409v1639h410v-410h410v-410h-410v-819h-410zM2048 1638v410h409v-410h-409zM2457 2048v409h-2048v410h2458v-819h-410z" />
    <glyph glyph-name="uni30A2" unicode="&#x30a2;" horiz-adv-x="4096" 
d="M409 0v409h410v-409h-410zM819 409v819h409v-819h-409zM2048 1638v410h409v-410h-409zM2457 2048v409h410v-409h-410zM1228 1228v1639h410v-1639h-410zM2867 2457v819h-2867v410h3276v-1229h-409z" />
    <glyph glyph-name="uni30A3" unicode="&#x30a3;" horiz-adv-x="4096" 
d="M409 1228v410h819v-410h-819zM1638 0v1638h-410v410h410v409h410v-2457h-410zM2048 2457v410h409v-410h-409zM2457 2867v409h410v-409h-410z" />
    <glyph glyph-name="uni30A4" unicode="&#x30a4;" horiz-adv-x="4096" 
d="M0 1228v410h819v-410h-819zM819 1638v410h819v-410h-819zM2048 0v2048h-410v409h410v410h409v-2867h-409zM2457 2867v409h410v-409h-410zM2867 3276v410h409v-410h-409z" />
    <glyph glyph-name="uni30A5" unicode="&#x30a5;" horiz-adv-x="4096" 
d="M1228 0v409h820v-409h-820zM2048 409v410h409v-410h-409zM2457 819v1229h-1638v-820h-410v1229h819v819h410v-819h1229v-1638h-410z" />
    <glyph glyph-name="uni30A6" unicode="&#x30a6;" horiz-adv-x="4096" 
d="M1228 0v409h820v-409h-820zM2048 409v410h409v-410h-409zM2457 819v819h410v-819h-410zM0 1638v1229h1228v819h410v-819h1638v-1229h-409v819h-2458v-819h-409z" />
    <glyph glyph-name="uni30A7" unicode="&#x30a7;" horiz-adv-x="4096" 
d="M409 0v409h819v1639h-819v409h2458v-409h-1229v-1639h1229v-409h-2458z" />
    <glyph glyph-name="uni30A8" unicode="&#x30a8;" horiz-adv-x="4095" 
d="M0 0v409h1638v2458h-1229v409h2867v-409h-1228v-2458h1638v-409h-3686z" />
    <glyph glyph-name="uni30A9" unicode="&#x30a9;" horiz-adv-x="4096" 
d="M1228 0v409h820v-409h-820zM409 409v410h410v-410h-410zM819 819v409h409v-409h-409zM1228 1228v410h410v-410h-410zM2048 409v1229h-410v410h-1229v409h1639v819h409v-819h819v-409h-819v-1639h-409z" />
    <glyph glyph-name="uni30AA" unicode="&#x30aa;" horiz-adv-x="4096" 
d="M1228 0v409h820v-409h-820zM0 819v409h409v-409h-409zM409 1228v410h410v-410h-410zM819 1638v410h409v-410h-409zM1228 2048v409h410v-409h-410zM2048 409v2048h-410v410h-1638v409h2048v410h409v-410h819v-409h-819v-2458h-409z" />
    <glyph glyph-name="uni30AB" unicode="&#x30ab;" horiz-adv-x="4096" 
d="M0 0v409h409v-409h-409zM1638 0v409h1229v-409h-1229zM409 409v410h410v-410h-410zM819 819v819h409v-819h-409zM2867 409v2048h-1229v-819h-410v819h-1228v410h1228v819h410v-819h1638v-2458h-409z" />
    <glyph glyph-name="uni30AC" unicode="&#x30ac;" horiz-adv-x="4095" 
d="M0 0v409h409v-409h-409zM1638 0v409h1229v-409h-1229zM409 409v410h410v-410h-410zM819 819v819h409v-819h-409zM2867 409v2048h-1229v-819h-410v819h-1228v410h1228v819h410v-819h819v819h410v-819h409v-2458h-409zM3276 2867v819h410v-819h-410z" />
    <glyph glyph-name="uni30AD" unicode="&#x30ad;" horiz-adv-x="4095" 
d="M2048 0v1228h-2048v410h1638v819h-1638v410h1228v819h410v-819h1638v-410h-1228v-819h1638v-410h-1229v-1228h-409z" />
    <glyph glyph-name="uni30AE" unicode="&#x30ae;" horiz-adv-x="4095" 
d="M2048 0v1228h-2048v410h1638v819h-1638v410h1228v819h410v-819h819v819h410v-819h409v-410h-1228v-819h1638v-410h-1229v-1228h-409zM3276 2867v819h410v-819h-410z" />
    <glyph glyph-name="uni30AF" unicode="&#x30af;" horiz-adv-x="4096" 
d="M1228 0v409h820v-409h-820zM2048 409v410h409v-410h-409zM2457 819v819h410v-819h-410zM409 1638v410h410v-410h-410zM2867 1638v1229h-1639v-819h-409v1638h409v-410h2048v-1638h-409z" />
    <glyph glyph-name="uni30B0" unicode="&#x30b0;" horiz-adv-x="4095" 
d="M819 0v409h819v-409h-819zM1638 409v410h410v-410h-410zM2048 819v819h409v-819h-409zM0 1638v410h409v-410h-409zM2457 1638v1229h-1638v-819h-410v1638h410v-410h1638v410h410v-2048h-410zM3276 2867v819h410v-819h-410z" />
    <glyph glyph-name="uni30B1" unicode="&#x30b1;" horiz-adv-x="4095" 
d="M819 0v409h819v-409h-819zM1638 409v819h410v-819h-410zM0 1638v410h409v-410h-409zM409 2048v819h410v-819h-410zM2048 1228v1639h-1229v819h409v-410h2458v-409h-1229v-1639h-409z" />
    <glyph glyph-name="uni30B2" unicode="&#x30b2;" horiz-adv-x="4095" 
d="M819 0v409h819v-409h-819zM1638 409v819h410v-819h-410zM0 1638v410h409v-410h-409zM409 2048v819h410v-819h-410zM2048 1228v1639h-1229v819h409v-410h1229v410h410v-819h-410v-1639h-409zM3276 2867v819h410v-819h-410z" />
    <glyph glyph-name="uni30B3" unicode="&#x30b3;" horiz-adv-x="4096" 
d="M409 0v409h2458v2458h-2458v409h2867v-3276h-2867z" />
    <glyph glyph-name="uni30B4" unicode="&#x30b4;" horiz-adv-x="4095" 
d="M0 0v409h2457v2458h-2457v409h2457v410h410v-3686h-2867zM3276 2867v819h410v-819h-410z" />
    <glyph glyph-name="uni30B5" unicode="&#x30b5;" horiz-adv-x="4095" 
d="M1228 0v409h820v-409h-820zM2048 409v410h409v-410h-409zM2457 819v1638h-1229v-819h-409v819h-819v410h819v819h409v-819h1229v819h410v-819h819v-410h-819v-1638h-410z" />
    <glyph glyph-name="uni30B6" unicode="&#x30b6;" horiz-adv-x="4095" 
d="M1228 0v409h820v-409h-820zM2048 409v410h409v-410h-409zM2457 819v1638h-1229v-819h-409v819h-819v410h819v819h409v-819h1229v819h410v-819h409v819h410v-1229h-819v-1638h-410z" />
    <glyph glyph-name="uni30B7" unicode="&#x30b7;" horiz-adv-x="4095" 
d="M819 0v409h819v-409h-819zM1638 409v410h819v-410h-819zM2457 819v409h410v-409h-410zM2867 1228v410h409v-410h-409zM1228 1638v410h410v-410h-410zM409 2048v409h819v-409h-819zM3276 1638v1229h410v-1229h-410zM1638 2867v409h410v-409h-410zM819 3276v410h819v-410
h-819z" />
    <glyph glyph-name="uni30B8" unicode="&#x30b8;" horiz-adv-x="4095" 
d="M819 0v409h819v-409h-819zM1638 409v410h819v-410h-819zM2457 819v409h410v-409h-410zM2867 1228v410h409v-410h-409zM1228 1638v410h410v-410h-410zM409 2048v409h819v-409h-819zM1638 2867v409h410v-409h-410zM819 3276v410h819v-410h-819zM2457 2867v819h410v-819
h-410zM3276 1638v2048h410v-2048h-410z" />
    <glyph glyph-name="uni30B9" unicode="&#x30b9;" horiz-adv-x="4095" 
d="M409 0v409h410v-409h-410zM3276 0v409h410v-409h-410zM819 409v410h409v-410h-409zM2867 409v410h409v-410h-409zM1228 819v409h410v-409h-410zM2457 819v409h410v-409h-410zM1638 1228v410h410v410h409v-820h-819zM2457 2048v1228h-1638v410h2048v-1638h-410z" />
    <glyph glyph-name="uni30BA" unicode="&#x30ba;" horiz-adv-x="4095" 
d="M409 0v409h410v-409h-410zM3276 0v409h410v-409h-410zM819 409v410h409v-410h-409zM2867 409v410h409v-410h-409zM1228 819v409h410v-409h-410zM2457 819v409h410v-409h-410zM1638 1228v410h410v410h409v-820h-819zM2457 2048v1228h-1638v410h2048v-1638h-410zM3276 2867
v819h410v-819h-410z" />
    <glyph glyph-name="uni30BB" unicode="&#x30bb;" horiz-adv-x="4095" 
d="M1228 0v409h2458v-409h-2458zM2457 1228v410h410v-410h-410zM2867 1638v819h409v-819h-409zM3276 2457v410h-819v409h1229v-819h-410zM819 409v1639h-819v409h819v1229h409v-819h1229v-410h-1229v-2048h-409z" />
    <glyph glyph-name="uni30BC" unicode="&#x30bc;" horiz-adv-x="4095" 
d="M1228 0v409h2458v-409h-2458zM2457 1228v410h410v-410h-410zM2867 1638v819h409v-819h-409zM819 409v1639h-819v409h819v1229h409v-819h1229v-410h-1229v-2048h-409zM3276 2457v410h-819v819h410v-410h409v410h410v-1229h-410z" />
    <glyph glyph-name="uni30BD" unicode="&#x30bd;" horiz-adv-x="4095" 
d="M1228 0v409h1229v-409h-1229zM2457 409v410h410v-410h-410zM2867 819v819h409v-819h-409zM1228 1638v819h410v-819h-410zM819 2457v819h409v-819h-409zM409 3276v410h410v-410h-410zM3276 1638v2048h410v-2048h-410z" />
    <glyph glyph-name="uni30BE" unicode="&#x30be;" horiz-adv-x="4095" 
d="M819 0v409h1229v-409h-1229zM2048 409v410h409v-410h-409zM2457 819v819h410v-819h-410zM819 1638v819h409v-819h-409zM2867 1638v1229h409v-1229h-409zM409 2457v819h410v-819h-410zM0 3276v410h409v-410h-409zM2457 2867v819h410v-819h-410zM3276 2867v819h410v-819
h-410z" />
    <glyph glyph-name="uni30BF" unicode="&#x30bf;" horiz-adv-x="4096" 
d="M819 0v409h819v-409h-819zM1638 409v410h410v-410h-410zM2048 819v409h409v-409h-409zM2867 819v409h409v-409h-409zM409 1638v410h410v-410h-410zM2457 1228v410h-409v410h819v-820h-410zM1638 2048v409h410v-409h-410zM819 2048v819h409v-819h-409zM2867 2048v1228
h-1229v-409h-410v819h2048v-1638h-409z" />
    <glyph glyph-name="uni30C0" unicode="&#x30c0;" horiz-adv-x="4095" 
d="M409 0v409h819v-409h-819zM1228 409v410h410v-410h-410zM1638 819v409h410v-409h-410zM2457 819v409h410v-409h-410zM0 1638v410h409v-410h-409zM2048 1228v410h-410v410h819v-820h-409zM1228 2048v409h410v-409h-410zM409 2048v819h410v-819h-410zM2457 2048v1228h-1229
v-409h-409v819h2048v-1638h-410zM3276 2867v819h410v-819h-410z" />
    <glyph glyph-name="uni30C1" unicode="&#x30c1;" horiz-adv-x="4096" 
d="M409 0v409h819v-409h-819zM1228 409v410h410v-410h-410zM1638 819v819h-1638v410h1638v819h-1229v409h1639v-1228h1228v-410h-1228v-819h-410zM2048 3276v410h819v-410h-819z" />
    <glyph glyph-name="uni30C2" unicode="&#x30c2;" horiz-adv-x="4095" 
d="M409 0v409h819v-409h-819zM1228 409v410h410v819h-1638v410h1638v819h-1229v409h1639v-1228h1228v-410h-1228v-1229h-820zM2457 2867v409h-409v410h819v-819h-410zM3276 2867v819h410v-819h-410z" />
    <glyph glyph-name="uni30C3" unicode="&#x30c3;" horiz-adv-x="4096" 
d="M819 0v409h819v-409h-819zM1638 409v410h410v-410h-410zM2048 819v819h409v-819h-409zM819 1638v819h409v-819h-409zM409 2457v410h410v-410h-410zM1638 2048v819h410v-819h-410zM2457 1638v1229h410v-1229h-410zM1228 2867v409h410v-409h-410z" />
    <glyph glyph-name="uni30C4" unicode="&#x30c4;" horiz-adv-x="4096" 
d="M819 0v409h819v-409h-819zM1638 409v410h410v-410h-410zM2048 819v409h409v-409h-409zM2457 1228v820h410v-820h-410zM409 2048v1228h410v-1228h-410zM1228 2457v819h410v-819h-410zM0 3276v410h409v-410h-409zM819 3276v410h409v-410h-409zM2867 2048v1638h409v-1638
h-409z" />
    <glyph glyph-name="uni30C5" unicode="&#x30c5;" horiz-adv-x="4095" 
d="M819 0v409h819v-409h-819zM1638 409v410h410v-410h-410zM2048 819v409h409v-409h-409zM2457 1228v820h410v-820h-410zM2867 2048v819h409v-819h-409zM409 2048v1228h410v-1228h-410zM1228 2457v819h410v-819h-410zM0 3276v410h409v-410h-409zM819 3276v410h409v-410h-409
zM2457 2867v819h410v-819h-410zM3276 2867v819h410v-819h-410z" />
    <glyph glyph-name="uni30C6" unicode="&#x30c6;" horiz-adv-x="4096" 
d="M409 0v409h819v-409h-819zM1228 409v410h410v-410h-410zM1638 819v1229h-1638v409h3276v-409h-1228v-1229h-410zM409 3276v410h2458v-410h-2458z" />
    <glyph glyph-name="uni30C7" unicode="&#x30c7;" horiz-adv-x="4095" 
d="M409 0v409h819v-409h-819zM1228 409v410h410v-410h-410zM1638 819v1229h-1638v409h3276v-409h-1228v-1229h-410zM2457 2867v409h-2048v410h2458v-819h-410zM3276 2867v819h410v-819h-410z" />
    <glyph glyph-name="uni30C8" unicode="&#x30c8;" horiz-adv-x="4096" 
d="M2457 1228v410h410v-410h-410zM1638 1638v410h819v-410h-819zM819 0v3686h409v-1229h410v-409h-410v-2048h-409z" />
    <glyph glyph-name="uni30C9" unicode="&#x30c9;" horiz-adv-x="4095" 
d="M2457 1228v410h410v-410h-410zM1638 1638v410h819v-410h-819zM819 0v3686h409v-1229h410v-409h-410v-2048h-409zM2457 2867v819h410v-819h-410zM3276 2867v819h410v-819h-410z" />
    <glyph glyph-name="uni30CA" unicode="&#x30ca;" horiz-adv-x="4095" 
d="M409 0v409h819v-409h-819zM1228 409v410h410v-410h-410zM1638 819v1638h-1638v410h1638v819h410v-819h1638v-410h-1638v-1638h-410z" />
    <glyph glyph-name="uni30CB" unicode="&#x30cb;" horiz-adv-x="4096" 
d="M0 0v409h3276v-409h-3276zM409 2867v409h2458v-409h-2458z" />
    <glyph glyph-name="uni30CC" unicode="&#x30cc;" horiz-adv-x="4095" 
d="M409 0v409h819v-409h-819zM1228 409v410h820v-410h-820zM3276 409v410h410v-410h-410zM2048 819v409h409v-409h-409zM2867 819v409h409v-409h-409zM2457 1228v410h-409v410h819v-820h-410zM1638 2048v409h410v-409h-410zM1228 2457v410h410v-410h-410zM2867 2048v1228
h-2048v410h2457v-1638h-409z" />
    <glyph glyph-name="uni30CD" unicode="&#x30cd;" horiz-adv-x="4095" 
d="M0 819v409h409v-409h-409zM3276 819v409h410v-409h-410zM409 1228v410h819v-410h-819zM2867 1228v410h409v-410h-409zM1638 0v1638h-410v410h820v-2048h-410zM2457 1638v410h410v-410h-410zM2048 2048v409h409v-409h-409zM2457 2457v410h-2048v409h1229v410h410v-410
h1228v-409h-409v-410h-410z" />
    <glyph glyph-name="uni30CE" unicode="&#x30ce;" horiz-adv-x="4096" 
d="M409 0v409h819v-409h-819zM1228 409v410h410v-410h-410zM1638 819v409h410v-409h-410zM2048 1228v820h409v-820h-409zM2457 2048v1638h410v-1638h-410z" />
    <glyph glyph-name="uni30CF" unicode="&#x30cf;" horiz-adv-x="4095" 
d="M0 0v819h409v-819h-409zM3276 0v1638h410v-1638h-410zM409 819v1229h410v-1229h-410zM2867 1638v1229h409v-1229h-409zM819 2048v1228h409v-1228h-409zM2457 2867v409h410v-409h-410z" />
    <glyph glyph-name="uni30D0" unicode="&#x30d0;" horiz-adv-x="4095" 
d="M0 0v819h409v-819h-409zM3276 0v1638h410v-1638h-410zM409 819v1229h410v-1229h-410zM2867 1638v1229h409v-1229h-409zM819 2048v1228h409v-1228h-409zM2457 2867v819h410v-819h-410zM3276 2867v819h410v-819h-410z" />
    <glyph glyph-name="uni30D1" unicode="&#x30d1;" horiz-adv-x="4095" 
d="M0 0v819h409v-819h-409zM3276 0v1638h410v-1638h-410zM409 819v1229h410v-1229h-410zM819 2048v1228h409v-1228h-409zM3276 2867v409h410v-409h-410zM2867 1638v819h-410v1229h819v-410h-409v-409h409v-1229h-409z" />
    <glyph glyph-name="uni30D2" unicode="&#x30d2;" horiz-adv-x="4096" 
d="M819 0v409h2457v-409h-2457zM1228 2457v410h820v-410h-820zM2048 2867v409h819v-409h-819zM409 409v3277h410v-1229h409v-409h-409v-1639h-410z" />
    <glyph glyph-name="uni30D3" unicode="&#x30d3;" horiz-adv-x="4095" 
d="M819 0v409h2457v-409h-2457zM409 409v3277h410v-1229h819v-409h-819v-1639h-410zM1638 2457v410h819v819h410v-819h409v-410h-1638zM3276 2867v819h410v-819h-410z" />
    <glyph glyph-name="uni30D4" unicode="&#x30d4;" horiz-adv-x="4095" 
d="M819 0v409h2457v-409h-2457zM1638 2457v410h819v409h410v-409h409v-410h-1638zM3276 2867v409h410v-409h-410zM409 409v3277h410v-1229h819v-409h-819v-1639h-410zM2867 3276v410h409v-410h-409z" />
    <glyph glyph-name="uni30D5" unicode="&#x30d5;" horiz-adv-x="4096" 
d="M819 0v409h819v-409h-819zM1638 409v410h410v-410h-410zM2048 819v409h409v-409h-409zM2457 1228v820h410v-820h-410zM2867 2048v819h-2458v409h2867v-1228h-409z" />
    <glyph glyph-name="uni30D6" unicode="&#x30d6;" horiz-adv-x="4095" 
d="M409 0v409h819v-409h-819zM1228 409v410h410v-410h-410zM1638 819v409h410v-409h-410zM2048 1228v820h409v-820h-409zM2457 2048v819h-2457v409h2457v410h410v-1638h-410zM3276 2867v819h410v-819h-410z" />
    <glyph glyph-name="uni30D7" unicode="&#x30d7;" horiz-adv-x="4095" 
d="M409 0v409h819v-409h-819zM1228 409v410h410v-410h-410zM1638 819v409h410v-409h-410zM2048 1228v820h409v-820h-409zM2457 2048v819h-2457v409h2867v-409h409v-410h-409v-409h-410zM3276 2867v409h410v-409h-410zM2867 3276v410h409v-410h-409z" />
    <glyph glyph-name="uni30D8" unicode="&#x30d8;" horiz-adv-x="4095" 
d="M3276 0v409h410v-409h-410zM2867 409v410h409v-410h-409zM0 819v409h409v-409h-409zM2457 819v819h410v-819h-410zM409 1228v820h410v-820h-410zM2048 1638v410h409v-410h-409zM819 2048v819h409v-819h-409zM1638 2048v819h410v-819h-410zM1228 2867v409h410v-409h-410z
" />
    <glyph glyph-name="uni30D9" unicode="&#x30d9;" horiz-adv-x="4095" 
d="M3276 0v409h410v-409h-410zM2867 409v410h409v-410h-409zM0 819v409h409v-409h-409zM2457 819v819h410v-819h-410zM409 1228v820h410v-820h-410zM2048 1638v410h409v-410h-409zM819 2048v819h409v-819h-409zM1638 2048v819h410v-819h-410zM1228 2867v409h410v-409h-410z
M2457 2867v819h410v-819h-410zM3276 2867v819h410v-819h-410z" />
    <glyph glyph-name="uni30DA" unicode="&#x30da;" horiz-adv-x="4095" 
d="M3276 0v409h410v-409h-410zM2867 409v410h409v-410h-409zM0 819v409h409v-409h-409zM2457 819v819h410v-819h-410zM409 1228v820h410v-820h-410zM2048 1638v410h409v-410h-409zM819 2048v819h409v-819h-409zM1638 2048v819h410v-819h-410zM2867 2457v410h409v-410h-409z
M1228 2867v409h410v-409h-410zM2457 2867v409h410v-409h-410zM3276 2867v409h410v-409h-410zM2867 3276v410h409v-410h-409z" />
    <glyph glyph-name="uni30DB" unicode="&#x30db;" horiz-adv-x="4095" 
d="M0 409v410h409v-410h-409zM2867 409v819h409v-819h-409zM409 819v819h410v-819h-410zM819 1638v410h409v-410h-409zM2457 1228v820h410v-820h-410zM1638 0v2457h-1638v410h1638v819h410v-819h1638v-410h-1638v-2457h-410z" />
    <glyph glyph-name="uni30DC" unicode="&#x30dc;" horiz-adv-x="4095" 
d="M0 409v410h409v-410h-409zM2867 409v819h409v-819h-409zM409 819v819h410v-819h-410zM819 1638v410h409v-410h-409zM2457 1228v820h410v-820h-410zM1638 0v2457h-1638v410h1638v819h410v-819h409v819h410v-819h409v819h410v-1229h-1638v-2457h-410z" />
    <glyph glyph-name="uni30DD" unicode="&#x30dd;" horiz-adv-x="4095" 
d="M0 409v410h409v-410h-409zM2867 409v819h409v-819h-409zM409 819v819h410v-819h-410zM819 1638v410h409v-410h-409zM2457 1228v820h410v-820h-410zM3276 2867v409h410v-409h-410zM1638 0v2457h-1638v410h1638v819h410v-819h409v409h410v-409h409v-410h-1228v-2457h-410z
M2867 3276v410h409v-410h-409z" />
    <glyph glyph-name="uni30DE" unicode="&#x30de;" horiz-adv-x="4095" 
d="M2048 0v409h409v-409h-409zM1228 409v410h820v-410h-820zM819 819v409h409v-409h-409zM2048 819v409h409v-409h-409zM2457 1228v410h410v-410h-410zM2867 1638v819h409v-819h-409zM3276 2457v410h-3276v409h3686v-819h-410z" />
    <glyph glyph-name="uni30DF" unicode="&#x30df;" horiz-adv-x="4096" 
d="M2457 0v409h819v-409h-819zM1638 409v410h819v-410h-819zM409 819v409h1229v-409h-1229zM2457 1228v410h410v-410h-410zM1638 1638v410h819v-410h-819zM409 2048v409h1229v-409h-1229zM2457 2457v410h410v-410h-410zM1638 2867v409h819v-409h-819zM409 3276v410h1229
v-410h-1229z" />
    <glyph glyph-name="uni30E0" unicode="&#x30e0;" horiz-adv-x="4095" 
d="M0 0v409h409v819h410v-819h1229v-409h-2048zM3276 0v409h-1228v410h819v819h409v-819h410v-819h-410zM2457 1638v410h410v-410h-410zM819 1228v1229h409v-1229h-409zM1228 2457v1229h410v-1229h-410z" />
    <glyph glyph-name="uni30E1" unicode="&#x30e1;" horiz-adv-x="4096" 
d="M409 0v409h819v-409h-819zM1228 409v410h410v-410h-410zM1638 819v409h410v-409h-410zM2867 819v819h409v-819h-409zM2048 1228v820h-410v409h819v-409h410v-410h-410v-410h-409zM819 2457v410h819v-410h-819zM2457 2457v1229h410v-1229h-410z" />
    <glyph glyph-name="uni30E2" unicode="&#x30e2;" horiz-adv-x="4096" 
d="M1638 0v409h1638v-409h-1638zM1228 409v1229h-1228v410h1228v1228h-819v410h2458v-410h-1229v-1228h1638v-410h-1638v-1229h-410z" />
    <glyph glyph-name="uni30E3" unicode="&#x30e3;" horiz-adv-x="4096" 
d="M1638 0v1228h410v-1228h-410zM2457 1228v820h410v-820h-410zM1228 1228v410h-819v410h819v409h820v-409h-410v-820h-410zM2867 2048v409h-819v410h1228v-819h-409zM819 2457v819h409v-819h-409z" />
    <glyph glyph-name="uni30E4" unicode="&#x30e4;" horiz-adv-x="4095" 
d="M1638 0v819h410v-819h-410zM2457 1228v410h410v-410h-410zM1228 819v1229h410v-1229h-410zM2867 1638v819h409v-819h-409zM0 2048v409h819v819h409v-409h1229v-410h-1229v-409h-1228zM3276 2457v410h-819v409h1229v-819h-410zM409 3276v410h410v-410h-410z" />
    <glyph glyph-name="uni30E5" unicode="&#x30e5;" horiz-adv-x="4096" 
d="M409 0v409h1639v1639h-1229v409h1638v-2048h819v-409h-2867z" />
    <glyph glyph-name="uni30E6" unicode="&#x30e6;" horiz-adv-x="4095" 
d="M0 0v409h2048v819h409v-819h1229v-409h-3686zM2457 1228v1639h-2048v409h2458v-2048h-410z" />
    <glyph glyph-name="uni30E7" unicode="&#x30e7;" horiz-adv-x="4096" 
d="M819 0v409h1638v819h-1638v410h1638v819h-1638v410h2048v-2867h-2048z" />
    <glyph glyph-name="uni30E8" unicode="&#x30e8;" horiz-adv-x="4096" 
d="M409 0v409h2458v1229h-2048v410h2048v1228h-2458v410h2867v-3686h-2867z" />
    <glyph glyph-name="uni30E9" unicode="&#x30e9;" horiz-adv-x="4096" 
d="M1228 0v409h820v-409h-820zM2048 409v410h409v-410h-409zM2457 819v409h410v-409h-410zM2867 1228v820h-2458v409h2867v-1229h-409zM819 3276v410h2048v-410h-2048z" />
    <glyph glyph-name="uni30EA" unicode="&#x30ea;" horiz-adv-x="4096" 
d="M1228 0v409h820v-409h-820zM2048 409v819h409v-819h-409zM819 1638v2048h409v-2048h-409zM2457 1228v2458h410v-2458h-410z" />
    <glyph glyph-name="uni30EB" unicode="&#x30eb;" horiz-adv-x="4095" 
d="M0 0v409h409v-409h-409zM409 409v819h410v-819h-410zM2867 819v409h409v-409h-409zM3276 1228v820h410v-820h-410zM819 1228v2048h409v-2048h-409zM2048 0v3686h409v-2867h410v-410h-410v-409h-409z" />
    <glyph glyph-name="uni30EC" unicode="&#x30ec;" horiz-adv-x="4096" 
d="M1638 409v410h819v-410h-819zM2457 819v409h410v-409h-410zM2867 1228v820h409v-820h-409zM409 0v3686h410v-3277h819v-409h-1229z" />
    <glyph glyph-name="uni30ED" unicode="&#x30ed;" horiz-adv-x="4096" 
d="M2867 409v2458h-2048v-2458h2048zM409 0v3276h2867v-3276h-2867z" />
    <glyph glyph-name="uni30EE" unicode="&#x30ee;" horiz-adv-x="4096" 
d="M1228 0v409h820v-409h-820zM2048 409v410h409v-410h-409zM2457 819v1638h-1638v-1229h-410v1639h2458v-2048h-410z" />
    <glyph glyph-name="uni30EF" unicode="&#x30ef;" horiz-adv-x="4096" 
d="M1228 0v409h820v-409h-820zM2048 409v410h409v-410h-409zM2457 819v409h410v-409h-410zM2867 1228v1639h-2458v-1229h-409v1638h3276v-2048h-409z" />
    <glyph glyph-name="uni30F2" unicode="&#x30f2;" horiz-adv-x="4096" 
d="M819 0v409h1229v-409h-1229zM2048 409v410h409v-410h-409zM2457 819v409h410v-409h-410zM2867 1228v410h-2458v410h2458v819h-2458v409h2867v-2048h-409z" />
    <glyph glyph-name="uni30F3" unicode="&#x30f3;" horiz-adv-x="4095" 
d="M409 0v409h1229v-409h-1229zM1638 409v410h819v-410h-819zM2457 819v409h410v-409h-410zM2867 1228v820h409v-820h-409zM1228 2457v410h410v-410h-410zM3276 2048v819h410v-819h-410zM819 2867v409h409v-409h-409zM409 3276v410h410v-410h-410z" />
    <glyph glyph-name="uni30F4" unicode="&#x30f4;" horiz-adv-x="4095" 
d="M1228 0v409h820v-409h-820zM2048 409v410h409v-410h-409zM2457 819v819h410v-819h-410zM0 1638v1638h1228v410h410v-410h819v410h410v-410h409v410h410v-819h-410v-1229h-409v1229h-2458v-1229h-409z" />
    <glyph glyph-name="uni30F5" unicode="&#x30f5;" horiz-adv-x="4096" 
d="M409 0v409h410v-409h-410zM1638 0v409h819v-409h-819zM819 409v410h409v-410h-409zM2457 409v1639h-819v-1229h-410v1229h-819v409h819v819h410v-819h1229v-2048h-410z" />
    <glyph glyph-name="uni30F6" unicode="&#x30f6;" horiz-adv-x="4096" 
d="M1228 0v409h410v-409h-410zM1638 409v410h410v-410h-410zM409 1228v410h410v-410h-410zM2048 819v1229h-820v-410h-409v1638h409v-819h2048v-409h-819v-1229h-409z" />
    <glyph glyph-name="uni30F7" unicode="&#x30f7;" horiz-adv-x="4095" 
d="M1228 0v409h820v-409h-820zM2048 409v410h409v-410h-409zM2457 819v409h410v-409h-410zM2867 1228v1639h-2458v-1229h-409v1638h2457v410h410v-410h409v410h410v-819h-410v-1639h-409z" />
    <glyph glyph-name="uni30FA" unicode="&#x30fa;" horiz-adv-x="4095" 
d="M819 0v409h1229v-409h-1229zM2048 409v410h409v-410h-409zM2457 819v409h410v-409h-410zM2867 1228v410h-2458v410h2458v819h-2458v409h2048v410h410v-410h409v410h410v-819h-410v-1639h-409z" />
    <glyph glyph-name="uni30FB" unicode="&#x30fb;" horiz-adv-x="4096" 
d="M1228 1638v819h820v-819h-820z" />
    <glyph glyph-name="uni30FC" unicode="&#x30fc;" horiz-adv-x="4096" 
d="M409 1638v410h2867v-410h-2867zM0 2048v409h409v-409h-409z" />
    <glyph glyph-name="uniFF01" unicode="&#xff01;" horiz-adv-x="4096" 
d="M1638 0v819h410v-819h-410zM1638 1228v2458h410v-2458h-410z" />
    <glyph glyph-name="uniFF08" unicode="&#xff08;" horiz-adv-x="4096" 
d="M2457 0v409h410v-409h-410zM2048 409v819h409v-819h-409zM1638 1228v1229h410v-1229h-410zM2048 2457v819h409v-819h-409zM2457 3276v410h410v-410h-410z" />
    <glyph glyph-name="uniFF09" unicode="&#xff09;" horiz-adv-x="4096" 
d="M819 0v409h409v-409h-409zM1228 409v819h410v-819h-410zM1638 1228v1229h410v-1229h-410zM1228 2457v819h410v-819h-410zM819 3276v410h409v-410h-409z" />
    <glyph glyph-name="uniFF0B" unicode="&#xff0b;" horiz-adv-x="4096" 
d="M1638 1228v820h-819v409h819v819h410v-819h819v-409h-819v-820h-410z" />
    <glyph glyph-name="uniFF0D" unicode="&#xff0d;" horiz-adv-x="4096" 
d="M819 2048v409h2048v-409h-2048z" />
    <glyph glyph-name="uniFF0F" unicode="&#xff0f;" horiz-adv-x="4095" 
d="M0 0v409h409v-409h-409zM409 409v410h410v-410h-410zM819 819v409h409v-409h-409zM1228 1228v410h410v-410h-410zM1638 1638v410h410v-410h-410zM2048 2048v409h409v-409h-409zM2457 2457v410h410v-410h-410zM2867 2867v409h409v-409h-409zM3276 3276v410h410v-410h-410z
" />
    <glyph glyph-name="uniFF1D" unicode="&#xff1d;" horiz-adv-x="4096" 
d="M819 1228v410h2048v-410h-2048zM819 2457v410h2048v-410h-2048z" />
    <glyph glyph-name="uniFF1F" unicode="&#xff1f;" horiz-adv-x="4096" 
d="M1228 0v819h410v-819h-410zM1228 1228v410h410v-410h-410zM1638 1638v410h819v-410h-819zM409 2457v819h410v-819h-410zM2457 2048v1228h410v-1228h-410zM819 3276v410h1638v-410h-1638z" />
    <glyph glyph-name="uniFF3B" unicode="&#xff3b;" horiz-adv-x="4096" 
d="M1638 0v3686h1229v-410h-819v-2867h819v-409h-1229z" />
    <glyph glyph-name="uniFF3C" unicode="&#xff3c;" horiz-adv-x="4095" 
d="M3276 0v409h410v-409h-410zM2867 409v410h409v-410h-409zM2457 819v409h410v-409h-410zM2048 1228v410h409v-410h-409zM1638 1638v410h410v-410h-410zM1228 2048v409h410v-409h-410zM819 2457v410h409v-410h-409zM409 2867v409h410v-409h-410zM0 3276v410h409v-410h-409z
" />
    <glyph glyph-name="uniFF3D" unicode="&#xff3d;" horiz-adv-x="4096" 
d="M819 0v409h819v2867h-819v410h1229v-3686h-1229z" />
    <glyph glyph-name="uniFF5B" unicode="&#xff5b;" horiz-adv-x="4096" 
d="M2048 0v409h819v-409h-819zM1638 409v1229h410v-1229h-410zM1228 1638v410h410v-410h-410zM1638 2048v1228h410v-1228h-410zM2048 3276v410h819v-410h-819z" />
    <glyph glyph-name="uniFF5C" unicode="&#xff5c;" horiz-adv-x="4096" 
d="M1638 0v3686h410v-3686h-410z" />
    <glyph glyph-name="uniFF5D" unicode="&#xff5d;" horiz-adv-x="4095" 
d="M819 0v409h819v-409h-819zM1638 409v1229h410v-1229h-410zM2048 1638v410h409v-410h-409zM1638 2048v1228h410v-1228h-410zM819 3276v410h819v-410h-819z" />
    <glyph glyph-name="uniFF5E" unicode="&#xff5e;" horiz-adv-x="4095" 
d="M2048 1638v410h1228v-410h-1228zM0 2048v409h409v-409h-409zM1638 2048v409h410v-409h-410zM3276 2048v409h410v-409h-410zM409 2457v410h1229v-410h-1229z" />
    <glyph glyph-name="uniFFFC" unicode="&#xfffc;" horiz-adv-x="4915" 
d="M2457 409v410h-409v-410h409zM2048 -409v409h-410v409h-410v410h-409v409h-410v410h-409v410h409v409h410v410h409v-819h410v409h1229v-409h-819v-820h409v410h819v1229h410v-410h410v-409h409v-410h-409v-410h-410v-409h-410v-410h-409v-409h-410v-409h-409zM1228 2867
v409h410v410h410v410h409v-410h410v-410h409v-409h-2048z" />
    <glyph glyph-name="uniFFFD" unicode="&#xfffd;" horiz-adv-x="4915" 
d="M2457 409v410h-409v-410h409zM2048 -409v409h-410v409h-410v410h-409v409h-410v410h-409v410h409v409h410v410h409v-819h410v409h1229v-409h-819v-820h409v410h819v1229h410v-410h410v-409h409v-410h-409v-410h-410v-409h-410v-410h-409v-409h-410v-409h-409zM1228 2867
v409h410v410h410v410h409v-410h410v-410h409v-409h-2048z" />
  </font>
</defs>
</svg>
